solid OpenSCAD_Model
  facet normal 0 0 1
    outer loop
      vertex 143 2 184
      vertex 135.5 7 184
      vertex 134.76776695296638 5.232233047033631 184
    endloop
  endfacet
  facet normal 0 0 1
    outer loop
      vertex 143 2 184
      vertex 134.76776695296638 5.232233047033631 184
      vertex 133 4.5 184
    endloop
  endfacet
  facet normal 0 0 1
    outer loop
      vertex 143 2 184
      vertex 135.5 70 184
      vertex 135.5 7 184
    endloop
  endfacet
  facet normal 0 0 1
    outer loop
      vertex 135.5 7 184
      vertex 134.76776695296638 68.23223304703363 184
      vertex 134.76776695296638 8.767766952966369 184
    endloop
  endfacet
  facet normal 0 0 1
    outer loop
      vertex 133 9.5 184
      vertex 134.76776695296638 8.767766952966369 184
      vertex 133 67.5 184
    endloop
  endfacet
  facet normal 0 0 1
    outer loop
      vertex 131.23223304703362 68.23223304703363 184
      vertex 131.23223304703362 8.767766952966369 184
      vertex 133 9.5 184
    endloop
  endfacet
  facet normal 0 0 1
    outer loop
      vertex 143 2 184
      vertex 133 4.5 184
      vertex 70 4.5 184
    endloop
  endfacet
  facet normal 0 0 1
    outer loop
      vertex 133 4.5 184
      vertex 131.23223304703362 5.232233047033631 184
      vertex 70 4.5 184
    endloop
  endfacet
  facet normal 0 0 1
    outer loop
      vertex 131.23223304703362 5.232233047033631 184
      vertex 130.5 7 184
      vertex 71.76776695296637 5.232233047033631 184
    endloop
  endfacet
  facet normal 0 0 1
    outer loop
      vertex 131.23223304703362 8.767766952966369 184
      vertex 72.5 7 184
      vertex 130.5 7 184
    endloop
  endfacet
  facet normal 0 0 1
    outer loop
      vertex 131.23223304703362 68.23223304703363 184
      vertex 71.76776695296637 8.767766952966369 184
      vertex 131.23223304703362 8.767766952966369 184
    endloop
  endfacet
  facet normal 0.8314696123025478 -0.5555702330195984 0
    outer loop
      vertex 141.53553390593274 -1.5355339059327378 184
      vertex 142.61939766255642 0.08658283817455104 170
      vertex 142.61939766255642 0.08658283817455104 184
    endloop
  endfacet
  facet normal 0.9807852804032294 -0.19509032201613344 0
    outer loop
      vertex 142.61939766255642 0.08658283817455104 184
      vertex 142.61939766255642 0.08658283817455104 170
      vertex 143 2 184
    endloop
  endfacet
  facet normal 0.5555702330195991 -0.8314696123025473 0
    outer loop
      vertex 141.53553390593274 -1.5355339059327378 184
      vertex 139.91341716182544 -2.619397662556434 184
      vertex 139.91341716182544 -2.619397662556434 170
    endloop
  endfacet
  facet normal 0.19509032201612952 -0.9807852804032303 0
    outer loop
      vertex 139.91341716182544 -2.619397662556434 184
      vertex 138 -3 184
      vertex 139.91341716182544 -2.619397662556434 170
    endloop
  endfacet
  facet normal 0 0 1
    outer loop
      vertex 135.5 7 184
      vertex 135.5 70 184
      vertex 134.76776695296638 68.23223304703363 184
    endloop
  endfacet
  facet normal 0 0 1
    outer loop
      vertex 134.76776695296638 8.767766952966369 184
      vertex 134.76776695296638 68.23223304703363 184
      vertex 133 67.5 184
    endloop
  endfacet
  facet normal 0 0 1
    outer loop
      vertex 133 67.5 184
      vertex 131.23223304703362 68.23223304703363 184
      vertex 133 9.5 184
    endloop
  endfacet
  facet normal 0 0 1
    outer loop
      vertex 131.23223304703362 68.23223304703363 184
      vertex 130.5 70 184
      vertex 71.76776695296637 8.767766952966369 184
    endloop
  endfacet
  facet normal 0 0 1
    outer loop
      vertex 141.53553390593274 -1.5355339059327378 184
      vertex -2.6193976625564233 0.08658283817455104 184
      vertex 139.91341716182544 -2.619397662556434 184
    endloop
  endfacet
  facet normal 0 0 1
    outer loop
      vertex 142.61939766255642 0.08658283817455104 184
      vertex 143 2 184
      vertex -2.6193976625564233 0.08658283817455104 184
    endloop
  endfacet
  facet normal 0 0 1
    outer loop
      vertex 141.53553390593274 -1.5355339059327378 184
      vertex 142.61939766255642 0.08658283817455104 184
      vertex -2.6193976625564233 0.08658283817455104 184
    endloop
  endfacet
  facet normal 0 0 1
    outer loop
      vertex 139.91341716182544 -2.619397662556434 184
      vertex -2.6193976625564233 0.08658283817455104 184
      vertex 138 -3 184
    endloop
  endfacet
  facet normal 0 0 1
    outer loop
      vertex 131.23223304703362 5.232233047033631 184
      vertex 71.76776695296637 5.232233047033631 184
      vertex 70 4.5 184
    endloop
  endfacet
  facet normal 0 0 1
    outer loop
      vertex 131.23223304703362 8.767766952966369 184
      vertex 71.76776695296637 8.767766952966369 184
      vertex 72.5 7 184
    endloop
  endfacet
  facet normal 0 0 1
    outer loop
      vertex 71.76776695296637 5.232233047033631 184
      vertex 130.5 7 184
      vertex 72.5 7 184
    endloop
  endfacet
  facet normal 0 0 1
    outer loop
      vertex 71.76776695296637 8.767766952966369 184
      vertex 130.5 70 184
      vertex 70 9.5 184
    endloop
  endfacet
  facet normal 0 0 1
    outer loop
      vertex 143 2 184
      vertex 70 4.5 184
      vertex -2.6193976625564233 0.08658283817455104 184
    endloop
  endfacet
  facet normal 0 0 1
    outer loop
      vertex 130.5 70 184
      vertex 131.23223304703362 71.76776695296637 184
      vertex 9.5 7 184
    endloop
  endfacet
  facet normal 0.8314696123025478 -0.5555702330195984 0
    outer loop
      vertex 141.53553390593274 -1.5355339059327378 184
      vertex 141.53553390593274 -1.5355339059327378 170
      vertex 142.61939766255642 0.08658283817455104 170
    endloop
  endfacet
  facet normal 0.5555702330195991 -0.8314696123025473 0
    outer loop
      vertex 141.53553390593274 -1.5355339059327378 184
      vertex 139.91341716182544 -2.619397662556434 170
      vertex 141.53553390593274 -1.5355339059327378 170
    endloop
  endfacet
  facet normal 0.9807852804032294 -0.19509032201613344 0
    outer loop
      vertex 143 2 184
      vertex 142.61939766255642 0.08658283817455104 170
      vertex 143 2 170
    endloop
  endfacet
  facet normal 0.19509032201612952 -0.9807852804032303 0
    outer loop
      vertex 138 -3 184
      vertex 138 -3 170
      vertex 139.91341716182544 -2.619397662556434 170
    endloop
  endfacet
  facet normal 0 0 -1
    outer loop
      vertex 142.61939766255642 0.08658283817455104 170
      vertex 136.81341716182544 0.4806023374435662 170
      vertex 138.43553390593274 1.564466094067262 170
    endloop
  endfacet
  facet normal 0 0 -1
    outer loop
      vertex 142.61939766255642 0.08658283817455104 170
      vertex 139.51939766255643 3.1865828381745516 170
      vertex 143 2 170
    endloop
  endfacet
  facet normal 0 0 -1
    outer loop
      vertex 143 2 170
      vertex 139.51939766255643 3.1865828381745516 170
      vertex 139.9 5.1 170
    endloop
  endfacet
  facet normal 0 0 -1
    outer loop
      vertex 142.61939766255642 0.08658283817455104 170
      vertex 138.43553390593274 1.564466094067262 170
      vertex 139.51939766255643 3.1865828381745516 170
    endloop
  endfacet
  facet normal 0 0 -1
    outer loop
      vertex 142.61939766255642 0.08658283817455104 170
      vertex 134.9 0.10000000000000009 170
      vertex 136.81341716182544 0.4806023374435662 170
    endloop
  endfacet
  facet normal 1 0 0
    outer loop
      vertex 143 2 184
      vertex 143 2 170
      vertex 143 138 170
    endloop
  endfacet
  facet normal 0 0 -1
    outer loop
      vertex 143 2 170
      vertex 139.9 5.1 170
      vertex 143 138 170
    endloop
  endfacet
  facet normal 0 -1 0
    outer loop
      vertex 138 -3 184
      vertex 2 -3 170
      vertex 138 -3 170
    endloop
  endfacet
  facet normal 0 0 -1
    outer loop
      vertex 141.53553390593274 -1.5355339059327378 170
      vertex 139.91341716182544 -2.619397662556434 170
      vertex -2.6193976625564233 0.08658283817455104 170
    endloop
  endfacet
  facet normal 0 0 -1
    outer loop
      vertex 142.61939766255642 0.08658283817455104 170
      vertex 4.700000000000017 0.10000000000000009 170
      vertex 134.9 0.10000000000000009 170
    endloop
  endfacet
  facet normal 0 0 -1
    outer loop
      vertex 141.53553390593274 -1.5355339059327378 170
      vertex -2.6193976625564233 0.08658283817455104 170
      vertex 142.61939766255642 0.08658283817455104 170
    endloop
  endfacet
  facet normal 0 0 -1
    outer loop
      vertex 139.91341716182544 -2.619397662556434 170
      vertex 138 -3 170
      vertex -2.6193976625564233 0.08658283817455104 170
    endloop
  endfacet
  facet normal 0 0 1
    outer loop
      vertex 143 2 184
      vertex 143 138 184
      vertex 135.5 70 184
    endloop
  endfacet
  facet normal 0 0 1
    outer loop
      vertex 143 138 184
      vertex 134.76776695296638 71.76776695296637 184
      vertex 135.5 70 184
    endloop
  endfacet
  facet normal 0 0 1
    outer loop
      vertex 143 138 184
      vertex 133 72.5 184
      vertex 134.76776695296638 71.76776695296637 184
    endloop
  endfacet
  facet normal 0 0 1
    outer loop
      vertex 143 138 184
      vertex 131.23223304703362 71.76776695296637 184
      vertex 133 72.5 184
    endloop
  endfacet
  facet normal 1 0 0
    outer loop
      vertex 143 2 184
      vertex 143 138 170
      vertex 143 138 184
    endloop
  endfacet
  facet normal 0 0 1
    outer loop
      vertex 143 138 184
      vertex 142.61939766255642 139.91341716182544 184
      vertex 135.5 133 184
    endloop
  endfacet
  facet normal 0 0 1
    outer loop
      vertex 142.61939766255642 139.91341716182544 184
      vertex 141.53553390593274 141.53553390593274 184
      vertex 134.76776695296638 134.76776695296638 184
    endloop
  endfacet
  facet normal 0 0 1
    outer loop
      vertex 141.53553390593274 141.53553390593274 184
      vertex 139.91341716182544 142.61939766255642 184
      vertex 134.76776695296638 134.76776695296638 184
    endloop
  endfacet
  facet normal 0 0 1
    outer loop
      vertex 143 138 184
      vertex 135.5 133 184
      vertex 134.76776695296638 131.23223304703362 184
    endloop
  endfacet
  facet normal 0 0 1
    outer loop
      vertex 142.61939766255642 139.91341716182544 184
      vertex 134.76776695296638 134.76776695296638 184
      vertex 135.5 133 184
    endloop
  endfacet
  facet normal 0 0 1
    outer loop
      vertex 139.91341716182544 142.61939766255642 184
      vertex 133 135.5 184
      vertex 134.76776695296638 134.76776695296638 184
    endloop
  endfacet
  facet normal 0 0 1
    outer loop
      vertex 138 143 184
      vertex 131.23223304703362 134.76776695296638 184
      vertex 133 135.5 184
    endloop
  endfacet
  facet normal 0 0 1
    outer loop
      vertex 139.91341716182544 142.61939766255642 184
      vertex 138 143 184
      vertex 133 135.5 184
    endloop
  endfacet
  facet normal 0.9807852804032291 0.19509032201613474 0
    outer loop
      vertex 143 138 184
      vertex 142.61939766255642 139.91341716182544 170
      vertex 142.61939766255642 139.91341716182544 184
    endloop
  endfacet
  facet normal 0.8314696123025499 0.5555702330195953 0
    outer loop
      vertex 142.61939766255642 139.91341716182544 184
      vertex 142.61939766255642 139.91341716182544 170
      vertex 141.53553390593274 141.53553390593274 184
    endloop
  endfacet
  facet normal 0.5555702330195953 0.8314696123025499 0
    outer loop
      vertex 141.53553390593274 141.53553390593274 184
      vertex 139.91341716182544 142.61939766255642 170
      vertex 139.91341716182544 142.61939766255642 184
    endloop
  endfacet
  facet normal 0.19509032201613474 0.9807852804032291 0
    outer loop
      vertex 139.91341716182544 142.61939766255642 184
      vertex 139.91341716182544 142.61939766255642 170
      vertex 138 143 184
    endloop
  endfacet
  facet normal 0 0 1
    outer loop
      vertex 143 138 184
      vertex 9.5 7 184
      vertex 131.23223304703362 71.76776695296637 184
    endloop
  endfacet
  facet normal 0 0 1
    outer loop
      vertex 143 138 184
      vertex 134.76776695296638 131.23223304703362 184
      vertex 8.767766952966383 8.767766952966369 184
    endloop
  endfacet
  facet normal 0 0 1
    outer loop
      vertex 8.767766952966383 8.767766952966369 184
      vertex 134.76776695296638 131.23223304703362 184
      vertex 133 130.5 184
    endloop
  endfacet
  facet normal 0 0 1
    outer loop
      vertex 8.767766952966383 8.767766952966369 184
      vertex 133 130.5 184
      vertex 131.23223304703362 131.23223304703362 184
    endloop
  endfacet
  facet normal 0 0 1
    outer loop
      vertex 130.5 133 184
      vertex 7 9.5 184
      vertex 131.23223304703362 131.23223304703362 184
    endloop
  endfacet
  facet normal 0 0 1
    outer loop
      vertex 131.23223304703362 134.76776695296638 184
      vertex 7 9.5 184
      vertex 130.5 133 184
    endloop
  endfacet
  facet normal 0 0 1
    outer loop
      vertex 138 143 184
      vertex 7 9.5 184
      vertex 131.23223304703362 134.76776695296638 184
    endloop
  endfacet
  facet normal 0 0 1
    outer loop
      vertex 138 143 184
      vertex 72.5 133 184
      vertex 71.76776695296637 131.23223304703362 184
    endloop
  endfacet
  facet normal 0 0 1
    outer loop
      vertex 138 143 184
      vertex 71.76776695296637 134.76776695296638 184
      vertex 72.5 133 184
    endloop
  endfacet
  facet normal 0 0 1
    outer loop
      vertex 138 143 184
      vertex 70 135.5 184
      vertex 71.76776695296637 134.76776695296638 184
    endloop
  endfacet
  facet normal 0 0 1
    outer loop
      vertex 138 143 184
      vertex 71.76776695296637 131.23223304703362 184
      vertex 9.5 70 184
    endloop
  endfacet
  facet normal 0 0 -1
    outer loop
      vertex 139.9 5.1 170
      vertex 139.9 135.29999999999998 170
      vertex 143 138 170
    endloop
  endfacet
  facet normal 0.9807852804032291 0.19509032201613474 0
    outer loop
      vertex 143 138 184
      vertex 143 138 170
      vertex 142.61939766255642 139.91341716182544 170
    endloop
  endfacet
  facet normal 0.8314696123025499 0.5555702330195953 0
    outer loop
      vertex 141.53553390593274 141.53553390593274 184
      vertex 142.61939766255642 139.91341716182544 170
      vertex 141.53553390593274 141.53553390593274 170
    endloop
  endfacet
  facet normal 0.5555702330195953 0.8314696123025499 0
    outer loop
      vertex 141.53553390593274 141.53553390593274 184
      vertex 141.53553390593274 141.53553390593274 170
      vertex 139.91341716182544 142.61939766255642 170
    endloop
  endfacet
  facet normal 0.19509032201613474 0.9807852804032291 0
    outer loop
      vertex 138 143 184
      vertex 139.91341716182544 142.61939766255642 170
      vertex 138 143 170
    endloop
  endfacet
  facet normal 0 0 -1
    outer loop
      vertex 143 138 170
      vertex 139.9 135.29999999999998 170
      vertex 139.51939766255643 137.21341716182542 170
    endloop
  endfacet
  facet normal 0 0 -1
    outer loop
      vertex 143 138 170
      vertex 139.51939766255643 137.21341716182542 170
      vertex 142.61939766255642 139.91341716182544 170
    endloop
  endfacet
  facet normal 0 0 -1
    outer loop
      vertex 142.61939766255642 139.91341716182544 170
      vertex 138.43553390593274 138.83553390593272 170
      vertex 141.53553390593274 141.53553390593274 170
    endloop
  endfacet
  facet normal 0 0 -1
    outer loop
      vertex 139.51939766255643 137.21341716182542 170
      vertex 138.43553390593274 138.83553390593272 170
      vertex 142.61939766255642 139.91341716182544 170
    endloop
  endfacet
  facet normal 0 0 -1
    outer loop
      vertex 141.53553390593274 141.53553390593274 170
      vertex 138.43553390593274 138.83553390593272 170
      vertex 139.91341716182544 142.61939766255642 170
    endloop
  endfacet
  facet normal 0 0 -1
    outer loop
      vertex 139.91341716182544 142.61939766255642 170
      vertex 138.43553390593274 138.83553390593272 170
      vertex 136.81341716182544 139.9193976625564 170
    endloop
  endfacet
  facet normal 0 0 -1
    outer loop
      vertex 139.91341716182544 142.61939766255642 170
      vertex 136.81341716182544 139.9193976625564 170
      vertex 138 143 170
    endloop
  endfacet
  facet normal 0 0 -1
    outer loop
      vertex 136.81341716182544 139.9193976625564 170
      vertex 134.9 140.29999999999998 170
      vertex 138 143 170
    endloop
  endfacet
  facet normal 0 1 0
    outer loop
      vertex 138 143 184
      vertex 138 143 170
      vertex 2 143 170
    endloop
  endfacet
  facet normal 0 0 -1
    outer loop
      vertex 138 143 170
      vertex 134.9 140.29999999999998 170
      vertex 2 143 170
    endloop
  endfacet
  facet normal 0 0 1
    outer loop
      vertex 130.5 70 184
      vertex 9.5 7 184
      vertex 70 9.5 184
    endloop
  endfacet
  facet normal 0 0 1
    outer loop
      vertex 68.23223304703363 5.232233047033631 184
      vertex 67.5 7 184
      vertex 8.767766952966383 5.232233047033631 184
    endloop
  endfacet
  facet normal 0 0 1
    outer loop
      vertex 138 -3 184
      vertex -2.6193976625564233 0.08658283817455104 184
      vertex 2 -3 184
    endloop
  endfacet
  facet normal 0 0 1
    outer loop
      vertex -2.6193976625564233 0.08658283817455104 184
      vertex 70 4.5 184
      vertex 68.23223304703363 5.232233047033631 184
    endloop
  endfacet
  facet normal 0 0 1
    outer loop
      vertex 68.23223304703363 8.767766952966369 184
      vertex 9.5 7 184
      vertex 67.5 7 184
    endloop
  endfacet
  facet normal 0 0 1
    outer loop
      vertex 68.23223304703363 8.767766952966369 184
      vertex 70 9.5 184
      vertex 9.5 7 184
    endloop
  endfacet
  facet normal 0 -1 0
    outer loop
      vertex 138 -3 184
      vertex 2 -3 184
      vertex 2 -3 170
    endloop
  endfacet
  facet normal 0 0 1
    outer loop
      vertex 143 138 184
      vertex 8.767766952966383 8.767766952966369 184
      vertex 9.5 7 184
    endloop
  endfacet
  facet normal 0 0 1
    outer loop
      vertex 8.767766952966383 8.767766952966369 184
      vertex 131.23223304703362 131.23223304703362 184
      vertex 7 9.5 184
    endloop
  endfacet
  facet normal 0 0 1
    outer loop
      vertex 68.23223304703363 5.232233047033631 184
      vertex 8.767766952966383 5.232233047033631 184
      vertex 7 4.5 184
    endloop
  endfacet
  facet normal 0 0 1
    outer loop
      vertex 8.767766952966383 5.232233047033631 184
      vertex 67.5 7 184
      vertex 9.5 7 184
    endloop
  endfacet
  facet normal 0 0 1
    outer loop
      vertex -2.6193976625564233 0.08658283817455104 184
      vertex 68.23223304703363 5.232233047033631 184
      vertex 7 4.5 184
    endloop
  endfacet
  facet normal 0 0 1
    outer loop
      vertex -2.6193976625564233 0.08658283817455104 184
      vertex 7 4.5 184
      vertex 5.232233047033617 5.232233047033631 184
    endloop
  endfacet
  facet normal 0 0 1
    outer loop
      vertex -2.6193976625564233 0.08658283817455104 184
      vertex 5.232233047033617 5.232233047033631 184
      vertex 4.5 7 184
    endloop
  endfacet
  facet normal 0 0 1
    outer loop
      vertex -2.6193976625564233 0.08658283817455104 184
      vertex 4.5 7 184
      vertex 5.232233047033617 8.767766952966369 184
    endloop
  endfacet
  facet normal 0 0 1
    outer loop
      vertex 2 -3 184
      vertex -2.6193976625564233 0.08658283817455104 184
      vertex 0.08658283817456436 -2.619397662556434 184
    endloop
  endfacet
  facet normal 0 0 1
    outer loop
      vertex 0.08658283817456436 -2.619397662556434 184
      vertex -2.6193976625564233 0.08658283817455104 184
      vertex -1.5355339059327378 -1.5355339059327378 184
    endloop
  endfacet
  facet normal 0 0 1
    outer loop
      vertex 5.232233047033617 68.23223304703363 184
      vertex 5.232233047033617 8.767766952966369 184
      vertex 7 9.5 184
    endloop
  endfacet
  facet normal 0 0 1
    outer loop
      vertex -2.6193976625564233 0.08658283817455104 184
      vertex 5.232233047033617 8.767766952966369 184
      vertex 4.5 70 184
    endloop
  endfacet
  facet normal -0.19509032201612952 -0.9807852804032303 0
    outer loop
      vertex 2 -3 184
      vertex 0.08658283817456436 -2.619397662556434 184
      vertex 0.08658283817456436 -2.619397662556434 170
    endloop
  endfacet
  facet normal -0.5555702330195991 -0.8314696123025473 0
    outer loop
      vertex 0.08658283817456436 -2.619397662556434 184
      vertex -1.5355339059327378 -1.5355339059327378 184
      vertex 0.08658283817456436 -2.619397662556434 170
    endloop
  endfacet
  facet normal -0.8314696123025478 -0.5555702330195984 0
    outer loop
      vertex -1.5355339059327378 -1.5355339059327378 184
      vertex -2.6193976625564233 0.08658283817455104 184
      vertex -2.6193976625564233 0.08658283817455104 170
    endloop
  endfacet
  facet normal -0.9807852804032294 -0.19509032201613344 0
    outer loop
      vertex -2.6193976625564233 0.08658283817455104 184
      vertex -3 2 184
      vertex -2.6193976625564233 0.08658283817455104 170
    endloop
  endfacet
  facet normal 0 0 1
    outer loop
      vertex 7 9.5 184
      vertex 9.5 70 184
      vertex 8.767766952966383 68.23223304703363 184
    endloop
  endfacet
  facet normal 0 0 1
    outer loop
      vertex 7 9.5 184
      vertex 8.767766952966383 68.23223304703363 184
      vertex 7 67.5 184
    endloop
  endfacet
  facet normal 0 0 1
    outer loop
      vertex 7 9.5 184
      vertex 7 67.5 184
      vertex 5.232233047033617 68.23223304703363 184
    endloop
  endfacet
  facet normal 0 0 1
    outer loop
      vertex 5.232233047033617 68.23223304703363 184
      vertex 4.5 70 184
      vertex 5.232233047033617 8.767766952966369 184
    endloop
  endfacet
  facet normal 0 0 1
    outer loop
      vertex -2.6193976625564233 0.08658283817455104 184
      vertex -3 138 184
      vertex -3 2 184
    endloop
  endfacet
  facet normal -1 0 0
    outer loop
      vertex -3 2 184
      vertex -3 138 184
      vertex -3 2 170
    endloop
  endfacet
  facet normal 0 0 -1
    outer loop
      vertex 142.61939766255642 0.08658283817455104 170
      vertex -2.6193976625564233 0.08658283817455104 170
      vertex 4.700000000000017 0.10000000000000009 170
    endloop
  endfacet
  facet normal 0 0 -1
    outer loop
      vertex 138 -3 170
      vertex 2 -3 170
      vertex -2.6193976625564233 0.08658283817455104 170
    endloop
  endfacet
  facet normal -0.19509032201612952 -0.9807852804032303 0
    outer loop
      vertex 2 -3 184
      vertex 0.08658283817456436 -2.619397662556434 170
      vertex 2 -3 170
    endloop
  endfacet
  facet normal -0.5555702330195991 -0.8314696123025473 0
    outer loop
      vertex -1.5355339059327378 -1.5355339059327378 184
      vertex -1.5355339059327378 -1.5355339059327378 170
      vertex 0.08658283817456436 -2.619397662556434 170
    endloop
  endfacet
  facet normal -0.8314696123025478 -0.5555702330195984 0
    outer loop
      vertex -1.5355339059327378 -1.5355339059327378 184
      vertex -2.6193976625564233 0.08658283817455104 170
      vertex -1.5355339059327378 -1.5355339059327378 170
    endloop
  endfacet
  facet normal -0.9807852804032294 -0.19509032201613344 0
    outer loop
      vertex -3 2 184
      vertex -3 2 170
      vertex -2.6193976625564233 0.08658283817455104 170
    endloop
  endfacet
  facet normal 0 0 -1
    outer loop
      vertex 4.700000000000017 0.10000000000000009 170
      vertex -2.6193976625564233 0.08658283817455104 170
      vertex 2.7865828381745814 0.4806023374435662 170
    endloop
  endfacet
  facet normal 0 0 -1
    outer loop
      vertex 2 -3 170
      vertex 0.08658283817456436 -2.619397662556434 170
      vertex -2.6193976625564233 0.08658283817455104 170
    endloop
  endfacet
  facet normal 0 0 -1
    outer loop
      vertex 2.7865828381745814 0.4806023374435662 170
      vertex -2.6193976625564233 0.08658283817455104 170
      vertex 1.1644660940672793 1.564466094067262 170
    endloop
  endfacet
  facet normal 0 0 -1
    outer loop
      vertex 0.08658283817456436 -2.619397662556434 170
      vertex -1.5355339059327378 -1.5355339059327378 170
      vertex -2.6193976625564233 0.08658283817455104 170
    endloop
  endfacet
  facet normal 0 0 -1
    outer loop
      vertex -2.6193976625564233 0.08658283817455104 170
      vertex 0.0806023374435938 3.1865828381745516 170
      vertex 1.1644660940672793 1.564466094067262 170
    endloop
  endfacet
  facet normal 0 0 -1
    outer loop
      vertex -2.6193976625564233 0.08658283817455104 170
      vertex -0.29999999999998295 5.1 170
      vertex 0.0806023374435938 3.1865828381745516 170
    endloop
  endfacet
  facet normal 0 0 -1
    outer loop
      vertex -2.6193976625564233 0.08658283817455104 170
      vertex -3 2 170
      vertex -3 138 170
    endloop
  endfacet
  facet normal 0 0 -1
    outer loop
      vertex -2.6193976625564233 0.08658283817455104 170
      vertex -1.5355339059327378 141.53553390593274 170
      vertex -0.29999999999998295 5.1 170
    endloop
  endfacet
  facet normal 0 0 1
    outer loop
      vertex 138 143 184
      vertex 9.5 70 184
      vertex 7 9.5 184
    endloop
  endfacet
  facet normal 0 0 1
    outer loop
      vertex 138 143 184
      vertex 2 143 184
      vertex 70 135.5 184
    endloop
  endfacet
  facet normal 0 0 1
    outer loop
      vertex 70 130.5 184
      vertex 9.5 70 184
      vertex 71.76776695296637 131.23223304703362 184
    endloop
  endfacet
  facet normal 0 0 1
    outer loop
      vertex 70 130.5 184
      vertex 68.23223304703363 131.23223304703362 184
      vertex 9.5 70 184
    endloop
  endfacet
  facet normal 0 0 1
    outer loop
      vertex 68.23223304703363 134.76776695296638 184
      vertex 9.5 133 184
      vertex 67.5 133 184
    endloop
  endfacet
  facet normal 0 0 1
    outer loop
      vertex 68.23223304703363 131.23223304703362 184
      vertex 67.5 133 184
      vertex 8.767766952966383 131.23223304703362 184
    endloop
  endfacet
  facet normal 0 0 1
    outer loop
      vertex 2 143 184
      vertex 68.23223304703363 134.76776695296638 184
      vertex 70 135.5 184
    endloop
  endfacet
  facet normal 0 1 0
    outer loop
      vertex 138 143 184
      vertex 2 143 170
      vertex 2 143 184
    endloop
  endfacet
  facet normal 0 0 1
    outer loop
      vertex 9.5 70 184
      vertex 68.23223304703363 131.23223304703362 184
      vertex 8.767766952966383 71.76776695296637 184
    endloop
  endfacet
  facet normal 0 0 1
    outer loop
      vertex -2.6193976625564233 0.08658283817455104 184
      vertex 4.5 70 184
      vertex 2 143 184
    endloop
  endfacet
  facet normal 0 0 1
    outer loop
      vertex 7 72.5 184
      vertex 8.767766952966383 71.76776695296637 184
      vertex 7 130.5 184
    endloop
  endfacet
  facet normal 0 0 1
    outer loop
      vertex 5.232233047033617 131.23223304703362 184
      vertex 5.232233047033617 71.76776695296637 184
      vertex 7 72.5 184
    endloop
  endfacet
  facet normal 0 0 1
    outer loop
      vertex 4.5 70 184
      vertex 5.232233047033617 71.76776695296637 184
      vertex 4.5 133 184
    endloop
  endfacet
  facet normal 0 0 1
    outer loop
      vertex -2.6193976625564233 0.08658283817455104 184
      vertex -2.6193976625564233 139.91341716182544 184
      vertex -3 138 184
    endloop
  endfacet
  facet normal 0 0 1
    outer loop
      vertex -2.6193976625564233 0.08658283817455104 184
      vertex 2 143 184
      vertex 0.08658283817456436 142.61939766255642 184
    endloop
  endfacet
  facet normal 0 0 1
    outer loop
      vertex -2.6193976625564233 0.08658283817455104 184
      vertex 0.08658283817456436 142.61939766255642 184
      vertex -1.5355339059327378 141.53553390593274 184
    endloop
  endfacet
  facet normal 0 0 1
    outer loop
      vertex -2.6193976625564233 0.08658283817455104 184
      vertex -1.5355339059327378 141.53553390593274 184
      vertex -2.6193976625564233 139.91341716182544 184
    endloop
  endfacet
  facet normal 0 0 1
    outer loop
      vertex 68.23223304703363 131.23223304703362 184
      vertex 8.767766952966383 131.23223304703362 184
      vertex 8.767766952966383 71.76776695296637 184
    endloop
  endfacet
  facet normal 0 0 1
    outer loop
      vertex 8.767766952966383 131.23223304703362 184
      vertex 67.5 133 184
      vertex 9.5 133 184
    endloop
  endfacet
  facet normal 0 0 1
    outer loop
      vertex 68.23223304703363 134.76776695296638 184
      vertex 8.767766952966383 134.76776695296638 184
      vertex 9.5 133 184
    endloop
  endfacet
  facet normal 0 0 1
    outer loop
      vertex 2 143 184
      vertex 8.767766952966383 134.76776695296638 184
      vertex 68.23223304703363 134.76776695296638 184
    endloop
  endfacet
  facet normal 0 0 1
    outer loop
      vertex 8.767766952966383 71.76776695296637 184
      vertex 8.767766952966383 131.23223304703362 184
      vertex 7 130.5 184
    endloop
  endfacet
  facet normal 0 0 1
    outer loop
      vertex 7 72.5 184
      vertex 7 130.5 184
      vertex 5.232233047033617 131.23223304703362 184
    endloop
  endfacet
  facet normal 0 0 1
    outer loop
      vertex 5.232233047033617 71.76776695296637 184
      vertex 5.232233047033617 131.23223304703362 184
      vertex 4.5 133 184
    endloop
  endfacet
  facet normal 0 0 1
    outer loop
      vertex 2 143 184
      vertex 4.5 70 184
      vertex 4.5 133 184
    endloop
  endfacet
  facet normal 0 0 1
    outer loop
      vertex 2 143 184
      vertex 7 135.5 184
      vertex 8.767766952966383 134.76776695296638 184
    endloop
  endfacet
  facet normal 0 0 1
    outer loop
      vertex 2 143 184
      vertex 4.5 133 184
      vertex 5.232233047033617 134.76776695296638 184
    endloop
  endfacet
  facet normal 0 0 1
    outer loop
      vertex 2 143 184
      vertex 5.232233047033617 134.76776695296638 184
      vertex 7 135.5 184
    endloop
  endfacet
  facet normal -0.19509032201613474 0.9807852804032291 0
    outer loop
      vertex 2 143 184
      vertex 0.08658283817456436 142.61939766255642 170
      vertex 0.08658283817456436 142.61939766255642 184
    endloop
  endfacet
  facet normal -0.5555702330195953 0.8314696123025499 0
    outer loop
      vertex 0.08658283817456436 142.61939766255642 184
      vertex 0.08658283817456436 142.61939766255642 170
      vertex -1.5355339059327378 141.53553390593274 184
    endloop
  endfacet
  facet normal -0.9807852804032291 0.19509032201613474 0
    outer loop
      vertex -3 138 184
      vertex -2.6193976625564233 139.91341716182544 184
      vertex -2.6193976625564233 139.91341716182544 170
    endloop
  endfacet
  facet normal -0.8314696123025499 0.5555702330195953 0
    outer loop
      vertex -2.6193976625564233 139.91341716182544 184
      vertex -1.5355339059327378 141.53553390593274 184
      vertex -2.6193976625564233 139.91341716182544 170
    endloop
  endfacet
  facet normal 0 0 -1
    outer loop
      vertex 134.9 140.29999999999998 170
      vertex 4.700000000000017 140.29999999999998 170
      vertex 2 143 170
    endloop
  endfacet
  facet normal -1 0 0
    outer loop
      vertex -3 2 170
      vertex -3 138 184
      vertex -3 138 170
    endloop
  endfacet
  facet normal 0 0 -1
    outer loop
      vertex -2.6193976625564233 0.08658283817455104 170
      vertex -3 138 170
      vertex -2.6193976625564233 139.91341716182544 170
    endloop
  endfacet
  facet normal 0 0 -1
    outer loop
      vertex -0.29999999999998295 5.1 170
      vertex -1.5355339059327378 141.53553390593274 170
      vertex -0.29999999999998295 135.29999999999998 170
    endloop
  endfacet
  facet normal 0 0 -1
    outer loop
      vertex -2.6193976625564233 0.08658283817455104 170
      vertex -2.6193976625564233 139.91341716182544 170
      vertex -1.5355339059327378 141.53553390593274 170
    endloop
  endfacet
  facet normal -0.19509032201613474 0.9807852804032291 0
    outer loop
      vertex 2 143 184
      vertex 2 143 170
      vertex 0.08658283817456436 142.61939766255642 170
    endloop
  endfacet
  facet normal -0.9807852804032291 0.19509032201613474 0
    outer loop
      vertex -3 138 184
      vertex -2.6193976625564233 139.91341716182544 170
      vertex -3 138 170
    endloop
  endfacet
  facet normal -0.5555702330195953 0.8314696123025499 0
    outer loop
      vertex -1.5355339059327378 141.53553390593274 184
      vertex 0.08658283817456436 142.61939766255642 170
      vertex -1.5355339059327378 141.53553390593274 170
    endloop
  endfacet
  facet normal -0.8314696123025499 0.5555702330195953 0
    outer loop
      vertex -1.5355339059327378 141.53553390593274 184
      vertex -1.5355339059327378 141.53553390593274 170
      vertex -2.6193976625564233 139.91341716182544 170
    endloop
  endfacet
  facet normal 0 0 -1
    outer loop
      vertex 2.7865828381745814 139.9193976625564 170
      vertex 1.1644660940672793 138.83553390593272 170
      vertex 2 143 170
    endloop
  endfacet
  facet normal 0 0 -1
    outer loop
      vertex 4.700000000000017 140.29999999999998 170
      vertex 2.7865828381745814 139.9193976625564 170
      vertex 2 143 170
    endloop
  endfacet
  facet normal 0 0 -1
    outer loop
      vertex -0.29999999999998295 135.29999999999998 170
      vertex 0.08658283817456436 142.61939766255642 170
      vertex 0.0806023374435938 137.21341716182542 170
    endloop
  endfacet
  facet normal 0 0 -1
    outer loop
      vertex 0.0806023374435938 137.21341716182542 170
      vertex 0.08658283817456436 142.61939766255642 170
      vertex 1.1644660940672793 138.83553390593272 170
    endloop
  endfacet
  facet normal 0 0 -1
    outer loop
      vertex -0.29999999999998295 135.29999999999998 170
      vertex -1.5355339059327378 141.53553390593274 170
      vertex 0.08658283817456436 142.61939766255642 170
    endloop
  endfacet
  facet normal 0 0 -1
    outer loop
      vertex 2 143 170
      vertex 1.1644660940672793 138.83553390593272 170
      vertex 0.08658283817456436 142.61939766255642 170
    endloop
  endfacet
  facet normal 0 0 -1
    outer loop
      vertex 139.51939766255643 3.1865828381745516 177
      vertex 134.76776695296638 5.232233047033631 177
      vertex 139.9 5.1 177
    endloop
  endfacet
  facet normal 0 0 -1
    outer loop
      vertex 139.9 5.1 177
      vertex 134.76776695296638 5.232233047033631 177
      vertex 135.5 7 177
    endloop
  endfacet
  facet normal 0 0 -1
    outer loop
      vertex 139.51939766255643 3.1865828381745516 177
      vertex 133 4.5 177
      vertex 134.76776695296638 5.232233047033631 177
    endloop
  endfacet
  facet normal 0 0 -1
    outer loop
      vertex 139.9 5.1 177
      vertex 135.5 7 177
      vertex 134.76776695296638 8.767766952966369 177
    endloop
  endfacet
  facet normal -0.8314696123025479 0.5555702330195983 0
    outer loop
      vertex 139.51939766255643 3.1865828381745516 177
      vertex 139.51939766255643 3.1865828381745516 170
      vertex 138.43553390593274 1.564466094067262 177
    endloop
  endfacet
  facet normal -0.9807852804032293 0.19509032201613352 0
    outer loop
      vertex 139.51939766255643 3.1865828381745516 177
      vertex 139.9 5.1 177
      vertex 139.9 5.1 170
    endloop
  endfacet
  facet normal -0.5555702330195988 0.8314696123025473 0
    outer loop
      vertex 136.81341716182544 0.4806023374435662 177
      vertex 138.43553390593274 1.564466094067262 177
      vertex 138.43553390593274 1.564466094067262 170
    endloop
  endfacet
  facet normal -0.19509032201612952 0.9807852804032303 0
    outer loop
      vertex 136.81341716182544 0.4806023374435662 177
      vertex 136.81341716182544 0.4806023374435662 170
      vertex 134.9 0.10000000000000009 177
    endloop
  endfacet
  facet normal 0 0 -1
    outer loop
      vertex 139.9 5.1 177
      vertex 134.76776695296638 8.767766952966369 177
      vertex 135.5 70 177
    endloop
  endfacet
  facet normal 0 0 -1
    outer loop
      vertex 134.76776695296638 8.767766952966369 177
      vertex 133 9.5 177
      vertex 134.76776695296638 68.23223304703363 177
    endloop
  endfacet
  facet normal 0 0 -1
    outer loop
      vertex 133 4.5 177
      vertex 71.76776695296637 5.232233047033631 177
      vertex 131.23223304703362 5.232233047033631 177
    endloop
  endfacet
  facet normal 0 0 -1
    outer loop
      vertex 131.23223304703362 5.232233047033631 177
      vertex 72.5 7 177
      vertex 130.5 7 177
    endloop
  endfacet
  facet normal 0 0 -1
    outer loop
      vertex 130.5 7 177
      vertex 72.5 7 177
      vertex 131.23223304703362 8.767766952966369 177
    endloop
  endfacet
  facet normal 0 0 -1
    outer loop
      vertex 133 9.5 177
      vertex 131.23223304703362 8.767766952966369 177
      vertex 72.5 7 177
    endloop
  endfacet
  facet normal 0 0 -1
    outer loop
      vertex 133 9.5 177
      vertex 72.5 7 177
      vertex 133 67.5 177
    endloop
  endfacet
  facet normal -0.9807852804032293 0.19509032201613352 0
    outer loop
      vertex 139.51939766255643 3.1865828381745516 177
      vertex 139.9 5.1 170
      vertex 139.51939766255643 3.1865828381745516 170
    endloop
  endfacet
  facet normal -0.8314696123025479 0.5555702330195983 0
    outer loop
      vertex 138.43553390593274 1.564466094067262 177
      vertex 139.51939766255643 3.1865828381745516 170
      vertex 138.43553390593274 1.564466094067262 170
    endloop
  endfacet
  facet normal -0.5555702330195988 0.8314696123025473 0
    outer loop
      vertex 136.81341716182544 0.4806023374435662 177
      vertex 138.43553390593274 1.564466094067262 170
      vertex 136.81341716182544 0.4806023374435662 170
    endloop
  endfacet
  facet normal -0.19509032201612952 0.9807852804032303 0
    outer loop
      vertex 134.9 0.10000000000000009 177
      vertex 136.81341716182544 0.4806023374435662 170
      vertex 134.9 0.10000000000000009 170
    endloop
  endfacet
  facet normal 0 0 -1
    outer loop
      vertex 134.76776695296638 8.767766952966369 177
      vertex 134.76776695296638 68.23223304703363 177
      vertex 135.5 70 177
    endloop
  endfacet
  facet normal 0 0 -1
    outer loop
      vertex 133 9.5 177
      vertex 133 67.5 177
      vertex 134.76776695296638 68.23223304703363 177
    endloop
  endfacet
  facet normal 0 0 -1
    outer loop
      vertex 131.23223304703362 68.23223304703363 177
      vertex 133 67.5 177
      vertex 71.76776695296637 8.767766952966369 177
    endloop
  endfacet
  facet normal 0 0 -1
    outer loop
      vertex 70 9.5 177
      vertex 130.5 70 177
      vertex 131.23223304703362 68.23223304703363 177
    endloop
  endfacet
  facet normal -1 0 0
    outer loop
      vertex 139.9 5.1 177
      vertex 139.9 135.29999999999998 170
      vertex 139.9 5.1 170
    endloop
  endfacet
  facet normal 0 0 -1
    outer loop
      vertex 136.81341716182544 0.4806023374435662 177
      vertex 134.9 0.10000000000000009 177
      vertex 0.0806023374435938 3.1865828381745516 177
    endloop
  endfacet
  facet normal 0 0 -1
    outer loop
      vertex 139.51939766255643 3.1865828381745516 177
      vertex 138.43553390593274 1.564466094067262 177
      vertex 0.0806023374435938 3.1865828381745516 177
    endloop
  endfacet
  facet normal 0 0 -1
    outer loop
      vertex 136.81341716182544 0.4806023374435662 177
      vertex 0.0806023374435938 3.1865828381745516 177
      vertex 138.43553390593274 1.564466094067262 177
    endloop
  endfacet
  facet normal 0 0 -1
    outer loop
      vertex 139.51939766255643 3.1865828381745516 177
      vertex 0.0806023374435938 3.1865828381745516 177
      vertex 133 4.5 177
    endloop
  endfacet
  facet normal 0 0 -1
    outer loop
      vertex 131.23223304703362 5.232233047033631 177
      vertex 71.76776695296637 5.232233047033631 177
      vertex 72.5 7 177
    endloop
  endfacet
  facet normal 0 0 -1
    outer loop
      vertex 133 4.5 177
      vertex 70 4.5 177
      vertex 71.76776695296637 5.232233047033631 177
    endloop
  endfacet
  facet normal 0 1 0
    outer loop
      vertex 134.9 0.10000000000000009 177
      vertex 134.9 0.10000000000000009 170
      vertex 4.700000000000017 0.10000000000000009 177
    endloop
  endfacet
  facet normal 0 0 -1
    outer loop
      vertex 71.76776695296637 8.767766952966369 177
      vertex 133 67.5 177
      vertex 72.5 7 177
    endloop
  endfacet
  facet normal 0 0 -1
    outer loop
      vertex 70 9.5 177
      vertex 131.23223304703362 68.23223304703363 177
      vertex 71.76776695296637 8.767766952966369 177
    endloop
  endfacet
  facet normal 0 0 -1
    outer loop
      vertex 130.5 70 177
      vertex 70 9.5 177
      vertex 68.23223304703363 8.767766952966369 177
    endloop
  endfacet
  facet normal 0 0 -1
    outer loop
      vertex 139.9 5.1 177
      vertex 135.5 70 177
      vertex 139.9 135.29999999999998 177
    endloop
  endfacet
  facet normal 0 0 -1
    outer loop
      vertex 139.9 135.29999999999998 177
      vertex 135.5 70 177
      vertex 134.76776695296638 71.76776695296637 177
    endloop
  endfacet
  facet normal 0 0 -1
    outer loop
      vertex 139.9 135.29999999999998 177
      vertex 131.23223304703362 71.76776695296637 177
      vertex 130.5 70 177
    endloop
  endfacet
  facet normal 0 0 -1
    outer loop
      vertex 139.9 135.29999999999998 177
      vertex 134.76776695296638 71.76776695296637 177
      vertex 133 72.5 177
    endloop
  endfacet
  facet normal 0 0 -1
    outer loop
      vertex 139.9 135.29999999999998 177
      vertex 133 72.5 177
      vertex 131.23223304703362 71.76776695296637 177
    endloop
  endfacet
  facet normal -1 0 0
    outer loop
      vertex 139.9 5.1 177
      vertex 139.9 135.29999999999998 177
      vertex 139.9 135.29999999999998 170
    endloop
  endfacet
  facet normal 0 0 -1
    outer loop
      vertex 139.9 135.29999999999998 177
      vertex 134.76776695296638 131.23223304703362 177
      vertex 135.5 133 177
    endloop
  endfacet
  facet normal 0 0 -1
    outer loop
      vertex 139.9 135.29999999999998 177
      vertex 134.76776695296638 134.76776695296638 177
      vertex 139.51939766255643 137.21341716182542 177
    endloop
  endfacet
  facet normal 0 0 -1
    outer loop
      vertex 139.9 135.29999999999998 177
      vertex 135.5 133 177
      vertex 134.76776695296638 134.76776695296638 177
    endloop
  endfacet
  facet normal 0 0 -1
    outer loop
      vertex 139.51939766255643 137.21341716182542 177
      vertex 134.76776695296638 134.76776695296638 177
      vertex 138.43553390593274 138.83553390593272 177
    endloop
  endfacet
  facet normal 0 0 -1
    outer loop
      vertex 138.43553390593274 138.83553390593272 177
      vertex 134.76776695296638 134.76776695296638 177
      vertex 133 135.5 177
    endloop
  endfacet
  facet normal 0 0 -1
    outer loop
      vertex 138.43553390593274 138.83553390593272 177
      vertex 133 135.5 177
      vertex 136.81341716182544 139.9193976625564 177
    endloop
  endfacet
  facet normal 0 0 -1
    outer loop
      vertex 136.81341716182544 139.9193976625564 177
      vertex 131.23223304703362 134.76776695296638 177
      vertex 134.9 140.29999999999998 177
    endloop
  endfacet
  facet normal 0 0 -1
    outer loop
      vertex 136.81341716182544 139.9193976625564 177
      vertex 133 135.5 177
      vertex 131.23223304703362 134.76776695296638 177
    endloop
  endfacet
  facet normal -0.9807852804032291 -0.19509032201613474 0
    outer loop
      vertex 139.9 135.29999999999998 177
      vertex 139.51939766255643 137.21341716182542 177
      vertex 139.51939766255643 137.21341716182542 170
    endloop
  endfacet
  facet normal -0.8314696123025499 -0.5555702330195953 0
    outer loop
      vertex 139.51939766255643 137.21341716182542 177
      vertex 138.43553390593274 138.83553390593272 177
      vertex 138.43553390593274 138.83553390593272 170
    endloop
  endfacet
  facet normal -0.5555702330195953 -0.8314696123025499 0
    outer loop
      vertex 138.43553390593274 138.83553390593272 177
      vertex 136.81341716182544 139.9193976625564 177
      vertex 136.81341716182544 139.9193976625564 170
    endloop
  endfacet
  facet normal -0.19509032201613474 -0.9807852804032291 0
    outer loop
      vertex 136.81341716182544 139.9193976625564 177
      vertex 134.9 140.29999999999998 177
      vertex 134.9 140.29999999999998 170
    endloop
  endfacet
  facet normal -0.9807852804032291 -0.19509032201613474 0
    outer loop
      vertex 139.9 135.29999999999998 177
      vertex 139.51939766255643 137.21341716182542 170
      vertex 139.9 135.29999999999998 170
    endloop
  endfacet
  facet normal -0.8314696123025499 -0.5555702330195953 0
    outer loop
      vertex 139.51939766255643 137.21341716182542 177
      vertex 138.43553390593274 138.83553390593272 170
      vertex 139.51939766255643 137.21341716182542 170
    endloop
  endfacet
  facet normal -0.5555702330195953 -0.8314696123025499 0
    outer loop
      vertex 138.43553390593274 138.83553390593272 177
      vertex 136.81341716182544 139.9193976625564 170
      vertex 138.43553390593274 138.83553390593272 170
    endloop
  endfacet
  facet normal -0.19509032201613474 -0.9807852804032291 0
    outer loop
      vertex 136.81341716182544 139.9193976625564 177
      vertex 134.9 140.29999999999998 170
      vertex 136.81341716182544 139.9193976625564 170
    endloop
  endfacet
  facet normal 0 0 -1
    outer loop
      vertex 139.9 135.29999999999998 177
      vertex 130.5 70 177
      vertex 5.232233047033617 8.767766952966369 177
    endloop
  endfacet
  facet normal 0 0 -1
    outer loop
      vertex 139.9 135.29999999999998 177
      vertex 5.232233047033617 8.767766952966369 177
      vertex 134.76776695296638 131.23223304703362 177
    endloop
  endfacet
  facet normal 0 0 -1
    outer loop
      vertex 5.232233047033617 8.767766952966369 177
      vertex 133 130.5 177
      vertex 134.76776695296638 131.23223304703362 177
    endloop
  endfacet
  facet normal 0 0 -1
    outer loop
      vertex 5.232233047033617 8.767766952966369 177
      vertex 131.23223304703362 131.23223304703362 177
      vertex 133 130.5 177
    endloop
  endfacet
  facet normal 0 0 -1
    outer loop
      vertex 5.232233047033617 8.767766952966369 177
      vertex 130.5 133 177
      vertex 131.23223304703362 131.23223304703362 177
    endloop
  endfacet
  facet normal 0 0 -1
    outer loop
      vertex 130.5 133 177
      vertex 5.232233047033617 8.767766952966369 177
      vertex 131.23223304703362 134.76776695296638 177
    endloop
  endfacet
  facet normal 0 0 -1
    outer loop
      vertex 134.9 140.29999999999998 177
      vertex 131.23223304703362 134.76776695296638 177
      vertex 5.232233047033617 8.767766952966369 177
    endloop
  endfacet
  facet normal 0 0 -1
    outer loop
      vertex 134.9 140.29999999999998 177
      vertex 71.76776695296637 131.23223304703362 177
      vertex 72.5 133 177
    endloop
  endfacet
  facet normal 0 0 -1
    outer loop
      vertex 134.9 140.29999999999998 177
      vertex 72.5 133 177
      vertex 71.76776695296637 134.76776695296638 177
    endloop
  endfacet
  facet normal 0 0 -1
    outer loop
      vertex 134.9 140.29999999999998 177
      vertex 70 130.5 177
      vertex 71.76776695296637 131.23223304703362 177
    endloop
  endfacet
  facet normal 0 0 -1
    outer loop
      vertex 134.9 140.29999999999998 177
      vertex 71.76776695296637 134.76776695296638 177
      vertex 70 135.5 177
    endloop
  endfacet
  facet normal 0 0 -1
    outer loop
      vertex 134.9 140.29999999999998 177
      vertex 9.5 70 177
      vertex 70 130.5 177
    endloop
  endfacet
  facet normal 0 -1 0
    outer loop
      vertex 134.9 140.29999999999998 177
      vertex 4.700000000000017 140.29999999999998 170
      vertex 134.9 140.29999999999998 170
    endloop
  endfacet
  facet normal 0 0 -1
    outer loop
      vertex 0.0806023374435938 3.1865828381745516 177
      vertex 70 4.5 177
      vertex 133 4.5 177
    endloop
  endfacet
  facet normal 0 0 -1
    outer loop
      vertex 130.5 70 177
      vertex 68.23223304703363 8.767766952966369 177
      vertex 8.767766952966383 8.767766952966369 177
    endloop
  endfacet
  facet normal 0 0 -1
    outer loop
      vertex 68.23223304703363 5.232233047033631 177
      vertex 70 4.5 177
      vertex 8.767766952966383 5.232233047033631 177
    endloop
  endfacet
  facet normal 0 0 -1
    outer loop
      vertex 134.9 0.10000000000000009 177
      vertex 4.700000000000017 0.10000000000000009 177
      vertex 0.0806023374435938 3.1865828381745516 177
    endloop
  endfacet
  facet normal 0 0 -1
    outer loop
      vertex 68.23223304703363 5.232233047033631 177
      vertex 9.5 7 177
      vertex 67.5 7 177
    endloop
  endfacet
  facet normal 0 0 -1
    outer loop
      vertex 67.5 7 177
      vertex 8.767766952966383 8.767766952966369 177
      vertex 68.23223304703363 8.767766952966369 177
    endloop
  endfacet
  facet normal 0 0 -1
    outer loop
      vertex 130.5 70 177
      vertex 8.767766952966383 8.767766952966369 177
      vertex 7 9.5 177
    endloop
  endfacet
  facet normal 0 0 -1
    outer loop
      vertex 5.232233047033617 8.767766952966369 177
      vertex 130.5 70 177
      vertex 7 9.5 177
    endloop
  endfacet
  facet normal 0 1 0
    outer loop
      vertex 134.9 0.10000000000000009 170
      vertex 4.700000000000017 0.10000000000000009 170
      vertex 4.700000000000017 0.10000000000000009 177
    endloop
  endfacet
  facet normal 0 0 -1
    outer loop
      vertex 70 4.5 177
      vertex 7 4.5 177
      vertex 8.767766952966383 5.232233047033631 177
    endloop
  endfacet
  facet normal 0 0 -1
    outer loop
      vertex 68.23223304703363 5.232233047033631 177
      vertex 8.767766952966383 5.232233047033631 177
      vertex 9.5 7 177
    endloop
  endfacet
  facet normal 0 0 -1
    outer loop
      vertex 0.0806023374435938 3.1865828381745516 177
      vertex 7 4.5 177
      vertex 70 4.5 177
    endloop
  endfacet
  facet normal 0 0 -1
    outer loop
      vertex 8.767766952966383 8.767766952966369 177
      vertex 67.5 7 177
      vertex 9.5 7 177
    endloop
  endfacet
  facet normal 0 0 -1
    outer loop
      vertex 4.700000000000017 0.10000000000000009 177
      vertex 2.7865828381745814 0.4806023374435662 177
      vertex 0.0806023374435938 3.1865828381745516 177
    endloop
  endfacet
  facet normal 0 0 -1
    outer loop
      vertex 0.0806023374435938 3.1865828381745516 177
      vertex 5.232233047033617 5.232233047033631 177
      vertex 7 4.5 177
    endloop
  endfacet
  facet normal 0 0 -1
    outer loop
      vertex 0.0806023374435938 3.1865828381745516 177
      vertex 4.5 7 177
      vertex 5.232233047033617 5.232233047033631 177
    endloop
  endfacet
  facet normal 0 0 -1
    outer loop
      vertex 2.7865828381745814 0.4806023374435662 177
      vertex 1.1644660940672793 1.564466094067262 177
      vertex 0.0806023374435938 3.1865828381745516 177
    endloop
  endfacet
  facet normal 0.19509032201612952 0.9807852804032303 0
    outer loop
      vertex 4.700000000000017 0.10000000000000009 177
      vertex 4.700000000000017 0.10000000000000009 170
      vertex 2.7865828381745814 0.4806023374435662 177
    endloop
  endfacet
  facet normal 0.5555702330195988 0.8314696123025473 0
    outer loop
      vertex 2.7865828381745814 0.4806023374435662 177
      vertex 2.7865828381745814 0.4806023374435662 170
      vertex 1.1644660940672793 1.564466094067262 177
    endloop
  endfacet
  facet normal 0.8314696123025479 0.5555702330195983 0
    outer loop
      vertex 1.1644660940672793 1.564466094067262 177
      vertex 1.1644660940672793 1.564466094067262 170
      vertex 0.0806023374435938 3.1865828381745516 177
    endloop
  endfacet
  facet normal 0.9807852804032293 0.19509032201613352 0
    outer loop
      vertex 0.0806023374435938 3.1865828381745516 177
      vertex 0.0806023374435938 3.1865828381745516 170
      vertex -0.29999999999998295 5.1 177
    endloop
  endfacet
  facet normal 0 0 -1
    outer loop
      vertex 4.5 7 177
      vertex 5.232233047033617 68.23223304703363 177
      vertex 5.232233047033617 8.767766952966369 177
    endloop
  endfacet
  facet normal 0 0 -1
    outer loop
      vertex 0.0806023374435938 3.1865828381745516 177
      vertex 4.5 70 177
      vertex 4.5 7 177
    endloop
  endfacet
  facet normal 0.19509032201612952 0.9807852804032303 0
    outer loop
      vertex 2.7865828381745814 0.4806023374435662 177
      vertex 4.700000000000017 0.10000000000000009 170
      vertex 2.7865828381745814 0.4806023374435662 170
    endloop
  endfacet
  facet normal 0.5555702330195988 0.8314696123025473 0
    outer loop
      vertex 1.1644660940672793 1.564466094067262 177
      vertex 2.7865828381745814 0.4806023374435662 170
      vertex 1.1644660940672793 1.564466094067262 170
    endloop
  endfacet
  facet normal 0.8314696123025479 0.5555702330195983 0
    outer loop
      vertex 0.0806023374435938 3.1865828381745516 177
      vertex 1.1644660940672793 1.564466094067262 170
      vertex 0.0806023374435938 3.1865828381745516 170
    endloop
  endfacet
  facet normal 0.9807852804032293 0.19509032201613352 0
    outer loop
      vertex -0.29999999999998295 5.1 177
      vertex 0.0806023374435938 3.1865828381745516 170
      vertex -0.29999999999998295 5.1 170
    endloop
  endfacet
  facet normal 0 0 -1
    outer loop
      vertex 5.232233047033617 8.767766952966369 177
      vertex 7 67.5 177
      vertex 8.767766952966383 68.23223304703363 177
    endloop
  endfacet
  facet normal 0 0 -1
    outer loop
      vertex 5.232233047033617 68.23223304703363 177
      vertex 7 67.5 177
      vertex 5.232233047033617 8.767766952966369 177
    endloop
  endfacet
  facet normal 0 0 -1
    outer loop
      vertex 4.5 7 177
      vertex 4.5 70 177
      vertex 5.232233047033617 68.23223304703363 177
    endloop
  endfacet
  facet normal 0 0 -1
    outer loop
      vertex 0.0806023374435938 3.1865828381745516 177
      vertex -0.29999999999998295 5.1 177
      vertex -0.29999999999998295 135.29999999999998 177
    endloop
  endfacet
  facet normal 1 0 0
    outer loop
      vertex -0.29999999999998295 5.1 177
      vertex -0.29999999999998295 5.1 170
      vertex -0.29999999999998295 135.29999999999998 177
    endloop
  endfacet
  facet normal 0 0 -1
    outer loop
      vertex 0.0806023374435938 3.1865828381745516 177
      vertex 4.5 133 177
      vertex 4.5 70 177
    endloop
  endfacet
  facet normal 0 0 -1
    outer loop
      vertex 134.9 140.29999999999998 177
      vertex 5.232233047033617 8.767766952966369 177
      vertex 8.767766952966383 68.23223304703363 177
    endloop
  endfacet
  facet normal 0 0 -1
    outer loop
      vertex 134.9 140.29999999999998 177
      vertex 8.767766952966383 68.23223304703363 177
      vertex 9.5 70 177
    endloop
  endfacet
  facet normal 0 0 -1
    outer loop
      vertex 134.9 140.29999999999998 177
      vertex 70 135.5 177
      vertex 4.700000000000017 140.29999999999998 177
    endloop
  endfacet
  facet normal 0 0 -1
    outer loop
      vertex 68.23223304703363 131.23223304703362 177
      vertex 70 130.5 177
      vertex 8.767766952966383 71.76776695296637 177
    endloop
  endfacet
  facet normal 0 0 -1
    outer loop
      vertex 68.23223304703363 131.23223304703362 177
      vertex 9.5 133 177
      vertex 67.5 133 177
    endloop
  endfacet
  facet normal 0 0 -1
    outer loop
      vertex 67.5 133 177
      vertex 8.767766952966383 134.76776695296638 177
      vertex 68.23223304703363 134.76776695296638 177
    endloop
  endfacet
  facet normal 0 0 -1
    outer loop
      vertex 4.700000000000017 140.29999999999998 177
      vertex 70 135.5 177
      vertex 68.23223304703363 134.76776695296638 177
    endloop
  endfacet
  facet normal 0 -1 0
    outer loop
      vertex 134.9 140.29999999999998 177
      vertex 4.700000000000017 140.29999999999998 177
      vertex 4.700000000000017 140.29999999999998 170
    endloop
  endfacet
  facet normal 0 0 -1
    outer loop
      vertex 8.767766952966383 71.76776695296637 177
      vertex 70 130.5 177
      vertex 9.5 70 177
    endloop
  endfacet
  facet normal 0 0 -1
    outer loop
      vertex 68.23223304703363 131.23223304703362 177
      vertex 8.767766952966383 71.76776695296637 177
      vertex 7 72.5 177
    endloop
  endfacet
  facet normal 0 0 -1
    outer loop
      vertex 7 72.5 177
      vertex 5.232233047033617 71.76776695296637 177
      vertex 7 130.5 177
    endloop
  endfacet
  facet normal 0 0 -1
    outer loop
      vertex 4.5 70 177
      vertex 5.232233047033617 131.23223304703362 177
      vertex 5.232233047033617 71.76776695296637 177
    endloop
  endfacet
  facet normal 0 0 -1
    outer loop
      vertex 0.0806023374435938 3.1865828381745516 177
      vertex 4.700000000000017 140.29999999999998 177
      vertex 4.5 133 177
    endloop
  endfacet
  facet normal 0 0 -1
    outer loop
      vertex 0.0806023374435938 3.1865828381745516 177
      vertex 2.7865828381745814 139.9193976625564 177
      vertex 4.700000000000017 140.29999999999998 177
    endloop
  endfacet
  facet normal 0 0 -1
    outer loop
      vertex 0.0806023374435938 3.1865828381745516 177
      vertex -0.29999999999998295 135.29999999999998 177
      vertex 0.0806023374435938 137.21341716182542 177
    endloop
  endfacet
  facet normal 0 0 -1
    outer loop
      vertex 0.0806023374435938 3.1865828381745516 177
      vertex 0.0806023374435938 137.21341716182542 177
      vertex 1.1644660940672793 138.83553390593272 177
    endloop
  endfacet
  facet normal 0 0 -1
    outer loop
      vertex 0.0806023374435938 3.1865828381745516 177
      vertex 1.1644660940672793 138.83553390593272 177
      vertex 2.7865828381745814 139.9193976625564 177
    endloop
  endfacet
  facet normal 1 0 0
    outer loop
      vertex -0.29999999999998295 5.1 170
      vertex -0.29999999999998295 135.29999999999998 170
      vertex -0.29999999999998295 135.29999999999998 177
    endloop
  endfacet
  facet normal 0 0 -1
    outer loop
      vertex 68.23223304703363 131.23223304703362 177
      vertex 7 72.5 177
      vertex 8.767766952966383 131.23223304703362 177
    endloop
  endfacet
  facet normal 0 0 -1
    outer loop
      vertex 68.23223304703363 131.23223304703362 177
      vertex 8.767766952966383 131.23223304703362 177
      vertex 9.5 133 177
    endloop
  endfacet
  facet normal 0 0 -1
    outer loop
      vertex 8.767766952966383 134.76776695296638 177
      vertex 67.5 133 177
      vertex 9.5 133 177
    endloop
  endfacet
  facet normal 0 0 -1
    outer loop
      vertex 4.700000000000017 140.29999999999998 177
      vertex 68.23223304703363 134.76776695296638 177
      vertex 8.767766952966383 134.76776695296638 177
    endloop
  endfacet
  facet normal 0 0 -1
    outer loop
      vertex 7 72.5 177
      vertex 7 130.5 177
      vertex 8.767766952966383 131.23223304703362 177
    endloop
  endfacet
  facet normal 0 0 -1
    outer loop
      vertex 5.232233047033617 131.23223304703362 177
      vertex 7 130.5 177
      vertex 5.232233047033617 71.76776695296637 177
    endloop
  endfacet
  facet normal 0 0 -1
    outer loop
      vertex 4.5 70 177
      vertex 4.5 133 177
      vertex 5.232233047033617 131.23223304703362 177
    endloop
  endfacet
  facet normal 0 0 -1
    outer loop
      vertex 4.700000000000017 140.29999999999998 177
      vertex 8.767766952966383 134.76776695296638 177
      vertex 7 135.5 177
    endloop
  endfacet
  facet normal 0 0 -1
    outer loop
      vertex 4.700000000000017 140.29999999999998 177
      vertex 5.232233047033617 134.76776695296638 177
      vertex 4.5 133 177
    endloop
  endfacet
  facet normal 0 0 -1
    outer loop
      vertex 4.700000000000017 140.29999999999998 177
      vertex 7 135.5 177
      vertex 5.232233047033617 134.76776695296638 177
    endloop
  endfacet
  facet normal 0.19509032201613474 -0.9807852804032291 0
    outer loop
      vertex 4.700000000000017 140.29999999999998 177
      vertex 2.7865828381745814 139.9193976625564 177
      vertex 2.7865828381745814 139.9193976625564 170
    endloop
  endfacet
  facet normal 0.5555702330195953 -0.8314696123025499 0
    outer loop
      vertex 2.7865828381745814 139.9193976625564 177
      vertex 1.1644660940672793 138.83553390593272 177
      vertex 1.1644660940672793 138.83553390593272 170
    endloop
  endfacet
  facet normal 0.9807852804032291 -0.19509032201613474 0
    outer loop
      vertex -0.29999999999998295 135.29999999999998 177
      vertex -0.29999999999998295 135.29999999999998 170
      vertex 0.0806023374435938 137.21341716182542 177
    endloop
  endfacet
  facet normal 0.8314696123025499 -0.5555702330195953 0
    outer loop
      vertex 0.0806023374435938 137.21341716182542 177
      vertex 0.0806023374435938 137.21341716182542 170
      vertex 1.1644660940672793 138.83553390593272 177
    endloop
  endfacet
  facet normal 0.19509032201613474 -0.9807852804032291 0
    outer loop
      vertex 4.700000000000017 140.29999999999998 177
      vertex 2.7865828381745814 139.9193976625564 170
      vertex 4.700000000000017 140.29999999999998 170
    endloop
  endfacet
  facet normal 0.5555702330195953 -0.8314696123025499 0
    outer loop
      vertex 2.7865828381745814 139.9193976625564 177
      vertex 1.1644660940672793 138.83553390593272 170
      vertex 2.7865828381745814 139.9193976625564 170
    endloop
  endfacet
  facet normal 0.8314696123025499 -0.5555702330195953 0
    outer loop
      vertex 1.1644660940672793 138.83553390593272 177
      vertex 0.0806023374435938 137.21341716182542 170
      vertex 1.1644660940672793 138.83553390593272 170
    endloop
  endfacet
  facet normal 0.9807852804032291 -0.19509032201613474 0
    outer loop
      vertex 0.0806023374435938 137.21341716182542 177
      vertex -0.29999999999998295 135.29999999999998 170
      vertex 0.0806023374435938 137.21341716182542 170
    endloop
  endfacet
  facet normal -0.3826834323650871 0.9238795325112878 0
    outer loop
      vertex 134.76776695296638 5.232233047033631 184
      vertex 134.76776695296638 5.232233047033631 177
      vertex 133 4.5 184
    endloop
  endfacet
  facet normal -0.9238795325112894 0.3826834323650834 0
    outer loop
      vertex 134.76776695296638 5.232233047033631 184
      vertex 135.5 7 184
      vertex 135.5 7 177
    endloop
  endfacet
  facet normal -0.9238795325112894 -0.3826834323650834 0
    outer loop
      vertex 135.5 7 184
      vertex 134.76776695296638 8.767766952966369 184
      vertex 134.76776695296638 8.767766952966369 177
    endloop
  endfacet
  facet normal 0.3826834323650871 0.9238795325112878 0
    outer loop
      vertex 133 4.5 184
      vertex 133 4.5 177
      vertex 131.23223304703362 5.232233047033631 184
    endloop
  endfacet
  facet normal 0.9238795325112894 0.3826834323650834 0
    outer loop
      vertex 131.23223304703362 5.232233047033631 184
      vertex 131.23223304703362 5.232233047033631 177
      vertex 130.5 7 184
    endloop
  endfacet
  facet normal -0.3826834323650871 -0.9238795325112878 0
    outer loop
      vertex 133 9.5 184
      vertex 133 9.5 177
      vertex 134.76776695296638 8.767766952966369 184
    endloop
  endfacet
  facet normal 0.3826834323650871 -0.9238795325112878 0
    outer loop
      vertex 133 9.5 184
      vertex 131.23223304703362 8.767766952966369 184
      vertex 131.23223304703362 8.767766952966369 177
    endloop
  endfacet
  facet normal 0.9238795325112894 -0.3826834323650834 0
    outer loop
      vertex 131.23223304703362 8.767766952966369 184
      vertex 130.5 7 184
      vertex 130.5 7 177
    endloop
  endfacet
  facet normal -0.9238795325112894 0.3826834323650834 0
    outer loop
      vertex 134.76776695296638 5.232233047033631 184
      vertex 135.5 7 177
      vertex 134.76776695296638 5.232233047033631 177
    endloop
  endfacet
  facet normal -0.9238795325112894 -0.3826834323650834 0
    outer loop
      vertex 135.5 7 184
      vertex 134.76776695296638 8.767766952966369 177
      vertex 135.5 7 177
    endloop
  endfacet
  facet normal -0.3826834323650871 -0.9238795325112878 0
    outer loop
      vertex 134.76776695296638 8.767766952966369 184
      vertex 133 9.5 177
      vertex 134.76776695296638 8.767766952966369 177
    endloop
  endfacet
  facet normal -0.3826834323650871 0.9238795325112878 0
    outer loop
      vertex 133 4.5 184
      vertex 134.76776695296638 5.232233047033631 177
      vertex 133 4.5 177
    endloop
  endfacet
  facet normal 0.3826834323650871 0.9238795325112878 0
    outer loop
      vertex 133 4.5 177
      vertex 131.23223304703362 5.232233047033631 177
      vertex 131.23223304703362 5.232233047033631 184
    endloop
  endfacet
  facet normal 0.3826834323650871 -0.9238795325112878 0
    outer loop
      vertex 133 9.5 184
      vertex 131.23223304703362 8.767766952966369 177
      vertex 133 9.5 177
    endloop
  endfacet
  facet normal 0.9238795325112894 0.3826834323650834 0
    outer loop
      vertex 130.5 7 184
      vertex 131.23223304703362 5.232233047033631 177
      vertex 130.5 7 177
    endloop
  endfacet
  facet normal 0.9238795325112894 -0.3826834323650834 0
    outer loop
      vertex 131.23223304703362 8.767766952966369 184
      vertex 130.5 7 177
      vertex 131.23223304703362 8.767766952966369 177
    endloop
  endfacet
  facet normal -0.3826834323650871 0.9238795325112878 0
    outer loop
      vertex 8.767766952966383 5.232233047033631 184
      vertex 8.767766952966383 5.232233047033631 177
      vertex 7 4.5 184
    endloop
  endfacet
  facet normal 0.3826834323650871 0.9238795325112878 0
    outer loop
      vertex 7 4.5 184
      vertex 7 4.5 177
      vertex 5.232233047033617 5.232233047033631 184
    endloop
  endfacet
  facet normal -0.9238795325112894 0.3826834323650834 0
    outer loop
      vertex 8.767766952966383 5.232233047033631 184
      vertex 9.5 7 184
      vertex 9.5 7 177
    endloop
  endfacet
  facet normal -0.9238795325112894 -0.3826834323650834 0
    outer loop
      vertex 9.5 7 184
      vertex 8.767766952966383 8.767766952966369 184
      vertex 8.767766952966383 8.767766952966369 177
    endloop
  endfacet
  facet normal -0.3826834323650871 -0.9238795325112878 0
    outer loop
      vertex 8.767766952966383 8.767766952966369 184
      vertex 7 9.5 184
      vertex 7 9.5 177
    endloop
  endfacet
  facet normal 0.9238795325112894 0.3826834323650834 0
    outer loop
      vertex 5.232233047033617 5.232233047033631 184
      vertex 5.232233047033617 5.232233047033631 177
      vertex 4.5 7 184
    endloop
  endfacet
  facet normal 0.9238795325112894 -0.3826834323650834 0
    outer loop
      vertex 5.232233047033617 8.767766952966369 184
      vertex 4.5 7 184
      vertex 4.5 7 177
    endloop
  endfacet
  facet normal 0.3826834323650871 -0.9238795325112878 0
    outer loop
      vertex 5.232233047033617 8.767766952966369 184
      vertex 5.232233047033617 8.767766952966369 177
      vertex 7 9.5 184
    endloop
  endfacet
  facet normal -0.9238795325112894 0.3826834323650834 0
    outer loop
      vertex 8.767766952966383 5.232233047033631 184
      vertex 9.5 7 177
      vertex 8.767766952966383 5.232233047033631 177
    endloop
  endfacet
  facet normal -0.3826834323650871 0.9238795325112878 0
    outer loop
      vertex 7 4.5 184
      vertex 8.767766952966383 5.232233047033631 177
      vertex 7 4.5 177
    endloop
  endfacet
  facet normal -0.9238795325112894 -0.3826834323650834 0
    outer loop
      vertex 9.5 7 184
      vertex 8.767766952966383 8.767766952966369 177
      vertex 9.5 7 177
    endloop
  endfacet
  facet normal -0.3826834323650871 -0.9238795325112878 0
    outer loop
      vertex 8.767766952966383 8.767766952966369 184
      vertex 7 9.5 177
      vertex 8.767766952966383 8.767766952966369 177
    endloop
  endfacet
  facet normal 0.3826834323650871 -0.9238795325112878 0
    outer loop
      vertex 7 9.5 184
      vertex 5.232233047033617 8.767766952966369 177
      vertex 7 9.5 177
    endloop
  endfacet
  facet normal 0.3826834323650871 0.9238795325112878 0
    outer loop
      vertex 5.232233047033617 5.232233047033631 184
      vertex 7 4.5 177
      vertex 5.232233047033617 5.232233047033631 177
    endloop
  endfacet
  facet normal 0.9238795325112894 -0.3826834323650834 0
    outer loop
      vertex 4.5 7 177
      vertex 5.232233047033617 8.767766952966369 177
      vertex 5.232233047033617 8.767766952966369 184
    endloop
  endfacet
  facet normal 0.9238795325112894 0.3826834323650834 0
    outer loop
      vertex 4.5 7 184
      vertex 5.232233047033617 5.232233047033631 177
      vertex 4.5 7 177
    endloop
  endfacet
  facet normal -0.9238795325112904 0.38268343236508073 0
    outer loop
      vertex 8.767766952966383 131.23223304703362 184
      vertex 9.5 133 184
      vertex 9.5 133 177
    endloop
  endfacet
  facet normal -0.38268343236508073 0.9238795325112904 0
    outer loop
      vertex 8.767766952966383 131.23223304703362 184
      vertex 8.767766952966383 131.23223304703362 177
      vertex 7 130.5 184
    endloop
  endfacet
  facet normal 0.38268343236508073 0.9238795325112904 0
    outer loop
      vertex 7 130.5 184
      vertex 7 130.5 177
      vertex 5.232233047033617 131.23223304703362 184
    endloop
  endfacet
  facet normal -0.9238795325112904 -0.38268343236508073 0
    outer loop
      vertex 9.5 133 184
      vertex 8.767766952966383 134.76776695296638 184
      vertex 8.767766952966383 134.76776695296638 177
    endloop
  endfacet
  facet normal -0.38268343236508073 -0.9238795325112904 0
    outer loop
      vertex 7 135.5 184
      vertex 7 135.5 177
      vertex 8.767766952966383 134.76776695296638 184
    endloop
  endfacet
  facet normal 0.9238795325112904 0.38268343236508073 0
    outer loop
      vertex 5.232233047033617 131.23223304703362 184
      vertex 5.232233047033617 131.23223304703362 177
      vertex 4.5 133 184
    endloop
  endfacet
  facet normal 0.9238795325112904 -0.38268343236508073 0
    outer loop
      vertex 5.232233047033617 134.76776695296638 184
      vertex 4.5 133 184
      vertex 4.5 133 177
    endloop
  endfacet
  facet normal 0.38268343236508073 -0.9238795325112904 0
    outer loop
      vertex 7 135.5 184
      vertex 5.232233047033617 134.76776695296638 184
      vertex 5.232233047033617 134.76776695296638 177
    endloop
  endfacet
  facet normal -0.9238795325112904 0.38268343236508073 0
    outer loop
      vertex 8.767766952966383 131.23223304703362 184
      vertex 9.5 133 177
      vertex 8.767766952966383 131.23223304703362 177
    endloop
  endfacet
  facet normal -0.9238795325112904 -0.38268343236508073 0
    outer loop
      vertex 9.5 133 184
      vertex 8.767766952966383 134.76776695296638 177
      vertex 9.5 133 177
    endloop
  endfacet
  facet normal -0.38268343236508073 0.9238795325112904 0
    outer loop
      vertex 7 130.5 184
      vertex 8.767766952966383 131.23223304703362 177
      vertex 7 130.5 177
    endloop
  endfacet
  facet normal -0.38268343236508073 -0.9238795325112904 0
    outer loop
      vertex 8.767766952966383 134.76776695296638 184
      vertex 7 135.5 177
      vertex 8.767766952966383 134.76776695296638 177
    endloop
  endfacet
  facet normal 0.38268343236508073 -0.9238795325112904 0
    outer loop
      vertex 7 135.5 184
      vertex 5.232233047033617 134.76776695296638 177
      vertex 7 135.5 177
    endloop
  endfacet
  facet normal 0.38268343236508073 0.9238795325112904 0
    outer loop
      vertex 5.232233047033617 131.23223304703362 184
      vertex 7 130.5 177
      vertex 5.232233047033617 131.23223304703362 177
    endloop
  endfacet
  facet normal 0.9238795325112904 0.38268343236508073 0
    outer loop
      vertex 4.5 133 184
      vertex 5.232233047033617 131.23223304703362 177
      vertex 4.5 133 177
    endloop
  endfacet
  facet normal 0.9238795325112904 -0.38268343236508073 0
    outer loop
      vertex 5.232233047033617 134.76776695296638 184
      vertex 4.5 133 177
      vertex 5.232233047033617 134.76776695296638 177
    endloop
  endfacet
  facet normal -0.38268343236508073 0.9238795325112904 0
    outer loop
      vertex 133 130.5 184
      vertex 134.76776695296638 131.23223304703362 184
      vertex 134.76776695296638 131.23223304703362 177
    endloop
  endfacet
  facet normal -0.9238795325112904 0.38268343236508073 0
    outer loop
      vertex 134.76776695296638 131.23223304703362 184
      vertex 135.5 133 184
      vertex 135.5 133 177
    endloop
  endfacet
  facet normal -0.9238795325112904 -0.38268343236508073 0
    outer loop
      vertex 135.5 133 184
      vertex 134.76776695296638 134.76776695296638 184
      vertex 134.76776695296638 134.76776695296638 177
    endloop
  endfacet
  facet normal 0.38268343236508073 0.9238795325112904 0
    outer loop
      vertex 131.23223304703362 131.23223304703362 184
      vertex 133 130.5 184
      vertex 133 130.5 177
    endloop
  endfacet
  facet normal 0.9238795325112904 0.38268343236508073 0
    outer loop
      vertex 130.5 133 184
      vertex 131.23223304703362 131.23223304703362 184
      vertex 131.23223304703362 131.23223304703362 177
    endloop
  endfacet
  facet normal 0.9238795325112904 -0.38268343236508073 0
    outer loop
      vertex 131.23223304703362 134.76776695296638 184
      vertex 130.5 133 184
      vertex 130.5 133 177
    endloop
  endfacet
  facet normal -0.38268343236508073 -0.9238795325112904 0
    outer loop
      vertex 133 135.5 184
      vertex 133 135.5 177
      vertex 134.76776695296638 134.76776695296638 184
    endloop
  endfacet
  facet normal 0.38268343236508073 -0.9238795325112904 0
    outer loop
      vertex 133 135.5 184
      vertex 131.23223304703362 134.76776695296638 184
      vertex 131.23223304703362 134.76776695296638 177
    endloop
  endfacet
  facet normal -0.9238795325112904 -0.38268343236508073 0
    outer loop
      vertex 135.5 133 184
      vertex 134.76776695296638 134.76776695296638 177
      vertex 135.5 133 177
    endloop
  endfacet
  facet normal -0.9238795325112904 0.38268343236508073 0
    outer loop
      vertex 134.76776695296638 131.23223304703362 184
      vertex 135.5 133 177
      vertex 134.76776695296638 131.23223304703362 177
    endloop
  endfacet
  facet normal -0.38268343236508073 -0.9238795325112904 0
    outer loop
      vertex 134.76776695296638 134.76776695296638 184
      vertex 133 135.5 177
      vertex 134.76776695296638 134.76776695296638 177
    endloop
  endfacet
  facet normal -0.38268343236508073 0.9238795325112904 0
    outer loop
      vertex 133 130.5 184
      vertex 134.76776695296638 131.23223304703362 177
      vertex 133 130.5 177
    endloop
  endfacet
  facet normal 0.38268343236508073 0.9238795325112904 0
    outer loop
      vertex 131.23223304703362 131.23223304703362 184
      vertex 133 130.5 177
      vertex 131.23223304703362 131.23223304703362 177
    endloop
  endfacet
  facet normal 0.9238795325112904 0.38268343236508073 0
    outer loop
      vertex 130.5 133 184
      vertex 131.23223304703362 131.23223304703362 177
      vertex 130.5 133 177
    endloop
  endfacet
  facet normal 0.38268343236508073 -0.9238795325112904 0
    outer loop
      vertex 133 135.5 184
      vertex 131.23223304703362 134.76776695296638 177
      vertex 133 135.5 177
    endloop
  endfacet
  facet normal 0.9238795325112904 -0.38268343236508073 0
    outer loop
      vertex 130.5 133 177
      vertex 131.23223304703362 134.76776695296638 177
      vertex 131.23223304703362 134.76776695296638 184
    endloop
  endfacet
  facet normal -0.3826834323650897 0.9238795325112868 0
    outer loop
      vertex 70 4.5 184
      vertex 71.76776695296637 5.232233047033631 184
      vertex 71.76776695296637 5.232233047033631 177
    endloop
  endfacet
  facet normal -0.9238795325112868 0.3826834323650897 0
    outer loop
      vertex 71.76776695296637 5.232233047033631 184
      vertex 72.5 7 184
      vertex 72.5 7 177
    endloop
  endfacet
  facet normal -0.9238795325112868 -0.3826834323650897 0
    outer loop
      vertex 72.5 7 184
      vertex 71.76776695296637 8.767766952966369 184
      vertex 71.76776695296637 8.767766952966369 177
    endloop
  endfacet
  facet normal -0.3826834323650897 -0.9238795325112868 0
    outer loop
      vertex 71.76776695296637 8.767766952966369 184
      vertex 70 9.5 184
      vertex 70 9.5 177
    endloop
  endfacet
  facet normal -0.9238795325112868 0.3826834323650897 0
    outer loop
      vertex 71.76776695296637 5.232233047033631 184
      vertex 72.5 7 177
      vertex 71.76776695296637 5.232233047033631 177
    endloop
  endfacet
  facet normal -0.3826834323650897 0.9238795325112868 0
    outer loop
      vertex 70 4.5 184
      vertex 71.76776695296637 5.232233047033631 177
      vertex 70 4.5 177
    endloop
  endfacet
  facet normal -0.9238795325112868 -0.3826834323650897 0
    outer loop
      vertex 72.5 7 184
      vertex 71.76776695296637 8.767766952966369 177
      vertex 72.5 7 177
    endloop
  endfacet
  facet normal -0.3826834323650897 -0.9238795325112868 0
    outer loop
      vertex 70 9.5 177
      vertex 71.76776695296637 8.767766952966369 177
      vertex 71.76776695296637 8.767766952966369 184
    endloop
  endfacet
  facet normal 0.3826834323650897 0.9238795325112868 0
    outer loop
      vertex 70 4.5 184
      vertex 70 4.5 177
      vertex 68.23223304703363 5.232233047033631 184
    endloop
  endfacet
  facet normal 0.9238795325112868 0.3826834323650897 0
    outer loop
      vertex 68.23223304703363 5.232233047033631 184
      vertex 68.23223304703363 5.232233047033631 177
      vertex 67.5 7 184
    endloop
  endfacet
  facet normal 0.9238795325112868 -0.3826834323650897 0
    outer loop
      vertex 68.23223304703363 8.767766952966369 184
      vertex 67.5 7 184
      vertex 67.5 7 177
    endloop
  endfacet
  facet normal 0.3826834323650897 -0.9238795325112868 0
    outer loop
      vertex 68.23223304703363 8.767766952966369 184
      vertex 68.23223304703363 8.767766952966369 177
      vertex 70 9.5 184
    endloop
  endfacet
  facet normal 0.3826834323650897 0.9238795325112868 0
    outer loop
      vertex 68.23223304703363 5.232233047033631 184
      vertex 70 4.5 177
      vertex 68.23223304703363 5.232233047033631 177
    endloop
  endfacet
  facet normal 0.9238795325112868 0.3826834323650897 0
    outer loop
      vertex 67.5 7 184
      vertex 68.23223304703363 5.232233047033631 177
      vertex 67.5 7 177
    endloop
  endfacet
  facet normal 0.9238795325112868 -0.3826834323650897 0
    outer loop
      vertex 68.23223304703363 8.767766952966369 184
      vertex 67.5 7 177
      vertex 68.23223304703363 8.767766952966369 177
    endloop
  endfacet
  facet normal 0.3826834323650897 -0.9238795325112868 0
    outer loop
      vertex 70 9.5 184
      vertex 68.23223304703363 8.767766952966369 177
      vertex 70 9.5 177
    endloop
  endfacet
  facet normal -0.9238795325112894 0.3826834323650834 0
    outer loop
      vertex 8.767766952966383 68.23223304703363 184
      vertex 9.5 70 184
      vertex 9.5 70 177
    endloop
  endfacet
  facet normal -0.3826834323650871 0.9238795325112878 0
    outer loop
      vertex 8.767766952966383 68.23223304703363 184
      vertex 8.767766952966383 68.23223304703363 177
      vertex 7 67.5 184
    endloop
  endfacet
  facet normal 0.3826834323650871 0.9238795325112878 0
    outer loop
      vertex 7 67.5 184
      vertex 7 67.5 177
      vertex 5.232233047033617 68.23223304703363 184
    endloop
  endfacet
  facet normal 0.9238795325112894 0.3826834323650834 0
    outer loop
      vertex 5.232233047033617 68.23223304703363 184
      vertex 5.232233047033617 68.23223304703363 177
      vertex 4.5 70 184
    endloop
  endfacet
  facet normal -0.9238795325112894 0.3826834323650834 0
    outer loop
      vertex 8.767766952966383 68.23223304703363 184
      vertex 9.5 70 177
      vertex 8.767766952966383 68.23223304703363 177
    endloop
  endfacet
  facet normal -0.3826834323650871 0.9238795325112878 0
    outer loop
      vertex 7 67.5 184
      vertex 8.767766952966383 68.23223304703363 177
      vertex 7 67.5 177
    endloop
  endfacet
  facet normal 0.3826834323650871 0.9238795325112878 0
    outer loop
      vertex 5.232233047033617 68.23223304703363 184
      vertex 7 67.5 177
      vertex 5.232233047033617 68.23223304703363 177
    endloop
  endfacet
  facet normal 0.9238795325112894 0.3826834323650834 0
    outer loop
      vertex 4.5 70 184
      vertex 5.232233047033617 68.23223304703363 177
      vertex 4.5 70 177
    endloop
  endfacet
  facet normal -0.9238795325112894 -0.3826834323650834 0
    outer loop
      vertex 9.5 70 184
      vertex 8.767766952966383 71.76776695296637 184
      vertex 8.767766952966383 71.76776695296637 177
    endloop
  endfacet
  facet normal -0.3826834323650871 -0.9238795325112878 0
    outer loop
      vertex 7 72.5 184
      vertex 7 72.5 177
      vertex 8.767766952966383 71.76776695296637 184
    endloop
  endfacet
  facet normal 0.3826834323650871 -0.9238795325112878 0
    outer loop
      vertex 7 72.5 184
      vertex 5.232233047033617 71.76776695296637 184
      vertex 5.232233047033617 71.76776695296637 177
    endloop
  endfacet
  facet normal 0.9238795325112894 -0.3826834323650834 0
    outer loop
      vertex 4.5 70 184
      vertex 4.5 70 177
      vertex 5.232233047033617 71.76776695296637 184
    endloop
  endfacet
  facet normal -0.9238795325112894 -0.3826834323650834 0
    outer loop
      vertex 9.5 70 184
      vertex 8.767766952966383 71.76776695296637 177
      vertex 9.5 70 177
    endloop
  endfacet
  facet normal -0.3826834323650871 -0.9238795325112878 0
    outer loop
      vertex 8.767766952966383 71.76776695296637 184
      vertex 7 72.5 177
      vertex 8.767766952966383 71.76776695296637 177
    endloop
  endfacet
  facet normal 0.3826834323650871 -0.9238795325112878 0
    outer loop
      vertex 7 72.5 184
      vertex 5.232233047033617 71.76776695296637 177
      vertex 7 72.5 177
    endloop
  endfacet
  facet normal 0.9238795325112894 -0.3826834323650834 0
    outer loop
      vertex 5.232233047033617 71.76776695296637 184
      vertex 4.5 70 177
      vertex 5.232233047033617 71.76776695296637 177
    endloop
  endfacet
  facet normal -0.3826834323650834 0.9238795325112894 0
    outer loop
      vertex 70 130.5 184
      vertex 71.76776695296637 131.23223304703362 184
      vertex 71.76776695296637 131.23223304703362 177
    endloop
  endfacet
  facet normal -0.9238795325112878 0.3826834323650871 0
    outer loop
      vertex 71.76776695296637 131.23223304703362 184
      vertex 72.5 133 184
      vertex 72.5 133 177
    endloop
  endfacet
  facet normal -0.9238795325112878 -0.3826834323650871 0
    outer loop
      vertex 72.5 133 184
      vertex 71.76776695296637 134.76776695296638 184
      vertex 71.76776695296637 134.76776695296638 177
    endloop
  endfacet
  facet normal -0.3826834323650834 -0.9238795325112894 0
    outer loop
      vertex 71.76776695296637 134.76776695296638 184
      vertex 70 135.5 184
      vertex 70 135.5 177
    endloop
  endfacet
  facet normal -0.3826834323650834 0.9238795325112894 0
    outer loop
      vertex 70 130.5 184
      vertex 71.76776695296637 131.23223304703362 177
      vertex 70 130.5 177
    endloop
  endfacet
  facet normal -0.9238795325112878 0.3826834323650871 0
    outer loop
      vertex 71.76776695296637 131.23223304703362 184
      vertex 72.5 133 177
      vertex 71.76776695296637 131.23223304703362 177
    endloop
  endfacet
  facet normal -0.9238795325112878 -0.3826834323650871 0
    outer loop
      vertex 72.5 133 184
      vertex 71.76776695296637 134.76776695296638 177
      vertex 72.5 133 177
    endloop
  endfacet
  facet normal -0.3826834323650834 -0.9238795325112894 0
    outer loop
      vertex 70 135.5 177
      vertex 71.76776695296637 134.76776695296638 177
      vertex 71.76776695296637 134.76776695296638 184
    endloop
  endfacet
  facet normal 0.3826834323650834 0.9238795325112894 0
    outer loop
      vertex 70 130.5 184
      vertex 70 130.5 177
      vertex 68.23223304703363 131.23223304703362 184
    endloop
  endfacet
  facet normal 0.9238795325112878 0.3826834323650871 0
    outer loop
      vertex 68.23223304703363 131.23223304703362 184
      vertex 68.23223304703363 131.23223304703362 177
      vertex 67.5 133 184
    endloop
  endfacet
  facet normal 0.9238795325112878 -0.3826834323650871 0
    outer loop
      vertex 68.23223304703363 134.76776695296638 184
      vertex 67.5 133 184
      vertex 67.5 133 177
    endloop
  endfacet
  facet normal 0.3826834323650834 -0.9238795325112894 0
    outer loop
      vertex 68.23223304703363 134.76776695296638 184
      vertex 68.23223304703363 134.76776695296638 177
      vertex 70 135.5 184
    endloop
  endfacet
  facet normal 0.3826834323650834 0.9238795325112894 0
    outer loop
      vertex 68.23223304703363 131.23223304703362 184
      vertex 70 130.5 177
      vertex 68.23223304703363 131.23223304703362 177
    endloop
  endfacet
  facet normal 0.9238795325112878 0.3826834323650871 0
    outer loop
      vertex 67.5 133 184
      vertex 68.23223304703363 131.23223304703362 177
      vertex 67.5 133 177
    endloop
  endfacet
  facet normal 0.3826834323650834 -0.9238795325112894 0
    outer loop
      vertex 70 135.5 184
      vertex 68.23223304703363 134.76776695296638 177
      vertex 70 135.5 177
    endloop
  endfacet
  facet normal 0.9238795325112878 -0.3826834323650871 0
    outer loop
      vertex 68.23223304703363 134.76776695296638 184
      vertex 67.5 133 177
      vertex 68.23223304703363 134.76776695296638 177
    endloop
  endfacet
  facet normal -0.9238795325112894 0.3826834323650834 0
    outer loop
      vertex 134.76776695296638 68.23223304703363 184
      vertex 135.5 70 184
      vertex 135.5 70 177
    endloop
  endfacet
  facet normal -0.3826834323650871 0.9238795325112878 0
    outer loop
      vertex 134.76776695296638 68.23223304703363 184
      vertex 134.76776695296638 68.23223304703363 177
      vertex 133 67.5 184
    endloop
  endfacet
  facet normal 0.3826834323650871 0.9238795325112878 0
    outer loop
      vertex 133 67.5 184
      vertex 133 67.5 177
      vertex 131.23223304703362 68.23223304703363 184
    endloop
  endfacet
  facet normal 0.9238795325112894 0.3826834323650834 0
    outer loop
      vertex 131.23223304703362 68.23223304703363 184
      vertex 131.23223304703362 68.23223304703363 177
      vertex 130.5 70 184
    endloop
  endfacet
  facet normal -0.9238795325112894 0.3826834323650834 0
    outer loop
      vertex 134.76776695296638 68.23223304703363 184
      vertex 135.5 70 177
      vertex 134.76776695296638 68.23223304703363 177
    endloop
  endfacet
  facet normal -0.3826834323650871 0.9238795325112878 0
    outer loop
      vertex 133 67.5 184
      vertex 134.76776695296638 68.23223304703363 177
      vertex 133 67.5 177
    endloop
  endfacet
  facet normal 0.3826834323650871 0.9238795325112878 0
    outer loop
      vertex 131.23223304703362 68.23223304703363 184
      vertex 133 67.5 177
      vertex 131.23223304703362 68.23223304703363 177
    endloop
  endfacet
  facet normal 0.9238795325112894 0.3826834323650834 0
    outer loop
      vertex 130.5 70 184
      vertex 131.23223304703362 68.23223304703363 177
      vertex 130.5 70 177
    endloop
  endfacet
  facet normal -0.9238795325112894 -0.3826834323650834 0
    outer loop
      vertex 135.5 70 184
      vertex 134.76776695296638 71.76776695296637 184
      vertex 134.76776695296638 71.76776695296637 177
    endloop
  endfacet
  facet normal -0.3826834323650871 -0.9238795325112878 0
    outer loop
      vertex 133 72.5 184
      vertex 133 72.5 177
      vertex 134.76776695296638 71.76776695296637 184
    endloop
  endfacet
  facet normal 0.3826834323650871 -0.9238795325112878 0
    outer loop
      vertex 133 72.5 184
      vertex 131.23223304703362 71.76776695296637 184
      vertex 131.23223304703362 71.76776695296637 177
    endloop
  endfacet
  facet normal 0.9238795325112894 -0.3826834323650834 0
    outer loop
      vertex 130.5 70 184
      vertex 130.5 70 177
      vertex 131.23223304703362 71.76776695296637 184
    endloop
  endfacet
  facet normal -0.9238795325112894 -0.3826834323650834 0
    outer loop
      vertex 135.5 70 184
      vertex 134.76776695296638 71.76776695296637 177
      vertex 135.5 70 177
    endloop
  endfacet
  facet normal -0.3826834323650871 -0.9238795325112878 0
    outer loop
      vertex 134.76776695296638 71.76776695296637 184
      vertex 133 72.5 177
      vertex 134.76776695296638 71.76776695296637 177
    endloop
  endfacet
  facet normal 0.3826834323650871 -0.9238795325112878 0
    outer loop
      vertex 133 72.5 184
      vertex 131.23223304703362 71.76776695296637 177
      vertex 133 72.5 177
    endloop
  endfacet
  facet normal 0.9238795325112894 -0.3826834323650834 0
    outer loop
      vertex 131.23223304703362 71.76776695296637 184
      vertex 130.5 70 177
      vertex 131.23223304703362 71.76776695296637 177
    endloop
  endfacet
endsolid OpenSCAD_Model
