solid OpenSCAD_Model
  facet normal 0 0 1
    outer loop
      vertex 203 2 64
      vertex 194.76776695296638 5.232233047033631 64
      vertex 193 4.5 64
    endloop
  endfacet
  facet normal 0 0 1
    outer loop
      vertex 203 2 64
      vertex 195.5 7 64
      vertex 194.76776695296638 5.232233047033631 64
    endloop
  endfacet
  facet normal 0.5555702330195991 -0.8314696123025473 0
    outer loop
      vertex 199.91341716182544 -2.619397662556434 64
      vertex 201.53553390593274 -1.5355339059327378 50
      vertex 201.53553390593274 -1.5355339059327378 64
    endloop
  endfacet
  facet normal 0.8314696123025478 -0.5555702330195984 0
    outer loop
      vertex 201.53553390593274 -1.5355339059327378 64
      vertex 201.53553390593274 -1.5355339059327378 50
      vertex 202.61939766255642 0.08658283817455104 64
    endloop
  endfacet
  facet normal 0.19509032201612952 -0.9807852804032303 0
    outer loop
      vertex 199.91341716182544 -2.619397662556434 64
      vertex 198 -3 64
      vertex 198 -3 50
    endloop
  endfacet
  facet normal 0.9807852804032294 -0.19509032201613344 0
    outer loop
      vertex 202.61939766255642 0.08658283817455104 64
      vertex 202.61939766255642 0.08658283817455104 50
      vertex 203 2 64
    endloop
  endfacet
  facet normal 0 0 1
    outer loop
      vertex 203 2 64
      vertex 203 68 64
      vertex 195.5 7 64
    endloop
  endfacet
  facet normal 0 0 1
    outer loop
      vertex 195.5 7 64
      vertex 194.76776695296638 61.23223304703363 64
      vertex 194.76776695296638 8.767766952966369 64
    endloop
  endfacet
  facet normal 0 0 1
    outer loop
      vertex 193 9.5 64
      vertex 194.76776695296638 8.767766952966369 64
      vertex 193 60.5 64
    endloop
  endfacet
  facet normal 0 0 1
    outer loop
      vertex 199.91341716182544 -2.619397662556434 64
      vertex 201.53553390593274 -1.5355339059327378 64
      vertex -2.6193976625564233 0.08658283817455104 64
    endloop
  endfacet
  facet normal 0 0 1
    outer loop
      vertex 201.53553390593274 -1.5355339059327378 64
      vertex 202.61939766255642 0.08658283817455104 64
      vertex -2.6193976625564233 0.08658283817455104 64
    endloop
  endfacet
  facet normal 0 0 1
    outer loop
      vertex 202.61939766255642 0.08658283817455104 64
      vertex 203 2 64
      vertex -2.6193976625564233 0.08658283817455104 64
    endloop
  endfacet
  facet normal 0 0 1
    outer loop
      vertex 199.91341716182544 -2.619397662556434 64
      vertex -2.6193976625564233 0.08658283817455104 64
      vertex 198 -3 64
    endloop
  endfacet
  facet normal 0 0 1
    outer loop
      vertex 203 2 64
      vertex 193 4.5 64
      vertex -2.6193976625564233 0.08658283817455104 64
    endloop
  endfacet
  facet normal 0 0 1
    outer loop
      vertex -2.6193976625564233 0.08658283817455104 64
      vertex 193 4.5 64
      vertex 191.23223304703362 5.232233047033631 64
    endloop
  endfacet
  facet normal 0 0 1
    outer loop
      vertex -2.6193976625564233 0.08658283817455104 64
      vertex 191.23223304703362 5.232233047033631 64
      vertex 190.5 7 64
    endloop
  endfacet
  facet normal 0 0 1
    outer loop
      vertex -2.6193976625564233 0.08658283817455104 64
      vertex 190.5 7 64
      vertex 191.23223304703362 8.767766952966369 64
    endloop
  endfacet
  facet normal 0 0 1
    outer loop
      vertex -2.6193976625564233 0.08658283817455104 64
      vertex 191.23223304703362 8.767766952966369 64
      vertex 193 9.5 64
    endloop
  endfacet
  facet normal 0 -1 0
    outer loop
      vertex 198 -3 64
      vertex 2 -3 64
      vertex 198 -3 50
    endloop
  endfacet
  facet normal 0 0 1
    outer loop
      vertex -2.6193976625564233 0.08658283817455104 64
      vertex 193 9.5 64
      vertex 191.23223304703362 61.23223304703363 64
    endloop
  endfacet
  facet normal 0.5555702330195991 -0.8314696123025473 0
    outer loop
      vertex 199.91341716182544 -2.619397662556434 64
      vertex 199.91341716182544 -2.619397662556434 50
      vertex 201.53553390593274 -1.5355339059327378 50
    endloop
  endfacet
  facet normal 0.19509032201612952 -0.9807852804032303 0
    outer loop
      vertex 199.91341716182544 -2.619397662556434 64
      vertex 198 -3 50
      vertex 199.91341716182544 -2.619397662556434 50
    endloop
  endfacet
  facet normal 0.8314696123025478 -0.5555702330195984 0
    outer loop
      vertex 202.61939766255642 0.08658283817455104 64
      vertex 201.53553390593274 -1.5355339059327378 50
      vertex 202.61939766255642 0.08658283817455104 50
    endloop
  endfacet
  facet normal 0.9807852804032294 -0.19509032201613344 0
    outer loop
      vertex 203 2 64
      vertex 202.61939766255642 0.08658283817455104 50
      vertex 203 2 50
    endloop
  endfacet
  facet normal 0 0 -1
    outer loop
      vertex 202.61939766255642 0.08658283817455104 50
      vertex 198.43553390593274 1.564466094067262 50
      vertex 199.51939766255643 3.1865828381745516 50
    endloop
  endfacet
  facet normal 0 0 -1
    outer loop
      vertex 202.61939766255642 0.08658283817455104 50
      vertex 194.9 0.10000000000000009 50
      vertex 196.81341716182544 0.4806023374435662 50
    endloop
  endfacet
  facet normal 0 0 -1
    outer loop
      vertex 202.61939766255642 0.08658283817455104 50
      vertex 196.81341716182544 0.4806023374435662 50
      vertex 198.43553390593274 1.564466094067262 50
    endloop
  endfacet
  facet normal 0 0 -1
    outer loop
      vertex 202.61939766255642 0.08658283817455104 50
      vertex 199.51939766255643 3.1865828381745516 50
      vertex 203 2 50
    endloop
  endfacet
  facet normal 0 0 -1
    outer loop
      vertex 203 2 50
      vertex 199.51939766255643 3.1865828381745516 50
      vertex 199.9 5.1 50
    endloop
  endfacet
  facet normal 1 0 0
    outer loop
      vertex 203 2 64
      vertex 203 2 50
      vertex 203 68 50
    endloop
  endfacet
  facet normal 0 0 -1
    outer loop
      vertex 203 2 50
      vertex 199.9 5.1 50
      vertex 203 68 50
    endloop
  endfacet
  facet normal 0 0 -1
    outer loop
      vertex 199.91341716182544 -2.619397662556434 50
      vertex -2.6193976625564233 0.08658283817455104 50
      vertex 201.53553390593274 -1.5355339059327378 50
    endloop
  endfacet
  facet normal 0 0 -1
    outer loop
      vertex 201.53553390593274 -1.5355339059327378 50
      vertex -2.6193976625564233 0.08658283817455104 50
      vertex 202.61939766255642 0.08658283817455104 50
    endloop
  endfacet
  facet normal 0 0 -1
    outer loop
      vertex 199.91341716182544 -2.619397662556434 50
      vertex 198 -3 50
      vertex -2.6193976625564233 0.08658283817455104 50
    endloop
  endfacet
  facet normal 0 0 -1
    outer loop
      vertex 202.61939766255642 0.08658283817455104 50
      vertex -2.6193976625564233 0.08658283817455104 50
      vertex 194.9 0.10000000000000009 50
    endloop
  endfacet
  facet normal 0 0 1
    outer loop
      vertex 195.5 7 64
      vertex 195.5 63 64
      vertex 194.76776695296638 61.23223304703363 64
    endloop
  endfacet
  facet normal 0 0 1
    outer loop
      vertex 194.76776695296638 8.767766952966369 64
      vertex 194.76776695296638 61.23223304703363 64
      vertex 193 60.5 64
    endloop
  endfacet
  facet normal 0 0 1
    outer loop
      vertex 193 9.5 64
      vertex 193 60.5 64
      vertex 191.23223304703362 61.23223304703363 64
    endloop
  endfacet
  facet normal 0 0 1
    outer loop
      vertex 203 68 64
      vertex 195.5 63 64
      vertex 195.5 7 64
    endloop
  endfacet
  facet normal 1 0 0
    outer loop
      vertex 203 2 64
      vertex 203 68 50
      vertex 203 68 64
    endloop
  endfacet
  facet normal 0 0 1
    outer loop
      vertex 203 68 64
      vertex 194.76776695296638 64.76776695296637 64
      vertex 195.5 63 64
    endloop
  endfacet
  facet normal 0 0 1
    outer loop
      vertex 203 68 64
      vertex 202.61939766255642 69.91341716182545 64
      vertex 194.76776695296638 64.76776695296637 64
    endloop
  endfacet
  facet normal 0 0 1
    outer loop
      vertex 202.61939766255642 69.91341716182545 64
      vertex 193 65.5 64
      vertex 194.76776695296638 64.76776695296637 64
    endloop
  endfacet
  facet normal 0.9807852804032294 0.19509032201613336 0
    outer loop
      vertex 203 68 64
      vertex 203 68 50
      vertex 202.61939766255642 69.91341716182545 64
    endloop
  endfacet
  facet normal 0.8314696123025476 0.5555702330195986 0
    outer loop
      vertex 202.61939766255642 69.91341716182545 64
      vertex 202.61939766255642 69.91341716182545 50
      vertex 201.53553390593274 71.53553390593274 64
    endloop
  endfacet
  facet normal 0.5555702330196003 0.8314696123025466 0
    outer loop
      vertex 201.53553390593274 71.53553390593274 64
      vertex 199.91341716182544 72.61939766255644 50
      vertex 199.91341716182544 72.61939766255644 64
    endloop
  endfacet
  facet normal 0.19509032201612775 0.9807852804032305 0
    outer loop
      vertex 199.91341716182544 72.61939766255644 64
      vertex 198 73 50
      vertex 198 73 64
    endloop
  endfacet
  facet normal 0 0 1
    outer loop
      vertex -2.6193976625564233 0.08658283817455104 64
      vertex 191.23223304703362 61.23223304703363 64
      vertex 190.5 63 64
    endloop
  endfacet
  facet normal 0 0 1
    outer loop
      vertex -2.6193976625564233 0.08658283817455104 64
      vertex 190.5 63 64
      vertex 191.23223304703362 64.76776695296637 64
    endloop
  endfacet
  facet normal 0 0 1
    outer loop
      vertex -2.6193976625564233 0.08658283817455104 64
      vertex 191.23223304703362 64.76776695296637 64
      vertex 193 65.5 64
    endloop
  endfacet
  facet normal 0 0 1
    outer loop
      vertex 202.61939766255642 69.91341716182545 64
      vertex 201.53553390593274 71.53553390593274 64
      vertex -2.6193976625564233 0.08658283817455104 64
    endloop
  endfacet
  facet normal 0 0 1
    outer loop
      vertex 201.53553390593274 71.53553390593274 64
      vertex 199.91341716182544 72.61939766255644 64
      vertex -2.6193976625564233 0.08658283817455104 64
    endloop
  endfacet
  facet normal 0 0 1
    outer loop
      vertex 202.61939766255642 69.91341716182545 64
      vertex -2.6193976625564233 0.08658283817455104 64
      vertex 193 65.5 64
    endloop
  endfacet
  facet normal 0 0 1
    outer loop
      vertex 199.91341716182544 72.61939766255644 64
      vertex 198 73 64
      vertex -2.6193976625564233 0.08658283817455104 64
    endloop
  endfacet
  facet normal 0 0 1
    outer loop
      vertex 198 73 64
      vertex 101.76776695296637 61.23223304703363 64
      vertex 9.5 7 64
    endloop
  endfacet
  facet normal 0 0 1
    outer loop
      vertex 198 73 64
      vertex 102.5 63 64
      vertex 101.76776695296637 61.23223304703363 64
    endloop
  endfacet
  facet normal 0 0 1
    outer loop
      vertex 198 73 64
      vertex 101.76776695296637 64.76776695296637 64
      vertex 102.5 63 64
    endloop
  endfacet
  facet normal 0 0 1
    outer loop
      vertex 198 73 64
      vertex 100 65.5 64
      vertex 101.76776695296637 64.76776695296637 64
    endloop
  endfacet
  facet normal 0 0 -1
    outer loop
      vertex 199.9 5.1 50
      vertex 199.9 65.3 50
      vertex 203 68 50
    endloop
  endfacet
  facet normal 0.9807852804032294 0.19509032201613336 0
    outer loop
      vertex 202.61939766255642 69.91341716182545 64
      vertex 203 68 50
      vertex 202.61939766255642 69.91341716182545 50
    endloop
  endfacet
  facet normal 0.8314696123025476 0.5555702330195986 0
    outer loop
      vertex 201.53553390593274 71.53553390593274 64
      vertex 202.61939766255642 69.91341716182545 50
      vertex 201.53553390593274 71.53553390593274 50
    endloop
  endfacet
  facet normal 0.5555702330196003 0.8314696123025466 0
    outer loop
      vertex 201.53553390593274 71.53553390593274 64
      vertex 201.53553390593274 71.53553390593274 50
      vertex 199.91341716182544 72.61939766255644 50
    endloop
  endfacet
  facet normal 0.19509032201612775 0.9807852804032305 0
    outer loop
      vertex 199.91341716182544 72.61939766255644 64
      vertex 199.91341716182544 72.61939766255644 50
      vertex 198 73 50
    endloop
  endfacet
  facet normal 0 0 -1
    outer loop
      vertex 199.9 65.3 50
      vertex 199.51939766255643 67.21341716182545 50
      vertex 203 68 50
    endloop
  endfacet
  facet normal 0 0 -1
    outer loop
      vertex 203 68 50
      vertex 199.51939766255643 67.21341716182545 50
      vertex 202.61939766255642 69.91341716182545 50
    endloop
  endfacet
  facet normal 0 0 -1
    outer loop
      vertex 199.51939766255643 67.21341716182545 50
      vertex 198.43553390593274 68.83553390593273 50
      vertex 202.61939766255642 69.91341716182545 50
    endloop
  endfacet
  facet normal 0 0 -1
    outer loop
      vertex 202.61939766255642 69.91341716182545 50
      vertex 198.43553390593274 68.83553390593273 50
      vertex 201.53553390593274 71.53553390593274 50
    endloop
  endfacet
  facet normal 0 0 -1
    outer loop
      vertex 198.43553390593274 68.83553390593273 50
      vertex 196.81341716182544 69.91939766255643 50
      vertex 201.53553390593274 71.53553390593274 50
    endloop
  endfacet
  facet normal 0 0 -1
    outer loop
      vertex 196.81341716182544 69.91939766255643 50
      vertex 199.91341716182544 72.61939766255644 50
      vertex 201.53553390593274 71.53553390593274 50
    endloop
  endfacet
  facet normal 0 0 -1
    outer loop
      vertex 196.81341716182544 69.91939766255643 50
      vertex 194.9 70.3 50
      vertex 199.91341716182544 72.61939766255644 50
    endloop
  endfacet
  facet normal 0 1 0
    outer loop
      vertex 198 73 64
      vertex 198 73 50
      vertex 2 73 50
    endloop
  endfacet
  facet normal 0 0 -1
    outer loop
      vertex 199.91341716182544 72.61939766255644 50
      vertex 194.9 70.3 50
      vertex 4.700000000000017 70.3 50
    endloop
  endfacet
  facet normal 0 0 -1
    outer loop
      vertex 199.91341716182544 72.61939766255644 50
      vertex 4.700000000000017 70.3 50
      vertex 198 73 50
    endloop
  endfacet
  facet normal 0 0 1
    outer loop
      vertex 198 -3 64
      vertex -2.6193976625564233 0.08658283817455104 64
      vertex 2 -3 64
    endloop
  endfacet
  facet normal 0 0 1
    outer loop
      vertex 198 73 64
      vertex 8.767766952966383 5.232233047033631 64
      vertex 7 4.5 64
    endloop
  endfacet
  facet normal 0 0 1
    outer loop
      vertex 198 73 64
      vertex 9.5 7 64
      vertex 8.767766952966383 5.232233047033631 64
    endloop
  endfacet
  facet normal 0 0 1
    outer loop
      vertex 198 73 64
      vertex 7 4.5 64
      vertex -2.6193976625564233 0.08658283817455104 64
    endloop
  endfacet
  facet normal 0 0 1
    outer loop
      vertex 2 -3 64
      vertex -2.6193976625564233 0.08658283817455104 64
      vertex 0.08658283817456436 -2.619397662556434 64
    endloop
  endfacet
  facet normal 0 0 1
    outer loop
      vertex 0.08658283817456436 -2.619397662556434 64
      vertex -2.6193976625564233 0.08658283817455104 64
      vertex -1.5355339059327378 -1.5355339059327378 64
    endloop
  endfacet
  facet normal 0 0 1
    outer loop
      vertex -2.6193976625564233 0.08658283817455104 64
      vertex 7 4.5 64
      vertex 5.232233047033617 5.232233047033631 64
    endloop
  endfacet
  facet normal 0 0 1
    outer loop
      vertex -2.6193976625564233 0.08658283817455104 64
      vertex 5.232233047033617 5.232233047033631 64
      vertex 4.5 7 64
    endloop
  endfacet
  facet normal 0 0 1
    outer loop
      vertex -2.6193976625564233 0.08658283817455104 64
      vertex 4.5 7 64
      vertex 5.232233047033617 8.767766952966369 64
    endloop
  endfacet
  facet normal -0.19509032201612952 -0.9807852804032303 0
    outer loop
      vertex 2 -3 64
      vertex 0.08658283817456436 -2.619397662556434 64
      vertex 2 -3 50
    endloop
  endfacet
  facet normal -0.5555702330195991 -0.8314696123025473 0
    outer loop
      vertex 0.08658283817456436 -2.619397662556434 64
      vertex -1.5355339059327378 -1.5355339059327378 64
      vertex -1.5355339059327378 -1.5355339059327378 50
    endloop
  endfacet
  facet normal -0.8314696123025478 -0.5555702330195984 0
    outer loop
      vertex -1.5355339059327378 -1.5355339059327378 64
      vertex -2.6193976625564233 0.08658283817455104 64
      vertex -2.6193976625564233 0.08658283817455104 50
    endloop
  endfacet
  facet normal -0.9807852804032294 -0.19509032201613344 0
    outer loop
      vertex -2.6193976625564233 0.08658283817455104 64
      vertex -3 2 64
      vertex -2.6193976625564233 0.08658283817455104 50
    endloop
  endfacet
  facet normal 0 0 1
    outer loop
      vertex 9.5 7 64
      vertex 98.23223304703363 61.23223304703363 64
      vertex 8.767766952966383 8.767766952966369 64
    endloop
  endfacet
  facet normal 0 0 1
    outer loop
      vertex -2.6193976625564233 0.08658283817455104 64
      vertex 5.232233047033617 8.767766952966369 64
      vertex 5.232233047033617 61.23223304703363 64
    endloop
  endfacet
  facet normal 0 0 1
    outer loop
      vertex -2.6193976625564233 0.08658283817455104 64
      vertex -3 68 64
      vertex -3 2 64
    endloop
  endfacet
  facet normal 0 0 1
    outer loop
      vertex 7 9.5 64
      vertex 8.767766952966383 8.767766952966369 64
      vertex 7 60.5 64
    endloop
  endfacet
  facet normal 0 0 1
    outer loop
      vertex 5.232233047033617 8.767766952966369 64
      vertex 7 9.5 64
      vertex 5.232233047033617 61.23223304703363 64
    endloop
  endfacet
  facet normal -1 0 0
    outer loop
      vertex -3 2 64
      vertex -3 68 64
      vertex -3 2 50
    endloop
  endfacet
  facet normal 0 -1 0
    outer loop
      vertex 198 -3 50
      vertex 2 -3 64
      vertex 2 -3 50
    endloop
  endfacet
  facet normal 0 0 -1
    outer loop
      vertex 198 -3 50
      vertex 2 -3 50
      vertex -2.6193976625564233 0.08658283817455104 50
    endloop
  endfacet
  facet normal 0 0 -1
    outer loop
      vertex 194.9 0.10000000000000009 50
      vertex -2.6193976625564233 0.08658283817455104 50
      vertex 4.700000000000017 0.10000000000000009 50
    endloop
  endfacet
  facet normal -0.19509032201612952 -0.9807852804032303 0
    outer loop
      vertex 0.08658283817456436 -2.619397662556434 64
      vertex 0.08658283817456436 -2.619397662556434 50
      vertex 2 -3 50
    endloop
  endfacet
  facet normal -0.5555702330195991 -0.8314696123025473 0
    outer loop
      vertex 0.08658283817456436 -2.619397662556434 64
      vertex -1.5355339059327378 -1.5355339059327378 50
      vertex 0.08658283817456436 -2.619397662556434 50
    endloop
  endfacet
  facet normal -0.8314696123025478 -0.5555702330195984 0
    outer loop
      vertex -1.5355339059327378 -1.5355339059327378 64
      vertex -2.6193976625564233 0.08658283817455104 50
      vertex -1.5355339059327378 -1.5355339059327378 50
    endloop
  endfacet
  facet normal -0.9807852804032294 -0.19509032201613344 0
    outer loop
      vertex -3 2 64
      vertex -3 2 50
      vertex -2.6193976625564233 0.08658283817455104 50
    endloop
  endfacet
  facet normal 0 0 -1
    outer loop
      vertex 2 -3 50
      vertex 0.08658283817456436 -2.619397662556434 50
      vertex -2.6193976625564233 0.08658283817455104 50
    endloop
  endfacet
  facet normal 0 0 -1
    outer loop
      vertex 0.08658283817456436 -2.619397662556434 50
      vertex -1.5355339059327378 -1.5355339059327378 50
      vertex -2.6193976625564233 0.08658283817455104 50
    endloop
  endfacet
  facet normal 0 0 -1
    outer loop
      vertex 4.700000000000017 0.10000000000000009 50
      vertex -2.6193976625564233 0.08658283817455104 50
      vertex 2.7865828381745814 0.4806023374435662 50
    endloop
  endfacet
  facet normal 0 0 -1
    outer loop
      vertex 2.7865828381745814 0.4806023374435662 50
      vertex -2.6193976625564233 0.08658283817455104 50
      vertex 1.1644660940672793 1.564466094067262 50
    endloop
  endfacet
  facet normal 0 0 -1
    outer loop
      vertex 1.1644660940672793 1.564466094067262 50
      vertex -2.6193976625564233 0.08658283817455104 50
      vertex 0.0806023374435938 3.1865828381745516 50
    endloop
  endfacet
  facet normal 0 0 -1
    outer loop
      vertex -2.6193976625564233 0.08658283817455104 50
      vertex -0.29999999999998295 5.1 50
      vertex 0.0806023374435938 3.1865828381745516 50
    endloop
  endfacet
  facet normal 0 0 -1
    outer loop
      vertex -2.6193976625564233 0.08658283817455104 50
      vertex -0.29999999999998295 65.3 50
      vertex -0.29999999999998295 5.1 50
    endloop
  endfacet
  facet normal 0 0 -1
    outer loop
      vertex -2.6193976625564233 0.08658283817455104 50
      vertex -3 2 50
      vertex -3 68 50
    endloop
  endfacet
  facet normal 0 0 1
    outer loop
      vertex 100 60.5 64
      vertex 9.5 7 64
      vertex 101.76776695296637 61.23223304703363 64
    endloop
  endfacet
  facet normal 0 0 1
    outer loop
      vertex 100 60.5 64
      vertex 98.23223304703363 61.23223304703363 64
      vertex 9.5 7 64
    endloop
  endfacet
  facet normal 0 0 1
    outer loop
      vertex 198 73 64
      vertex 2 73 64
      vertex 100 65.5 64
    endloop
  endfacet
  facet normal 0 0 1
    outer loop
      vertex 98.23223304703363 61.23223304703363 64
      vertex 97.5 63 64
      vertex 8.767766952966383 61.23223304703363 64
    endloop
  endfacet
  facet normal 0 0 1
    outer loop
      vertex 98.23223304703363 64.76776695296637 64
      vertex 9.5 63 64
      vertex 97.5 63 64
    endloop
  endfacet
  facet normal 0 0 1
    outer loop
      vertex 2 73 64
      vertex 98.23223304703363 64.76776695296637 64
      vertex 100 65.5 64
    endloop
  endfacet
  facet normal 0 1 0
    outer loop
      vertex 198 73 64
      vertex 2 73 50
      vertex 2 73 64
    endloop
  endfacet
  facet normal 0 0 1
    outer loop
      vertex 8.767766952966383 8.767766952966369 64
      vertex 98.23223304703363 61.23223304703363 64
      vertex 8.767766952966383 61.23223304703363 64
    endloop
  endfacet
  facet normal 0 0 1
    outer loop
      vertex 8.767766952966383 8.767766952966369 64
      vertex 8.767766952966383 61.23223304703363 64
      vertex 7 60.5 64
    endloop
  endfacet
  facet normal 0 0 1
    outer loop
      vertex 7 9.5 64
      vertex 7 60.5 64
      vertex 5.232233047033617 61.23223304703363 64
    endloop
  endfacet
  facet normal 0 0 1
    outer loop
      vertex -2.6193976625564233 0.08658283817455104 64
      vertex 5.232233047033617 61.23223304703363 64
      vertex 4.5 63 64
    endloop
  endfacet
  facet normal 0 0 1
    outer loop
      vertex -2.6193976625564233 0.08658283817455104 64
      vertex 4.5 63 64
      vertex 2 73 64
    endloop
  endfacet
  facet normal 0 0 1
    outer loop
      vertex -2.6193976625564233 0.08658283817455104 64
      vertex -2.6193976625564233 69.91341716182545 64
      vertex -3 68 64
    endloop
  endfacet
  facet normal 0 0 1
    outer loop
      vertex -2.6193976625564233 0.08658283817455104 64
      vertex -1.5355339059327378 71.53553390593274 64
      vertex -2.6193976625564233 69.91341716182545 64
    endloop
  endfacet
  facet normal 0 0 1
    outer loop
      vertex -2.6193976625564233 0.08658283817455104 64
      vertex 2 73 64
      vertex 0.08658283817456436 72.61939766255644 64
    endloop
  endfacet
  facet normal 0 0 1
    outer loop
      vertex -2.6193976625564233 0.08658283817455104 64
      vertex 0.08658283817456436 72.61939766255644 64
      vertex -1.5355339059327378 71.53553390593274 64
    endloop
  endfacet
  facet normal 0 0 1
    outer loop
      vertex 8.767766952966383 61.23223304703363 64
      vertex 97.5 63 64
      vertex 9.5 63 64
    endloop
  endfacet
  facet normal 0 0 1
    outer loop
      vertex 98.23223304703363 64.76776695296637 64
      vertex 8.767766952966383 64.76776695296637 64
      vertex 9.5 63 64
    endloop
  endfacet
  facet normal 0 0 1
    outer loop
      vertex 2 73 64
      vertex 8.767766952966383 64.76776695296637 64
      vertex 98.23223304703363 64.76776695296637 64
    endloop
  endfacet
  facet normal 0 0 1
    outer loop
      vertex 2 73 64
      vertex 4.5 63 64
      vertex 5.232233047033617 64.76776695296637 64
    endloop
  endfacet
  facet normal 0 0 1
    outer loop
      vertex 2 73 64
      vertex 7 65.5 64
      vertex 8.767766952966383 64.76776695296637 64
    endloop
  endfacet
  facet normal 0 0 1
    outer loop
      vertex 2 73 64
      vertex 5.232233047033617 64.76776695296637 64
      vertex 7 65.5 64
    endloop
  endfacet
  facet normal -0.9807852804032294 0.19509032201613336 0
    outer loop
      vertex -3 68 64
      vertex -2.6193976625564233 69.91341716182545 64
      vertex -2.6193976625564233 69.91341716182545 50
    endloop
  endfacet
  facet normal -0.8314696123025476 0.5555702330195986 0
    outer loop
      vertex -2.6193976625564233 69.91341716182545 64
      vertex -1.5355339059327378 71.53553390593274 64
      vertex -2.6193976625564233 69.91341716182545 50
    endloop
  endfacet
  facet normal -0.19509032201612775 0.9807852804032305 0
    outer loop
      vertex 2 73 64
      vertex 2 73 50
      vertex 0.08658283817456436 72.61939766255644 64
    endloop
  endfacet
  facet normal -0.5555702330196003 0.8314696123025466 0
    outer loop
      vertex -1.5355339059327378 71.53553390593274 64
      vertex 0.08658283817456436 72.61939766255644 64
      vertex -1.5355339059327378 71.53553390593274 50
    endloop
  endfacet
  facet normal 0 0 -1
    outer loop
      vertex 198 73 50
      vertex 4.700000000000017 70.3 50
      vertex 2 73 50
    endloop
  endfacet
  facet normal -1 0 0
    outer loop
      vertex -3 2 50
      vertex -3 68 64
      vertex -3 68 50
    endloop
  endfacet
  facet normal 0 0 -1
    outer loop
      vertex -2.6193976625564233 0.08658283817455104 50
      vertex -1.5355339059327378 71.53553390593274 50
      vertex -0.29999999999998295 65.3 50
    endloop
  endfacet
  facet normal 0 0 -1
    outer loop
      vertex -2.6193976625564233 0.08658283817455104 50
      vertex -3 68 50
      vertex -2.6193976625564233 69.91341716182545 50
    endloop
  endfacet
  facet normal 0 0 -1
    outer loop
      vertex -2.6193976625564233 0.08658283817455104 50
      vertex -2.6193976625564233 69.91341716182545 50
      vertex -1.5355339059327378 71.53553390593274 50
    endloop
  endfacet
  facet normal -0.9807852804032294 0.19509032201613336 0
    outer loop
      vertex -3 68 64
      vertex -2.6193976625564233 69.91341716182545 50
      vertex -3 68 50
    endloop
  endfacet
  facet normal -0.19509032201612775 0.9807852804032305 0
    outer loop
      vertex 0.08658283817456436 72.61939766255644 64
      vertex 2 73 50
      vertex 0.08658283817456436 72.61939766255644 50
    endloop
  endfacet
  facet normal -0.8314696123025476 0.5555702330195986 0
    outer loop
      vertex -1.5355339059327378 71.53553390593274 64
      vertex -1.5355339059327378 71.53553390593274 50
      vertex -2.6193976625564233 69.91341716182545 50
    endloop
  endfacet
  facet normal -0.5555702330196003 0.8314696123025466 0
    outer loop
      vertex 0.08658283817456436 72.61939766255644 64
      vertex 0.08658283817456436 72.61939766255644 50
      vertex -1.5355339059327378 71.53553390593274 50
    endloop
  endfacet
  facet normal 0 0 -1
    outer loop
      vertex 1.1644660940672793 68.83553390593273 50
      vertex 2 73 50
      vertex 2.7865828381745814 69.91939766255643 50
    endloop
  endfacet
  facet normal 0 0 -1
    outer loop
      vertex 0.0806023374435938 67.21341716182545 50
      vertex 0.08658283817456436 72.61939766255644 50
      vertex 1.1644660940672793 68.83553390593273 50
    endloop
  endfacet
  facet normal 0 0 -1
    outer loop
      vertex -0.29999999999998295 65.3 50
      vertex 0.08658283817456436 72.61939766255644 50
      vertex 0.0806023374435938 67.21341716182545 50
    endloop
  endfacet
  facet normal 0 0 -1
    outer loop
      vertex -0.29999999999998295 65.3 50
      vertex -1.5355339059327378 71.53553390593274 50
      vertex 0.08658283817456436 72.61939766255644 50
    endloop
  endfacet
  facet normal 0 0 -1
    outer loop
      vertex 4.700000000000017 70.3 50
      vertex 2.7865828381745814 69.91939766255643 50
      vertex 2 73 50
    endloop
  endfacet
  facet normal 0 0 -1
    outer loop
      vertex 1.1644660940672793 68.83553390593273 50
      vertex 0.08658283817456436 72.61939766255644 50
      vertex 2 73 50
    endloop
  endfacet
  facet normal 0 0 -1
    outer loop
      vertex 199.51939766255643 3.1865828381745516 57
      vertex 194.76776695296638 5.232233047033631 57
      vertex 199.9 5.1 57
    endloop
  endfacet
  facet normal 0 0 -1
    outer loop
      vertex 199.9 5.1 57
      vertex 194.76776695296638 5.232233047033631 57
      vertex 195.5 7 57
    endloop
  endfacet
  facet normal 0 0 -1
    outer loop
      vertex 199.51939766255643 3.1865828381745516 57
      vertex 193 4.5 57
      vertex 194.76776695296638 5.232233047033631 57
    endloop
  endfacet
  facet normal -0.5555702330195988 0.8314696123025473 0
    outer loop
      vertex 196.81341716182544 0.4806023374435662 57
      vertex 198.43553390593274 1.564466094067262 57
      vertex 198.43553390593274 1.564466094067262 50
    endloop
  endfacet
  facet normal -0.19509032201612952 0.9807852804032303 0
    outer loop
      vertex 196.81341716182544 0.4806023374435662 57
      vertex 196.81341716182544 0.4806023374435662 50
      vertex 194.9 0.10000000000000009 57
    endloop
  endfacet
  facet normal -0.8314696123025479 0.5555702330195983 0
    outer loop
      vertex 198.43553390593274 1.564466094067262 57
      vertex 199.51939766255643 3.1865828381745516 57
      vertex 199.51939766255643 3.1865828381745516 50
    endloop
  endfacet
  facet normal -0.9807852804032293 0.19509032201613352 0
    outer loop
      vertex 199.51939766255643 3.1865828381745516 57
      vertex 199.9 5.1 57
      vertex 199.9 5.1 50
    endloop
  endfacet
  facet normal -0.5555702330195988 0.8314696123025473 0
    outer loop
      vertex 196.81341716182544 0.4806023374435662 57
      vertex 198.43553390593274 1.564466094067262 50
      vertex 196.81341716182544 0.4806023374435662 50
    endloop
  endfacet
  facet normal -0.19509032201612952 0.9807852804032303 0
    outer loop
      vertex 194.9 0.10000000000000009 57
      vertex 196.81341716182544 0.4806023374435662 50
      vertex 194.9 0.10000000000000009 50
    endloop
  endfacet
  facet normal -0.8314696123025479 0.5555702330195983 0
    outer loop
      vertex 198.43553390593274 1.564466094067262 57
      vertex 199.51939766255643 3.1865828381745516 50
      vertex 198.43553390593274 1.564466094067262 50
    endloop
  endfacet
  facet normal -0.9807852804032293 0.19509032201613352 0
    outer loop
      vertex 199.51939766255643 3.1865828381745516 57
      vertex 199.9 5.1 50
      vertex 199.51939766255643 3.1865828381745516 50
    endloop
  endfacet
  facet normal 0 0 -1
    outer loop
      vertex 199.9 5.1 57
      vertex 195.5 7 57
      vertex 195.5 63 57
    endloop
  endfacet
  facet normal 0 0 -1
    outer loop
      vertex 194.76776695296638 8.767766952966369 57
      vertex 195.5 63 57
      vertex 195.5 7 57
    endloop
  endfacet
  facet normal 0 0 -1
    outer loop
      vertex 194.76776695296638 8.767766952966369 57
      vertex 193 9.5 57
      vertex 194.76776695296638 61.23223304703363 57
    endloop
  endfacet
  facet normal 0 0 -1
    outer loop
      vertex 193 9.5 57
      vertex 191.23223304703362 8.767766952966369 57
      vertex 193 60.5 57
    endloop
  endfacet
  facet normal -1 0 0
    outer loop
      vertex 199.9 5.1 57
      vertex 199.9 65.3 50
      vertex 199.9 5.1 50
    endloop
  endfacet
  facet normal 0 0 -1
    outer loop
      vertex 196.81341716182544 0.4806023374435662 57
      vertex 0.0806023374435938 3.1865828381745516 57
      vertex 198.43553390593274 1.564466094067262 57
    endloop
  endfacet
  facet normal 0 0 -1
    outer loop
      vertex 196.81341716182544 0.4806023374435662 57
      vertex 194.9 0.10000000000000009 57
      vertex 0.0806023374435938 3.1865828381745516 57
    endloop
  endfacet
  facet normal 0 0 -1
    outer loop
      vertex 198.43553390593274 1.564466094067262 57
      vertex 0.0806023374435938 3.1865828381745516 57
      vertex 199.51939766255643 3.1865828381745516 57
    endloop
  endfacet
  facet normal 0 0 -1
    outer loop
      vertex 199.51939766255643 3.1865828381745516 57
      vertex 0.0806023374435938 3.1865828381745516 57
      vertex 193 4.5 57
    endloop
  endfacet
  facet normal 0 0 -1
    outer loop
      vertex 0.0806023374435938 3.1865828381745516 57
      vertex 191.23223304703362 5.232233047033631 57
      vertex 193 4.5 57
    endloop
  endfacet
  facet normal 0 0 -1
    outer loop
      vertex 0.0806023374435938 3.1865828381745516 57
      vertex 190.5 7 57
      vertex 191.23223304703362 5.232233047033631 57
    endloop
  endfacet
  facet normal 0 1 0
    outer loop
      vertex 194.9 0.10000000000000009 57
      vertex 194.9 0.10000000000000009 50
      vertex 4.700000000000017 0.10000000000000009 57
    endloop
  endfacet
  facet normal 0 0 -1
    outer loop
      vertex 9.5 7 57
      vertex 191.23223304703362 8.767766952966369 57
      vertex 190.5 7 57
    endloop
  endfacet
  facet normal 0 0 -1
    outer loop
      vertex 9.5 7 57
      vertex 191.23223304703362 61.23223304703363 57
      vertex 191.23223304703362 8.767766952966369 57
    endloop
  endfacet
  facet normal 0 0 -1
    outer loop
      vertex 199.9 5.1 57
      vertex 195.5 63 57
      vertex 199.9 65.3 57
    endloop
  endfacet
  facet normal 0 0 -1
    outer loop
      vertex 194.76776695296638 8.767766952966369 57
      vertex 194.76776695296638 61.23223304703363 57
      vertex 195.5 63 57
    endloop
  endfacet
  facet normal 0 0 -1
    outer loop
      vertex 193 9.5 57
      vertex 193 60.5 57
      vertex 194.76776695296638 61.23223304703363 57
    endloop
  endfacet
  facet normal 0 0 -1
    outer loop
      vertex 191.23223304703362 8.767766952966369 57
      vertex 191.23223304703362 61.23223304703363 57
      vertex 193 60.5 57
    endloop
  endfacet
  facet normal -1 0 0
    outer loop
      vertex 199.9 5.1 57
      vertex 199.9 65.3 57
      vertex 199.9 65.3 50
    endloop
  endfacet
  facet normal 0 0 -1
    outer loop
      vertex 199.9 65.3 57
      vertex 195.5 63 57
      vertex 194.76776695296638 64.76776695296637 57
    endloop
  endfacet
  facet normal 0 0 -1
    outer loop
      vertex 199.9 65.3 57
      vertex 194.76776695296638 64.76776695296637 57
      vertex 199.51939766255643 67.21341716182545 57
    endloop
  endfacet
  facet normal 0 0 -1
    outer loop
      vertex 199.51939766255643 67.21341716182545 57
      vertex 193 65.5 57
      vertex 198.43553390593274 68.83553390593273 57
    endloop
  endfacet
  facet normal 0 0 -1
    outer loop
      vertex 199.51939766255643 67.21341716182545 57
      vertex 194.76776695296638 64.76776695296637 57
      vertex 193 65.5 57
    endloop
  endfacet
  facet normal -0.9807852804032294 -0.19509032201613336 0
    outer loop
      vertex 199.9 65.3 57
      vertex 199.51939766255643 67.21341716182545 57
      vertex 199.51939766255643 67.21341716182545 50
    endloop
  endfacet
  facet normal -0.8314696123025476 -0.5555702330195986 0
    outer loop
      vertex 199.51939766255643 67.21341716182545 57
      vertex 198.43553390593274 68.83553390593273 57
      vertex 198.43553390593274 68.83553390593273 50
    endloop
  endfacet
  facet normal -0.5555702330196003 -0.8314696123025466 0
    outer loop
      vertex 198.43553390593274 68.83553390593273 57
      vertex 196.81341716182544 69.91939766255643 57
      vertex 196.81341716182544 69.91939766255643 50
    endloop
  endfacet
  facet normal -0.19509032201612775 -0.9807852804032305 0
    outer loop
      vertex 196.81341716182544 69.91939766255643 57
      vertex 194.9 70.3 57
      vertex 194.9 70.3 50
    endloop
  endfacet
  facet normal -0.9807852804032294 -0.19509032201613336 0
    outer loop
      vertex 199.9 65.3 57
      vertex 199.51939766255643 67.21341716182545 50
      vertex 199.9 65.3 50
    endloop
  endfacet
  facet normal -0.8314696123025476 -0.5555702330195986 0
    outer loop
      vertex 199.51939766255643 67.21341716182545 57
      vertex 198.43553390593274 68.83553390593273 50
      vertex 199.51939766255643 67.21341716182545 50
    endloop
  endfacet
  facet normal -0.5555702330196003 -0.8314696123025466 0
    outer loop
      vertex 198.43553390593274 68.83553390593273 57
      vertex 196.81341716182544 69.91939766255643 50
      vertex 198.43553390593274 68.83553390593273 50
    endloop
  endfacet
  facet normal -0.19509032201612775 -0.9807852804032305 0
    outer loop
      vertex 196.81341716182544 69.91939766255643 57
      vertex 194.9 70.3 50
      vertex 196.81341716182544 69.91939766255643 50
    endloop
  endfacet
  facet normal 0 0 -1
    outer loop
      vertex 191.23223304703362 61.23223304703363 57
      vertex 9.5 7 57
      vertex 190.5 63 57
    endloop
  endfacet
  facet normal 0 0 -1
    outer loop
      vertex 198.43553390593274 68.83553390593273 57
      vertex 193 65.5 57
      vertex 9.5 7 57
    endloop
  endfacet
  facet normal 0 0 -1
    outer loop
      vertex 198.43553390593274 68.83553390593273 57
      vertex 9.5 7 57
      vertex 196.81341716182544 69.91939766255643 57
    endloop
  endfacet
  facet normal 0 0 -1
    outer loop
      vertex 196.81341716182544 69.91939766255643 57
      vertex 9.5 7 57
      vertex 194.9 70.3 57
    endloop
  endfacet
  facet normal 0 0 -1
    outer loop
      vertex 190.5 63 57
      vertex 9.5 7 57
      vertex 191.23223304703362 64.76776695296637 57
    endloop
  endfacet
  facet normal 0 0 -1
    outer loop
      vertex 9.5 7 57
      vertex 193 65.5 57
      vertex 191.23223304703362 64.76776695296637 57
    endloop
  endfacet
  facet normal 0 0 -1
    outer loop
      vertex 194.9 70.3 57
      vertex 9.5 7 57
      vertex 100 60.5 57
    endloop
  endfacet
  facet normal 0 0 -1
    outer loop
      vertex 194.9 70.3 57
      vertex 100 60.5 57
      vertex 101.76776695296637 61.23223304703363 57
    endloop
  endfacet
  facet normal 0 0 -1
    outer loop
      vertex 194.9 70.3 57
      vertex 101.76776695296637 61.23223304703363 57
      vertex 102.5 63 57
    endloop
  endfacet
  facet normal 0 0 -1
    outer loop
      vertex 194.9 70.3 57
      vertex 102.5 63 57
      vertex 101.76776695296637 64.76776695296637 57
    endloop
  endfacet
  facet normal 0 0 -1
    outer loop
      vertex 194.9 70.3 57
      vertex 101.76776695296637 64.76776695296637 57
      vertex 100 65.5 57
    endloop
  endfacet
  facet normal 0 -1 0
    outer loop
      vertex 194.9 70.3 57
      vertex 4.700000000000017 70.3 50
      vertex 194.9 70.3 50
    endloop
  endfacet
  facet normal 0 0 -1
    outer loop
      vertex 194.9 0.10000000000000009 57
      vertex 4.700000000000017 0.10000000000000009 57
      vertex 0.0806023374435938 3.1865828381745516 57
    endloop
  endfacet
  facet normal 0 0 -1
    outer loop
      vertex 9.5 7 57
      vertex 190.5 7 57
      vertex 8.767766952966383 5.232233047033631 57
    endloop
  endfacet
  facet normal 0 0 -1
    outer loop
      vertex 190.5 7 57
      vertex 7 4.5 57
      vertex 8.767766952966383 5.232233047033631 57
    endloop
  endfacet
  facet normal 0 0 -1
    outer loop
      vertex 0.0806023374435938 3.1865828381745516 57
      vertex 7 4.5 57
      vertex 190.5 7 57
    endloop
  endfacet
  facet normal 0 1 0
    outer loop
      vertex 194.9 0.10000000000000009 50
      vertex 4.700000000000017 0.10000000000000009 50
      vertex 4.700000000000017 0.10000000000000009 57
    endloop
  endfacet
  facet normal 0 0 -1
    outer loop
      vertex 4.700000000000017 0.10000000000000009 57
      vertex 2.7865828381745814 0.4806023374435662 57
      vertex 0.0806023374435938 3.1865828381745516 57
    endloop
  endfacet
  facet normal 0 0 -1
    outer loop
      vertex 2.7865828381745814 0.4806023374435662 57
      vertex 1.1644660940672793 1.564466094067262 57
      vertex 0.0806023374435938 3.1865828381745516 57
    endloop
  endfacet
  facet normal 0 0 -1
    outer loop
      vertex 0.0806023374435938 3.1865828381745516 57
      vertex 5.232233047033617 5.232233047033631 57
      vertex 7 4.5 57
    endloop
  endfacet
  facet normal 0 0 -1
    outer loop
      vertex 0.0806023374435938 3.1865828381745516 57
      vertex 4.5 7 57
      vertex 5.232233047033617 5.232233047033631 57
    endloop
  endfacet
  facet normal 0.19509032201612952 0.9807852804032303 0
    outer loop
      vertex 4.700000000000017 0.10000000000000009 57
      vertex 4.700000000000017 0.10000000000000009 50
      vertex 2.7865828381745814 0.4806023374435662 57
    endloop
  endfacet
  facet normal 0.5555702330195988 0.8314696123025473 0
    outer loop
      vertex 2.7865828381745814 0.4806023374435662 57
      vertex 2.7865828381745814 0.4806023374435662 50
      vertex 1.1644660940672793 1.564466094067262 57
    endloop
  endfacet
  facet normal 0.8314696123025479 0.5555702330195983 0
    outer loop
      vertex 1.1644660940672793 1.564466094067262 57
      vertex 1.1644660940672793 1.564466094067262 50
      vertex 0.0806023374435938 3.1865828381745516 57
    endloop
  endfacet
  facet normal 0.9807852804032293 0.19509032201613352 0
    outer loop
      vertex 0.0806023374435938 3.1865828381745516 57
      vertex 0.0806023374435938 3.1865828381745516 50
      vertex -0.29999999999998295 5.1 57
    endloop
  endfacet
  facet normal 0.19509032201612952 0.9807852804032303 0
    outer loop
      vertex 2.7865828381745814 0.4806023374435662 57
      vertex 4.700000000000017 0.10000000000000009 50
      vertex 2.7865828381745814 0.4806023374435662 50
    endloop
  endfacet
  facet normal 0.5555702330195988 0.8314696123025473 0
    outer loop
      vertex 1.1644660940672793 1.564466094067262 57
      vertex 2.7865828381745814 0.4806023374435662 50
      vertex 1.1644660940672793 1.564466094067262 50
    endloop
  endfacet
  facet normal 0.8314696123025479 0.5555702330195983 0
    outer loop
      vertex 0.0806023374435938 3.1865828381745516 57
      vertex 1.1644660940672793 1.564466094067262 50
      vertex 0.0806023374435938 3.1865828381745516 50
    endloop
  endfacet
  facet normal 0.9807852804032293 0.19509032201613352 0
    outer loop
      vertex -0.29999999999998295 5.1 57
      vertex 0.0806023374435938 3.1865828381745516 50
      vertex -0.29999999999998295 5.1 50
    endloop
  endfacet
  facet normal 0 0 -1
    outer loop
      vertex 8.767766952966383 8.767766952966369 57
      vertex 98.23223304703363 61.23223304703363 57
      vertex 9.5 7 57
    endloop
  endfacet
  facet normal 0 0 -1
    outer loop
      vertex 8.767766952966383 8.767766952966369 57
      vertex 7 9.5 57
      vertex 98.23223304703363 61.23223304703363 57
    endloop
  endfacet
  facet normal 0 0 -1
    outer loop
      vertex 0.0806023374435938 3.1865828381745516 57
      vertex 4.5 63 57
      vertex 4.5 7 57
    endloop
  endfacet
  facet normal 0 0 -1
    outer loop
      vertex 0.0806023374435938 3.1865828381745516 57
      vertex -0.29999999999998295 5.1 57
      vertex -0.29999999999998295 65.3 57
    endloop
  endfacet
  facet normal 1 0 0
    outer loop
      vertex -0.29999999999998295 5.1 57
      vertex -0.29999999999998295 5.1 50
      vertex -0.29999999999998295 65.3 57
    endloop
  endfacet
  facet normal 0 0 -1
    outer loop
      vertex 7 9.5 57
      vertex 5.232233047033617 8.767766952966369 57
      vertex 7 60.5 57
    endloop
  endfacet
  facet normal 0 0 -1
    outer loop
      vertex 4.5 7 57
      vertex 5.232233047033617 61.23223304703363 57
      vertex 5.232233047033617 8.767766952966369 57
    endloop
  endfacet
  facet normal 0 0 -1
    outer loop
      vertex 9.5 7 57
      vertex 98.23223304703363 61.23223304703363 57
      vertex 100 60.5 57
    endloop
  endfacet
  facet normal 0 0 -1
    outer loop
      vertex 194.9 70.3 57
      vertex 100 65.5 57
      vertex 4.700000000000017 70.3 57
    endloop
  endfacet
  facet normal 0 0 -1
    outer loop
      vertex 98.23223304703363 61.23223304703363 57
      vertex 9.5 63 57
      vertex 97.5 63 57
    endloop
  endfacet
  facet normal 0 0 -1
    outer loop
      vertex 97.5 63 57
      vertex 8.767766952966383 64.76776695296637 57
      vertex 98.23223304703363 64.76776695296637 57
    endloop
  endfacet
  facet normal 0 0 -1
    outer loop
      vertex 4.700000000000017 70.3 57
      vertex 100 65.5 57
      vertex 98.23223304703363 64.76776695296637 57
    endloop
  endfacet
  facet normal 0 -1 0
    outer loop
      vertex 194.9 70.3 57
      vertex 4.700000000000017 70.3 57
      vertex 4.700000000000017 70.3 50
    endloop
  endfacet
  facet normal 0 0 -1
    outer loop
      vertex 7 9.5 57
      vertex 8.767766952966383 61.23223304703363 57
      vertex 98.23223304703363 61.23223304703363 57
    endloop
  endfacet
  facet normal 0 0 -1
    outer loop
      vertex 7 9.5 57
      vertex 7 60.5 57
      vertex 8.767766952966383 61.23223304703363 57
    endloop
  endfacet
  facet normal 0 0 -1
    outer loop
      vertex 5.232233047033617 8.767766952966369 57
      vertex 5.232233047033617 61.23223304703363 57
      vertex 7 60.5 57
    endloop
  endfacet
  facet normal 0 0 -1
    outer loop
      vertex 4.5 7 57
      vertex 4.5 63 57
      vertex 5.232233047033617 61.23223304703363 57
    endloop
  endfacet
  facet normal 0 0 -1
    outer loop
      vertex 0.0806023374435938 3.1865828381745516 57
      vertex 4.700000000000017 70.3 57
      vertex 4.5 63 57
    endloop
  endfacet
  facet normal 0 0 -1
    outer loop
      vertex 0.0806023374435938 3.1865828381745516 57
      vertex 0.0806023374435938 67.21341716182545 57
      vertex 1.1644660940672793 68.83553390593273 57
    endloop
  endfacet
  facet normal 0 0 -1
    outer loop
      vertex 0.0806023374435938 3.1865828381745516 57
      vertex -0.29999999999998295 65.3 57
      vertex 0.0806023374435938 67.21341716182545 57
    endloop
  endfacet
  facet normal 0 0 -1
    outer loop
      vertex 0.0806023374435938 3.1865828381745516 57
      vertex 2.7865828381745814 69.91939766255643 57
      vertex 4.700000000000017 70.3 57
    endloop
  endfacet
  facet normal 0 0 -1
    outer loop
      vertex 0.0806023374435938 3.1865828381745516 57
      vertex 1.1644660940672793 68.83553390593273 57
      vertex 2.7865828381745814 69.91939766255643 57
    endloop
  endfacet
  facet normal 1 0 0
    outer loop
      vertex -0.29999999999998295 5.1 50
      vertex -0.29999999999998295 65.3 50
      vertex -0.29999999999998295 65.3 57
    endloop
  endfacet
  facet normal 0 0 -1
    outer loop
      vertex 98.23223304703363 61.23223304703363 57
      vertex 8.767766952966383 61.23223304703363 57
      vertex 9.5 63 57
    endloop
  endfacet
  facet normal 0 0 -1
    outer loop
      vertex 8.767766952966383 64.76776695296637 57
      vertex 97.5 63 57
      vertex 9.5 63 57
    endloop
  endfacet
  facet normal 0 0 -1
    outer loop
      vertex 4.700000000000017 70.3 57
      vertex 98.23223304703363 64.76776695296637 57
      vertex 8.767766952966383 64.76776695296637 57
    endloop
  endfacet
  facet normal 0 0 -1
    outer loop
      vertex 4.700000000000017 70.3 57
      vertex 8.767766952966383 64.76776695296637 57
      vertex 7 65.5 57
    endloop
  endfacet
  facet normal 0 0 -1
    outer loop
      vertex 4.700000000000017 70.3 57
      vertex 7 65.5 57
      vertex 5.232233047033617 64.76776695296637 57
    endloop
  endfacet
  facet normal 0 0 -1
    outer loop
      vertex 4.700000000000017 70.3 57
      vertex 5.232233047033617 64.76776695296637 57
      vertex 4.5 63 57
    endloop
  endfacet
  facet normal 0.8314696123025476 -0.5555702330195986 0
    outer loop
      vertex 0.0806023374435938 67.21341716182545 57
      vertex 0.0806023374435938 67.21341716182545 50
      vertex 1.1644660940672793 68.83553390593273 57
    endloop
  endfacet
  facet normal 0.9807852804032294 -0.19509032201613336 0
    outer loop
      vertex -0.29999999999998295 65.3 57
      vertex -0.29999999999998295 65.3 50
      vertex 0.0806023374435938 67.21341716182545 57
    endloop
  endfacet
  facet normal 0.5555702330196003 -0.8314696123025466 0
    outer loop
      vertex 1.1644660940672793 68.83553390593273 57
      vertex 1.1644660940672793 68.83553390593273 50
      vertex 2.7865828381745814 69.91939766255643 57
    endloop
  endfacet
  facet normal 0.19509032201612775 -0.9807852804032305 0
    outer loop
      vertex 4.700000000000017 70.3 57
      vertex 2.7865828381745814 69.91939766255643 57
      vertex 2.7865828381745814 69.91939766255643 50
    endloop
  endfacet
  facet normal 0.9807852804032294 -0.19509032201613336 0
    outer loop
      vertex 0.0806023374435938 67.21341716182545 57
      vertex -0.29999999999998295 65.3 50
      vertex 0.0806023374435938 67.21341716182545 50
    endloop
  endfacet
  facet normal 0.19509032201612775 -0.9807852804032305 0
    outer loop
      vertex 4.700000000000017 70.3 57
      vertex 2.7865828381745814 69.91939766255643 50
      vertex 4.700000000000017 70.3 50
    endloop
  endfacet
  facet normal 0.8314696123025476 -0.5555702330195986 0
    outer loop
      vertex 1.1644660940672793 68.83553390593273 57
      vertex 0.0806023374435938 67.21341716182545 50
      vertex 1.1644660940672793 68.83553390593273 50
    endloop
  endfacet
  facet normal 0.5555702330196003 -0.8314696123025466 0
    outer loop
      vertex 2.7865828381745814 69.91939766255643 57
      vertex 1.1644660940672793 68.83553390593273 50
      vertex 2.7865828381745814 69.91939766255643 50
    endloop
  endfacet
  facet normal -0.3826834323650871 0.9238795325112878 0
    outer loop
      vertex 194.76776695296638 5.232233047033631 57
      vertex 193 4.5 64
      vertex 194.76776695296638 5.232233047033631 64
    endloop
  endfacet
  facet normal -0.9238795325112894 0.3826834323650834 0
    outer loop
      vertex 194.76776695296638 5.232233047033631 64
      vertex 195.5 7 64
      vertex 195.5 7 57
    endloop
  endfacet
  facet normal 0.3826834323650871 0.9238795325112878 0
    outer loop
      vertex 193 4.5 64
      vertex 193 4.5 57
      vertex 191.23223304703362 5.232233047033631 64
    endloop
  endfacet
  facet normal 0.9238795325112894 0.3826834323650834 0
    outer loop
      vertex 191.23223304703362 5.232233047033631 64
      vertex 191.23223304703362 5.232233047033631 57
      vertex 190.5 7 64
    endloop
  endfacet
  facet normal -0.9238795325112894 -0.3826834323650834 0
    outer loop
      vertex 195.5 7 64
      vertex 194.76776695296638 8.767766952966369 64
      vertex 194.76776695296638 8.767766952966369 57
    endloop
  endfacet
  facet normal 0.9238795325112894 -0.3826834323650834 0
    outer loop
      vertex 191.23223304703362 8.767766952966369 64
      vertex 190.5 7 64
      vertex 190.5 7 57
    endloop
  endfacet
  facet normal -0.3826834323650871 -0.9238795325112878 0
    outer loop
      vertex 193 9.5 64
      vertex 193 9.5 57
      vertex 194.76776695296638 8.767766952966369 64
    endloop
  endfacet
  facet normal 0.3826834323650871 -0.9238795325112878 0
    outer loop
      vertex 191.23223304703362 8.767766952966369 64
      vertex 191.23223304703362 8.767766952966369 57
      vertex 193 9.5 64
    endloop
  endfacet
  facet normal -0.3826834323650871 0.9238795325112878 0
    outer loop
      vertex 193 4.5 64
      vertex 194.76776695296638 5.232233047033631 57
      vertex 193 4.5 57
    endloop
  endfacet
  facet normal -0.9238795325112894 0.3826834323650834 0
    outer loop
      vertex 194.76776695296638 5.232233047033631 64
      vertex 195.5 7 57
      vertex 194.76776695296638 5.232233047033631 57
    endloop
  endfacet
  facet normal 0.3826834323650871 0.9238795325112878 0
    outer loop
      vertex 193 4.5 57
      vertex 191.23223304703362 5.232233047033631 57
      vertex 191.23223304703362 5.232233047033631 64
    endloop
  endfacet
  facet normal 0.9238795325112894 0.3826834323650834 0
    outer loop
      vertex 190.5 7 64
      vertex 191.23223304703362 5.232233047033631 57
      vertex 190.5 7 57
    endloop
  endfacet
  facet normal -0.9238795325112894 -0.3826834323650834 0
    outer loop
      vertex 195.5 7 64
      vertex 194.76776695296638 8.767766952966369 57
      vertex 195.5 7 57
    endloop
  endfacet
  facet normal 0.9238795325112894 -0.3826834323650834 0
    outer loop
      vertex 191.23223304703362 8.767766952966369 64
      vertex 190.5 7 57
      vertex 191.23223304703362 8.767766952966369 57
    endloop
  endfacet
  facet normal -0.3826834323650871 -0.9238795325112878 0
    outer loop
      vertex 194.76776695296638 8.767766952966369 64
      vertex 193 9.5 57
      vertex 194.76776695296638 8.767766952966369 57
    endloop
  endfacet
  facet normal 0.3826834323650871 -0.9238795325112878 0
    outer loop
      vertex 193 9.5 64
      vertex 191.23223304703362 8.767766952966369 57
      vertex 193 9.5 57
    endloop
  endfacet
  facet normal -0.3826834323650871 0.9238795325112878 0
    outer loop
      vertex 7 4.5 64
      vertex 8.767766952966383 5.232233047033631 64
      vertex 8.767766952966383 5.232233047033631 57
    endloop
  endfacet
  facet normal -0.9238795325112894 0.3826834323650834 0
    outer loop
      vertex 9.5 7 57
      vertex 8.767766952966383 5.232233047033631 64
      vertex 9.5 7 64
    endloop
  endfacet
  facet normal 0.3826834323650871 0.9238795325112878 0
    outer loop
      vertex 7 4.5 57
      vertex 5.232233047033617 5.232233047033631 64
      vertex 7 4.5 64
    endloop
  endfacet
  facet normal 0.9238795325112894 0.3826834323650834 0
    outer loop
      vertex 5.232233047033617 5.232233047033631 64
      vertex 5.232233047033617 5.232233047033631 57
      vertex 4.5 7 64
    endloop
  endfacet
  facet normal -0.9238795325112894 -0.3826834323650834 0
    outer loop
      vertex 9.5 7 64
      vertex 8.767766952966383 8.767766952966369 64
      vertex 8.767766952966383 8.767766952966369 57
    endloop
  endfacet
  facet normal 0.9238795325112894 -0.3826834323650834 0
    outer loop
      vertex 5.232233047033617 8.767766952966369 64
      vertex 4.5 7 64
      vertex 4.5 7 57
    endloop
  endfacet
  facet normal -0.3826834323650871 -0.9238795325112878 0
    outer loop
      vertex 7 9.5 64
      vertex 7 9.5 57
      vertex 8.767766952966383 8.767766952966369 64
    endloop
  endfacet
  facet normal 0.3826834323650871 -0.9238795325112878 0
    outer loop
      vertex 5.232233047033617 8.767766952966369 64
      vertex 5.232233047033617 8.767766952966369 57
      vertex 7 9.5 64
    endloop
  endfacet
  facet normal -0.3826834323650871 0.9238795325112878 0
    outer loop
      vertex 7 4.5 57
      vertex 7 4.5 64
      vertex 8.767766952966383 5.232233047033631 57
    endloop
  endfacet
  facet normal -0.9238795325112894 0.3826834323650834 0
    outer loop
      vertex 9.5 7 57
      vertex 8.767766952966383 5.232233047033631 57
      vertex 8.767766952966383 5.232233047033631 64
    endloop
  endfacet
  facet normal 0.3826834323650871 0.9238795325112878 0
    outer loop
      vertex 7 4.5 57
      vertex 5.232233047033617 5.232233047033631 57
      vertex 5.232233047033617 5.232233047033631 64
    endloop
  endfacet
  facet normal 0.9238795325112894 0.3826834323650834 0
    outer loop
      vertex 4.5 7 64
      vertex 5.232233047033617 5.232233047033631 57
      vertex 4.5 7 57
    endloop
  endfacet
  facet normal -0.9238795325112894 -0.3826834323650834 0
    outer loop
      vertex 9.5 7 64
      vertex 8.767766952966383 8.767766952966369 57
      vertex 9.5 7 57
    endloop
  endfacet
  facet normal 0.9238795325112894 -0.3826834323650834 0
    outer loop
      vertex 5.232233047033617 8.767766952966369 64
      vertex 4.5 7 57
      vertex 5.232233047033617 8.767766952966369 57
    endloop
  endfacet
  facet normal -0.3826834323650871 -0.9238795325112878 0
    outer loop
      vertex 8.767766952966383 8.767766952966369 64
      vertex 7 9.5 57
      vertex 8.767766952966383 8.767766952966369 57
    endloop
  endfacet
  facet normal 0.3826834323650871 -0.9238795325112878 0
    outer loop
      vertex 7 9.5 64
      vertex 5.232233047033617 8.767766952966369 57
      vertex 7 9.5 57
    endloop
  endfacet
  facet normal -0.3826834323650871 0.9238795325112878 0
    outer loop
      vertex 7 60.5 64
      vertex 8.767766952966383 61.23223304703363 64
      vertex 8.767766952966383 61.23223304703363 57
    endloop
  endfacet
  facet normal 0.3826834323650871 0.9238795325112878 0
    outer loop
      vertex 7 60.5 64
      vertex 7 60.5 57
      vertex 5.232233047033617 61.23223304703363 64
    endloop
  endfacet
  facet normal -0.9238795325112894 0.3826834323650834 0
    outer loop
      vertex 8.767766952966383 61.23223304703363 64
      vertex 9.5 63 64
      vertex 9.5 63 57
    endloop
  endfacet
  facet normal 0.9238795325112894 0.3826834323650834 0
    outer loop
      vertex 5.232233047033617 61.23223304703363 64
      vertex 5.232233047033617 61.23223304703363 57
      vertex 4.5 63 64
    endloop
  endfacet
  facet normal -0.9238795325112894 -0.3826834323650834 0
    outer loop
      vertex 9.5 63 64
      vertex 8.767766952966383 64.76776695296637 64
      vertex 8.767766952966383 64.76776695296637 57
    endloop
  endfacet
  facet normal -0.3826834323650871 -0.9238795325112878 0
    outer loop
      vertex 7 65.5 64
      vertex 7 65.5 57
      vertex 8.767766952966383 64.76776695296637 64
    endloop
  endfacet
  facet normal 0.9238795325112894 -0.3826834323650834 0
    outer loop
      vertex 5.232233047033617 64.76776695296637 64
      vertex 4.5 63 64
      vertex 4.5 63 57
    endloop
  endfacet
  facet normal 0.3826834323650871 -0.9238795325112878 0
    outer loop
      vertex 5.232233047033617 64.76776695296637 64
      vertex 5.232233047033617 64.76776695296637 57
      vertex 7 65.5 64
    endloop
  endfacet
  facet normal -0.3826834323650871 0.9238795325112878 0
    outer loop
      vertex 7 60.5 64
      vertex 8.767766952966383 61.23223304703363 57
      vertex 7 60.5 57
    endloop
  endfacet
  facet normal 0.3826834323650871 0.9238795325112878 0
    outer loop
      vertex 5.232233047033617 61.23223304703363 64
      vertex 7 60.5 57
      vertex 5.232233047033617 61.23223304703363 57
    endloop
  endfacet
  facet normal -0.9238795325112894 0.3826834323650834 0
    outer loop
      vertex 8.767766952966383 61.23223304703363 64
      vertex 9.5 63 57
      vertex 8.767766952966383 61.23223304703363 57
    endloop
  endfacet
  facet normal 0.9238795325112894 0.3826834323650834 0
    outer loop
      vertex 4.5 63 64
      vertex 5.232233047033617 61.23223304703363 57
      vertex 4.5 63 57
    endloop
  endfacet
  facet normal -0.9238795325112894 -0.3826834323650834 0
    outer loop
      vertex 9.5 63 64
      vertex 8.767766952966383 64.76776695296637 57
      vertex 9.5 63 57
    endloop
  endfacet
  facet normal -0.3826834323650871 -0.9238795325112878 0
    outer loop
      vertex 8.767766952966383 64.76776695296637 64
      vertex 7 65.5 57
      vertex 8.767766952966383 64.76776695296637 57
    endloop
  endfacet
  facet normal 0.9238795325112894 -0.3826834323650834 0
    outer loop
      vertex 5.232233047033617 64.76776695296637 64
      vertex 4.5 63 57
      vertex 5.232233047033617 64.76776695296637 57
    endloop
  endfacet
  facet normal 0.3826834323650871 -0.9238795325112878 0
    outer loop
      vertex 7 65.5 64
      vertex 5.232233047033617 64.76776695296637 57
      vertex 7 65.5 57
    endloop
  endfacet
  facet normal -0.3826834323650871 0.9238795325112878 0
    outer loop
      vertex 193 60.5 64
      vertex 194.76776695296638 61.23223304703363 64
      vertex 194.76776695296638 61.23223304703363 57
    endloop
  endfacet
  facet normal 0.3826834323650871 0.9238795325112878 0
    outer loop
      vertex 193 60.5 64
      vertex 193 60.5 57
      vertex 191.23223304703362 61.23223304703363 64
    endloop
  endfacet
  facet normal -0.9238795325112894 0.3826834323650834 0
    outer loop
      vertex 194.76776695296638 61.23223304703363 64
      vertex 195.5 63 64
      vertex 195.5 63 57
    endloop
  endfacet
  facet normal 0.9238795325112894 0.3826834323650834 0
    outer loop
      vertex 191.23223304703362 61.23223304703363 64
      vertex 191.23223304703362 61.23223304703363 57
      vertex 190.5 63 64
    endloop
  endfacet
  facet normal -0.9238795325112894 -0.3826834323650834 0
    outer loop
      vertex 195.5 63 64
      vertex 194.76776695296638 64.76776695296637 64
      vertex 194.76776695296638 64.76776695296637 57
    endloop
  endfacet
  facet normal -0.3826834323650871 -0.9238795325112878 0
    outer loop
      vertex 193 65.5 64
      vertex 193 65.5 57
      vertex 194.76776695296638 64.76776695296637 64
    endloop
  endfacet
  facet normal 0.9238795325112894 -0.3826834323650834 0
    outer loop
      vertex 191.23223304703362 64.76776695296637 64
      vertex 190.5 63 64
      vertex 190.5 63 57
    endloop
  endfacet
  facet normal 0.3826834323650871 -0.9238795325112878 0
    outer loop
      vertex 191.23223304703362 64.76776695296637 64
      vertex 191.23223304703362 64.76776695296637 57
      vertex 193 65.5 64
    endloop
  endfacet
  facet normal -0.3826834323650871 0.9238795325112878 0
    outer loop
      vertex 193 60.5 64
      vertex 194.76776695296638 61.23223304703363 57
      vertex 193 60.5 57
    endloop
  endfacet
  facet normal 0.3826834323650871 0.9238795325112878 0
    outer loop
      vertex 191.23223304703362 61.23223304703363 64
      vertex 193 60.5 57
      vertex 191.23223304703362 61.23223304703363 57
    endloop
  endfacet
  facet normal -0.9238795325112894 0.3826834323650834 0
    outer loop
      vertex 194.76776695296638 61.23223304703363 64
      vertex 195.5 63 57
      vertex 194.76776695296638 61.23223304703363 57
    endloop
  endfacet
  facet normal 0.9238795325112894 0.3826834323650834 0
    outer loop
      vertex 191.23223304703362 61.23223304703363 57
      vertex 190.5 63 57
      vertex 190.5 63 64
    endloop
  endfacet
  facet normal -0.9238795325112894 -0.3826834323650834 0
    outer loop
      vertex 194.76776695296638 64.76776695296637 57
      vertex 195.5 63 57
      vertex 195.5 63 64
    endloop
  endfacet
  facet normal -0.3826834323650871 -0.9238795325112878 0
    outer loop
      vertex 194.76776695296638 64.76776695296637 64
      vertex 193 65.5 57
      vertex 194.76776695296638 64.76776695296637 57
    endloop
  endfacet
  facet normal 0.9238795325112894 -0.3826834323650834 0
    outer loop
      vertex 190.5 63 57
      vertex 191.23223304703362 64.76776695296637 57
      vertex 191.23223304703362 64.76776695296637 64
    endloop
  endfacet
  facet normal 0.3826834323650871 -0.9238795325112878 0
    outer loop
      vertex 193 65.5 64
      vertex 191.23223304703362 64.76776695296637 57
      vertex 193 65.5 57
    endloop
  endfacet
  facet normal -0.3826834323650897 0.9238795325112868 0
    outer loop
      vertex 100 60.5 64
      vertex 101.76776695296637 61.23223304703363 64
      vertex 101.76776695296637 61.23223304703363 57
    endloop
  endfacet
  facet normal -0.9238795325112868 0.3826834323650897 0
    outer loop
      vertex 101.76776695296637 61.23223304703363 64
      vertex 102.5 63 64
      vertex 102.5 63 57
    endloop
  endfacet
  facet normal -0.9238795325112868 -0.3826834323650897 0
    outer loop
      vertex 102.5 63 64
      vertex 101.76776695296637 64.76776695296637 64
      vertex 101.76776695296637 64.76776695296637 57
    endloop
  endfacet
  facet normal -0.3826834323650897 -0.9238795325112868 0
    outer loop
      vertex 101.76776695296637 64.76776695296637 64
      vertex 100 65.5 64
      vertex 100 65.5 57
    endloop
  endfacet
  facet normal -0.3826834323650897 0.9238795325112868 0
    outer loop
      vertex 100 60.5 64
      vertex 101.76776695296637 61.23223304703363 57
      vertex 100 60.5 57
    endloop
  endfacet
  facet normal -0.9238795325112868 0.3826834323650897 0
    outer loop
      vertex 101.76776695296637 61.23223304703363 64
      vertex 102.5 63 57
      vertex 101.76776695296637 61.23223304703363 57
    endloop
  endfacet
  facet normal -0.9238795325112868 -0.3826834323650897 0
    outer loop
      vertex 102.5 63 64
      vertex 101.76776695296637 64.76776695296637 57
      vertex 102.5 63 57
    endloop
  endfacet
  facet normal -0.3826834323650897 -0.9238795325112868 0
    outer loop
      vertex 100 65.5 57
      vertex 101.76776695296637 64.76776695296637 57
      vertex 101.76776695296637 64.76776695296637 64
    endloop
  endfacet
  facet normal 0.3826834323650897 0.9238795325112868 0
    outer loop
      vertex 100 60.5 64
      vertex 100 60.5 57
      vertex 98.23223304703363 61.23223304703363 64
    endloop
  endfacet
  facet normal 0.9238795325112868 0.3826834323650897 0
    outer loop
      vertex 98.23223304703363 61.23223304703363 64
      vertex 98.23223304703363 61.23223304703363 57
      vertex 97.5 63 64
    endloop
  endfacet
  facet normal 0.9238795325112868 -0.3826834323650897 0
    outer loop
      vertex 98.23223304703363 64.76776695296637 64
      vertex 97.5 63 64
      vertex 97.5 63 57
    endloop
  endfacet
  facet normal 0.3826834323650897 -0.9238795325112868 0
    outer loop
      vertex 98.23223304703363 64.76776695296637 64
      vertex 98.23223304703363 64.76776695296637 57
      vertex 100 65.5 64
    endloop
  endfacet
  facet normal 0.3826834323650897 0.9238795325112868 0
    outer loop
      vertex 98.23223304703363 61.23223304703363 64
      vertex 100 60.5 57
      vertex 98.23223304703363 61.23223304703363 57
    endloop
  endfacet
  facet normal 0.9238795325112868 0.3826834323650897 0
    outer loop
      vertex 97.5 63 64
      vertex 98.23223304703363 61.23223304703363 57
      vertex 97.5 63 57
    endloop
  endfacet
  facet normal 0.9238795325112868 -0.3826834323650897 0
    outer loop
      vertex 98.23223304703363 64.76776695296637 64
      vertex 97.5 63 57
      vertex 98.23223304703363 64.76776695296637 57
    endloop
  endfacet
  facet normal 0.3826834323650897 -0.9238795325112868 0
    outer loop
      vertex 100 65.5 64
      vertex 98.23223304703363 64.76776695296637 57
      vertex 100 65.5 57
    endloop
  endfacet
endsolid OpenSCAD_Model
