solid OpenSCAD_Model
  facet normal 0 -1 0
    outer loop
      vertex 0 0 0
      vertex 2.966666666666667 0 0
      vertex 1 0 5.9
    endloop
  endfacet
  facet normal 0 -1 0
    outer loop
      vertex 0 0 0
      vertex 1 0 5.9
      vertex 0 0 12
    endloop
  endfacet
  facet normal 0 0 -1
    outer loop
      vertex 0 0 0
      vertex 0 50 0
      vertex 2.966666666666667 0 0
    endloop
  endfacet
  facet normal -1 0 0
    outer loop
      vertex 0 0 0
      vertex 0 0 12
      vertex 0 50 12
    endloop
  endfacet
  facet normal 0 -1 0
    outer loop
      vertex 0 0 12
      vertex 1 0 5.9
      vertex 11 0 5.9
    endloop
  endfacet
  facet normal 0 0 1
    outer loop
      vertex 0 0 12
      vertex 12 0 12
      vertex 0 50 12
    endloop
  endfacet
  facet normal 0 0 -1
    outer loop
      vertex 0 50 0
      vertex 2.966666666666667 50 0
      vertex 2.966666666666667 0 0
    endloop
  endfacet
  facet normal -1 0 0
    outer loop
      vertex 0 0 0
      vertex 0 50 12
      vertex 0 50 0
    endloop
  endfacet
  facet normal 0 1 0
    outer loop
      vertex 0 50 0
      vertex 1 50 5.9
      vertex 2.966666666666667 50 0
    endloop
  endfacet
  facet normal 0 1 0
    outer loop
      vertex 0 50 0
      vertex 0 50 12
      vertex 1 50 5.9
    endloop
  endfacet
  facet normal 0 1 0
    outer loop
      vertex 0 50 12
      vertex 12 50 12
      vertex 1 50 5.9
    endloop
  endfacet
  facet normal 0 -1 0
    outer loop
      vertex 12 0 0
      vertex 11 0 5.9
      vertex 9.033333333333333 0 0
    endloop
  endfacet
  facet normal 0 -1 0
    outer loop
      vertex 12 0 0
      vertex 12 0 12
      vertex 11 0 5.9
    endloop
  endfacet
  facet normal 0 0 -1
    outer loop
      vertex 12 0 0
      vertex 9.033333333333333 0 0
      vertex 9.033333333333333 50 0
    endloop
  endfacet
  facet normal 1 0 0
    outer loop
      vertex 12 0 0
      vertex 12 50 0
      vertex 12 0 12
    endloop
  endfacet
  facet normal 0 -1 0
    outer loop
      vertex 0 0 12
      vertex 11 0 5.9
      vertex 12 0 12
    endloop
  endfacet
  facet normal 0 0 -1
    outer loop
      vertex 12 0 0
      vertex 9.033333333333333 50 0
      vertex 12 50 0
    endloop
  endfacet
  facet normal 0 1 0
    outer loop
      vertex 12 50 0
      vertex 9.033333333333333 50 0
      vertex 11 50 5.9
    endloop
  endfacet
  facet normal 0 1 0
    outer loop
      vertex 12 50 0
      vertex 11 50 5.9
      vertex 12 50 12
    endloop
  endfacet
  facet normal 0 0 1
    outer loop
      vertex 0 50 12
      vertex 12 0 12
      vertex 12 50 12
    endloop
  endfacet
  facet normal 0 1 0
    outer loop
      vertex 12 50 12
      vertex 11 50 5.9
      vertex 1 50 5.9
    endloop
  endfacet
  facet normal 1 0 0
    outer loop
      vertex 12 0 12
      vertex 12 50 0
      vertex 12 50 12
    endloop
  endfacet
  facet normal 0.9486832980505138 0 0.316227766016838
    outer loop
      vertex 2.966666666666667 0 0
      vertex 2.966666666666667 50 0
      vertex 1 0 5.9
    endloop
  endfacet
  facet normal 0 0 -1
    outer loop
      vertex 11 0 5.9
      vertex 1 0 5.9
      vertex 1 50 5.9
    endloop
  endfacet
  facet normal 0.9486832980505138 0 0.316227766016838
    outer loop
      vertex 1 0 5.9
      vertex 2.966666666666667 50 0
      vertex 1 50 5.9
    endloop
  endfacet
  facet normal -0.9486832980505138 0 0.316227766016838
    outer loop
      vertex 9.033333333333333 0 0
      vertex 11 0 5.9
      vertex 11 50 5.9
    endloop
  endfacet
  facet normal 0 0 -1
    outer loop
      vertex 1 50 5.9
      vertex 11 50 5.9
      vertex 11 0 5.9
    endloop
  endfacet
  facet normal -0.9486832980505138 0 0.316227766016838
    outer loop
      vertex 9.033333333333333 50 0
      vertex 9.033333333333333 0 0
      vertex 11 50 5.9
    endloop
  endfacet
endsolid OpenSCAD_Model
