solid OpenSCAD_Model
  facet normal 0 0 -1
    outer loop
      vertex 2.527955815461821 6.6664465047059664 0
      vertex 15 0 0
      vertex 3.404843199558945 5.484100737545317 0
    endloop
  endfacet
  facet normal 0 0 -1
    outer loop
      vertex 2.527955815461821 6.6664465047059664 0
      vertex 1.7711810347746741 7.929048947610036 0
      vertex 15 0 0
    endloop
  endfacet
  facet normal 0 0 -1
    outer loop
      vertex 1.7711810347746741 7.929048947610036 0
      vertex 1.1418070123306983 9.259748514523654 0
      vertex 15 0 0
    endloop
  endfacet
  facet normal 0 0 -1
    outer loop
      vertex 0.6458949640168683 10.645729841183066 0
      vertex 15 0 0
      vertex 1.1418070123306983 9.259748514523654 0
    endloop
  endfacet
  facet normal -0.8032075314806452 -0.5956993044924331 0
    outer loop
      vertex 2.527955815461821 6.6664465047059664 0
      vertex 3.404843199558945 5.484100737545317 0
      vertex 2.527955815461821 6.6664465047059664 30
    endloop
  endfacet
  facet normal -0.5956993044924331 -0.8032075314806452 0
    outer loop
      vertex 5.484100737545317 3.404843199558945 0
      vertex 6.6664465047059664 2.527955815461821 0
      vertex 6.6664465047059664 2.527955815461821 30
    endloop
  endfacet
  facet normal -0.740951125354959 -0.6715589548470186 0
    outer loop
      vertex 3.404843199558945 5.484100737545317 0
      vertex 4.393398282201787 4.393398282201787 0
      vertex 3.404843199558945 5.484100737545317 30
    endloop
  endfacet
  facet normal -0.6715589548470186 -0.740951125354959 0
    outer loop
      vertex 5.484100737545317 3.404843199558945 0
      vertex 5.484100737545317 3.404843199558945 30
      vertex 4.393398282201787 4.393398282201787 0
    endloop
  endfacet
  facet normal 0 0 -1
    outer loop
      vertex 0.6458949640168683 10.645729841183066 0
      vertex 0.28822079395154354 12.073645169758077 0
      vertex 15 0 0
    endloop
  endfacet
  facet normal 0 0 -1
    outer loop
      vertex 0.28822079395154354 12.073645169758077 0
      vertex 0.0722290999170454 13.529742895056591 0
      vertex 15 0 0
    endloop
  endfacet
  facet normal -0.9039892931234433 -0.42755509343028203 0
    outer loop
      vertex 1.7711810347746741 7.929048947610036 0
      vertex 1.1418070123306983 9.259748514523654 30
      vertex 1.1418070123306983 9.259748514523654 0
    endloop
  endfacet
  facet normal -0.9415440651830213 -0.33688985339221894 0
    outer loop
      vertex 0.6458949640168683 10.645729841183066 0
      vertex 1.1418070123306983 9.259748514523654 0
      vertex 0.6458949640168683 10.645729841183066 30
    endloop
  endfacet
  facet normal -0.8577286100002721 -0.5141027441932216 0
    outer loop
      vertex 2.527955815461821 6.6664465047059664 0
      vertex 1.7711810347746741 7.929048947610036 30
      vertex 1.7711810347746741 7.929048947610036 0
    endloop
  endfacet
  facet normal -0.9700312531945439 -0.2429801799032646 0
    outer loop
      vertex 0.6458949640168683 10.645729841183066 0
      vertex 0.28822079395154354 12.073645169758077 30
      vertex 0.28822079395154354 12.073645169758077 0
    endloop
  endfacet
  facet normal -0.9891765099647808 -0.14673047445536286 0
    outer loop
      vertex 0.28822079395154354 12.073645169758077 0
      vertex 0.0722290999170454 13.529742895056591 30
      vertex 0.0722290999170454 13.529742895056591 0
    endloop
  endfacet
  facet normal 0 0 -1
    outer loop
      vertex 3.404843199558945 5.484100737545317 0
      vertex 15 0 0
      vertex 4.393398282201787 4.393398282201787 0
    endloop
  endfacet
  facet normal 0 0 -1
    outer loop
      vertex 5.484100737545317 3.404843199558945 0
      vertex 4.393398282201787 4.393398282201787 0
      vertex 15 0 0
    endloop
  endfacet
  facet normal 0 0 -1
    outer loop
      vertex 5.484100737545317 3.404843199558945 0
      vertex 15 0 0
      vertex 6.6664465047059664 2.527955815461821 0
    endloop
  endfacet
  facet normal 0 0 -1
    outer loop
      vertex 6.6664465047059664 2.527955815461821 0
      vertex 15 0 0
      vertex 7.929048947610036 1.7711810347746741 0
    endloop
  endfacet
  facet normal 0 0 -1
    outer loop
      vertex 7.929048947610036 1.7711810347746741 0
      vertex 15 0 0
      vertex 9.259748514523654 1.1418070123306983 0
    endloop
  endfacet
  facet normal 0 0 -1
    outer loop
      vertex 9.259748514523654 1.1418070123306983 0
      vertex 15 0 0
      vertex 10.645729841183066 0.6458949640168683 0
    endloop
  endfacet
  facet normal 0 0 -1
    outer loop
      vertex 10.645729841183066 0.6458949640168683 0
      vertex 15 0 0
      vertex 12.073645169758077 0.28822079395154354 0
    endloop
  endfacet
  facet normal 0 0 -1
    outer loop
      vertex 12.073645169758077 0.28822079395154354 0
      vertex 15 0 0
      vertex 13.529742895056591 0.0722290999170454 0
    endloop
  endfacet
  facet normal -0.42755509343028203 -0.9039892931234433 0
    outer loop
      vertex 7.929048947610036 1.7711810347746741 0
      vertex 9.259748514523654 1.1418070123306983 0
      vertex 9.259748514523654 1.1418070123306983 30
    endloop
  endfacet
  facet normal -0.5141027441932216 -0.8577286100002721 0
    outer loop
      vertex 6.6664465047059664 2.527955815461821 0
      vertex 7.929048947610036 1.7711810347746741 0
      vertex 7.929048947610036 1.7711810347746741 30
    endloop
  endfacet
  facet normal -0.33688985339221894 -0.9415440651830213 0
    outer loop
      vertex 9.259748514523654 1.1418070123306983 0
      vertex 10.645729841183066 0.6458949640168683 0
      vertex 10.645729841183066 0.6458949640168683 30
    endloop
  endfacet
  facet normal -0.2429801799032646 -0.9700312531945439 0
    outer loop
      vertex 10.645729841183066 0.6458949640168683 0
      vertex 12.073645169758077 0.28822079395154354 0
      vertex 12.073645169758077 0.28822079395154354 30
    endloop
  endfacet
  facet normal -0.14673047445536286 -0.9891765099647808 0
    outer loop
      vertex 12.073645169758077 0.28822079395154354 0
      vertex 13.529742895056591 0.0722290999170454 0
      vertex 13.529742895056591 0.0722290999170454 30
    endloop
  endfacet
  facet normal 0 0 -1
    outer loop
      vertex 0.0722290999170454 13.529742895056591 0
      vertex 15 15 0
      vertex 15 0 0
    endloop
  endfacet
  facet normal -0.8577286100002721 -0.5141027441932216 0
    outer loop
      vertex 2.527955815461821 6.6664465047059664 0
      vertex 2.527955815461821 6.6664465047059664 30
      vertex 1.7711810347746741 7.929048947610036 30
    endloop
  endfacet
  facet normal -0.8032075314806452 -0.5956993044924331 0
    outer loop
      vertex 3.404843199558945 5.484100737545317 0
      vertex 3.404843199558945 5.484100737545317 30
      vertex 2.527955815461821 6.6664465047059664 30
    endloop
  endfacet
  facet normal -0.5956993044924331 -0.8032075314806452 0
    outer loop
      vertex 5.484100737545317 3.404843199558945 0
      vertex 6.6664465047059664 2.527955815461821 30
      vertex 5.484100737545317 3.404843199558945 30
    endloop
  endfacet
  facet normal -0.5141027441932216 -0.8577286100002721 0
    outer loop
      vertex 6.6664465047059664 2.527955815461821 0
      vertex 7.929048947610036 1.7711810347746741 30
      vertex 6.6664465047059664 2.527955815461821 30
    endloop
  endfacet
  facet normal -0.740951125354959 -0.6715589548470186 0
    outer loop
      vertex 4.393398282201787 4.393398282201787 0
      vertex 4.393398282201787 4.393398282201787 30
      vertex 3.404843199558945 5.484100737545317 30
    endloop
  endfacet
  facet normal -0.6715589548470186 -0.740951125354959 0
    outer loop
      vertex 4.393398282201787 4.393398282201787 0
      vertex 5.484100737545317 3.404843199558945 30
      vertex 4.393398282201787 4.393398282201787 30
    endloop
  endfacet
  facet normal 0 0 1
    outer loop
      vertex 5.484100737545317 3.404843199558945 30
      vertex 6.6664465047059664 2.527955815461821 30
      vertex 0 15 30
    endloop
  endfacet
  facet normal 0 0 1
    outer loop
      vertex 6.6664465047059664 2.527955815461821 30
      vertex 4.190895040066913 7.777586970745172 30
      vertex 3.535023563471384 8.87184242126203 30
    endloop
  endfacet
  facet normal 0 0 1
    outer loop
      vertex 6.6664465047059664 2.527955815461821 30
      vertex 7.929048947610036 1.7711810347746741 30
      vertex 4.190895040066913 7.777586970745172 30
    endloop
  endfacet
  facet normal 0 0 1
    outer loop
      vertex 7.929048947610036 1.7711810347746741 30
      vertex 4.950864106284419 6.752887305872608 30
      vertex 4.190895040066913 7.777586970745172 30
    endloop
  endfacet
  facet normal 0 0 1
    outer loop
      vertex 7.929048947610036 1.7711810347746741 30
      vertex 5.807611844574881 5.807611844574881 30
      vertex 4.950864106284419 6.752887305872608 30
    endloop
  endfacet
  facet normal -0.9039892931234433 -0.42755509343028203 0
    outer loop
      vertex 1.7711810347746741 7.929048947610036 0
      vertex 1.7711810347746741 7.929048947610036 30
      vertex 1.1418070123306983 9.259748514523654 30
    endloop
  endfacet
  facet normal -0.9415440651830213 -0.33688985339221894 0
    outer loop
      vertex 1.1418070123306983 9.259748514523654 0
      vertex 1.1418070123306983 9.259748514523654 30
      vertex 0.6458949640168683 10.645729841183066 30
    endloop
  endfacet
  facet normal -0.9700312531945439 -0.2429801799032646 0
    outer loop
      vertex 0.6458949640168683 10.645729841183066 0
      vertex 0.6458949640168683 10.645729841183066 30
      vertex 0.28822079395154354 12.073645169758077 30
    endloop
  endfacet
  facet normal -0.9891765099647808 -0.14673047445536286 0
    outer loop
      vertex 0.28822079395154354 12.073645169758077 0
      vertex 0.28822079395154354 12.073645169758077 30
      vertex 0.0722290999170454 13.529742895056591 30
    endloop
  endfacet
  facet normal -0.9987954562051724 -0.049067674327417134 0
    outer loop
      vertex 0.0722290999170454 13.529742895056591 0
      vertex 0.0722290999170454 13.529742895056591 30
      vertex 0 15 30
    endloop
  endfacet
  facet normal 0 0 1
    outer loop
      vertex 2.527955815461821 6.6664465047059664 30
      vertex 0 15 30
      vertex 1.7711810347746741 7.929048947610036 30
    endloop
  endfacet
  facet normal 0 0 1
    outer loop
      vertex 1.7711810347746741 7.929048947610036 30
      vertex 0 15 30
      vertex 1.1418070123306983 9.259748514523654 30
    endloop
  endfacet
  facet normal 0 0 1
    outer loop
      vertex 2.527955815461821 6.6664465047059664 30
      vertex 3.404843199558945 5.484100737545317 30
      vertex 0 15 30
    endloop
  endfacet
  facet normal 0 0 1
    outer loop
      vertex 3.404843199558945 5.484100737545317 30
      vertex 4.393398282201787 4.393398282201787 30
      vertex 0 15 30
    endloop
  endfacet
  facet normal 0 0 1
    outer loop
      vertex 5.484100737545317 3.404843199558945 30
      vertex 0 15 30
      vertex 4.393398282201787 4.393398282201787 30
    endloop
  endfacet
  facet normal 0 0 1
    outer loop
      vertex 6.6664465047059664 2.527955815461821 30
      vertex 3.535023563471384 8.87184242126203 30
      vertex 0 15 30
    endloop
  endfacet
  facet normal 0 0 1
    outer loop
      vertex 0.6458949640168683 10.645729841183066 30
      vertex 1.1418070123306983 9.259748514523654 30
      vertex 0 15 30
    endloop
  endfacet
  facet normal 0 0 1
    outer loop
      vertex 0.6458949640168683 10.645729841183066 30
      vertex 0 15 30
      vertex 0.28822079395154354 12.073645169758077 30
    endloop
  endfacet
  facet normal 0 0 1
    outer loop
      vertex 0.28822079395154354 12.073645169758077 30
      vertex 0 15 30
      vertex 0.0722290999170454 13.529742895056591 30
    endloop
  endfacet
  facet normal 0 0 1
    outer loop
      vertex 0 15 30
      vertex 2.5597756354812855 11.22629919569199 30
      vertex 2.2497913547580044 12.463825813790333 30
    endloop
  endfacet
  facet normal 0 0 1
    outer loop
      vertex 0 15 30
      vertex 2.2497913547580044 12.463825813790333 30
      vertex 2.0625985532614397 13.725777175715713 30
    endloop
  endfacet
  facet normal 0 0 1
    outer loop
      vertex 0 15 30
      vertex 3.535023563471384 8.87184242126203 30
      vertex 2.989566077353272 10.025115379253833 30
    endloop
  endfacet
  facet normal 0 0 1
    outer loop
      vertex 0 15 30
      vertex 2.989566077353272 10.025115379253833 30
      vertex 2.5597756354812855 11.22629919569199 30
    endloop
  endfacet
  facet normal -0.42755509343028203 -0.9039892931234433 0
    outer loop
      vertex 7.929048947610036 1.7711810347746741 0
      vertex 9.259748514523654 1.1418070123306983 30
      vertex 7.929048947610036 1.7711810347746741 30
    endloop
  endfacet
  facet normal -0.33688985339221894 -0.9415440651830213 0
    outer loop
      vertex 9.259748514523654 1.1418070123306983 0
      vertex 10.645729841183066 0.6458949640168683 30
      vertex 9.259748514523654 1.1418070123306983 30
    endloop
  endfacet
  facet normal -0.2429801799032646 -0.9700312531945439 0
    outer loop
      vertex 10.645729841183066 0.6458949640168683 0
      vertex 12.073645169758077 0.28822079395154354 30
      vertex 10.645729841183066 0.6458949640168683 30
    endloop
  endfacet
  facet normal -0.14673047445536286 -0.9891765099647808 0
    outer loop
      vertex 12.073645169758077 0.28822079395154354 0
      vertex 13.529742895056591 0.0722290999170454 30
      vertex 12.073645169758077 0.28822079395154354 30
    endloop
  endfacet
  facet normal -0.049067674327417134 -0.9987954562051724 0
    outer loop
      vertex 13.529742895056591 0.0722290999170454 0
      vertex 15 0 30
      vertex 13.529742895056591 0.0722290999170454 30
    endloop
  endfacet
  facet normal 0 0 1
    outer loop
      vertex 7.929048947610036 1.7711810347746741 30
      vertex 9.259748514523654 1.1418070123306983 30
      vertex 5.807611844574881 5.807611844574881 30
    endloop
  endfacet
  facet normal 0 0 1
    outer loop
      vertex 9.259748514523654 1.1418070123306983 30
      vertex 7.777586970745172 4.190895040066913 30
      vertex 6.752887305872608 4.950864106284419 30
    endloop
  endfacet
  facet normal 0 0 1
    outer loop
      vertex 10.645729841183066 0.6458949640168683 30
      vertex 12.073645169758077 0.28822079395154354 30
      vertex 8.87184242126203 3.535023563471384 30
    endloop
  endfacet
  facet normal 0 0 1
    outer loop
      vertex 9.259748514523654 1.1418070123306983 30
      vertex 10.645729841183066 0.6458949640168683 30
      vertex 7.777586970745172 4.190895040066913 30
    endloop
  endfacet
  facet normal 0 0 1
    outer loop
      vertex 10.645729841183066 0.6458949640168683 30
      vertex 8.87184242126203 3.535023563471384 30
      vertex 7.777586970745172 4.190895040066913 30
    endloop
  endfacet
  facet normal 0 0 1
    outer loop
      vertex 12.073645169758077 0.28822079395154354 30
      vertex 10.025115379253833 2.989566077353272 30
      vertex 8.87184242126203 3.535023563471384 30
    endloop
  endfacet
  facet normal 0 0 1
    outer loop
      vertex 9.259748514523654 1.1418070123306983 30
      vertex 6.752887305872608 4.950864106284419 30
      vertex 5.807611844574881 5.807611844574881 30
    endloop
  endfacet
  facet normal 0 0 1
    outer loop
      vertex 12.073645169758077 0.28822079395154354 30
      vertex 13.529742895056591 0.0722290999170454 30
      vertex 11.22629919569199 2.5597756354812855 30
    endloop
  endfacet
  facet normal 0 0 1
    outer loop
      vertex 13.529742895056591 0.0722290999170454 30
      vertex 12.463825813790333 2.2497913547580044 30
      vertex 11.22629919569199 2.5597756354812855 30
    endloop
  endfacet
  facet normal 0 0 1
    outer loop
      vertex 12.073645169758077 0.28822079395154354 30
      vertex 11.22629919569199 2.5597756354812855 30
      vertex 10.025115379253833 2.989566077353272 30
    endloop
  endfacet
  facet normal 0 0 1
    outer loop
      vertex 13.529742895056591 0.0722290999170454 30
      vertex 15 0 30
      vertex 12.463825813790333 2.2497913547580044 30
    endloop
  endfacet
  facet normal 0 0 1
    outer loop
      vertex 15 0 30
      vertex 15 0.010484278978375523 30
      vertex 12.463825813790333 2.2497913547580044 30
    endloop
  endfacet
  facet normal 0 0 1
    outer loop
      vertex 15 0.010484278978375523 30
      vertex 13.725777175715713 2.0625985532614397 30
      vertex 12.463825813790333 2.2497913547580044 30
    endloop
  endfacet
  facet normal 0 0 -1
    outer loop
      vertex 0.0722290999170454 13.529742895056591 0
      vertex 0 15 0
      vertex 15 15 0
    endloop
  endfacet
  facet normal -0.9987954562051724 -0.049067674327417134 0
    outer loop
      vertex 0.0722290999170454 13.529742895056591 0
      vertex 0 15 30
      vertex 0 15 0
    endloop
  endfacet
  facet normal 0 0 1
    outer loop
      vertex 0 15 30
      vertex 2.0625985532614397 13.725777175715713 30
      vertex 2 15 30
    endloop
  endfacet
  facet normal -0.049067674327417134 -0.9987954562051724 0
    outer loop
      vertex 13.529742895056591 0.0722290999170454 0
      vertex 15 0 0
      vertex 15 0 30
    endloop
  endfacet
  facet normal 0 0 1
    outer loop
      vertex 15 0.010484278978375523 30
      vertex 15 2 30
      vertex 13.725777175715713 2.0625985532614397 30
    endloop
  endfacet
  facet normal 0 0 1
    outer loop
      vertex 15 0.010484278978375523 30
      vertex 15.001328220905801 2 30
      vertex 15 2 30
    endloop
  endfacet
  facet normal -1 0 0
    outer loop
      vertex 0 15 0
      vertex 0 29 30
      vertex 0 29 0
    endloop
  endfacet
  facet normal 0 0 -1
    outer loop
      vertex 0 15 0
      vertex 0 29 0
      vertex 29 29 0
    endloop
  endfacet
  facet normal 0 1 0
    outer loop
      vertex 0 29 0
      vertex 0 29 30
      vertex 29 29 0
    endloop
  endfacet
  facet normal -1 0 0
    outer loop
      vertex 0 15 0
      vertex 0 15 30
      vertex 0 29 30
    endloop
  endfacet
  facet normal 0 0 1
    outer loop
      vertex 0 15 30
      vertex 2 15 30
      vertex 2 27 30
    endloop
  endfacet
  facet normal 0 0 1
    outer loop
      vertex 0 15 30
      vertex 2 27 30
      vertex 0 29 30
    endloop
  endfacet
  facet normal 0 0 1
    outer loop
      vertex 0 29 30
      vertex 2 27 30
      vertex 27 27 30
    endloop
  endfacet
  facet normal 0 0 -1
    outer loop
      vertex 0 15 0
      vertex 29 29 0
      vertex 15 15 0
    endloop
  endfacet
  facet normal 0 0 -1
    outer loop
      vertex 15 15 0
      vertex 29 29 0
      vertex 29 15 0
    endloop
  endfacet
  facet normal 1 0 0
    outer loop
      vertex 29 15 0
      vertex 29 29 0
      vertex 29 15 30
    endloop
  endfacet
  facet normal 0 1 0
    outer loop
      vertex 0 29 30
      vertex 29 29 30
      vertex 29 29 0
    endloop
  endfacet
  facet normal 0 0 1
    outer loop
      vertex 0 29 30
      vertex 27 27 30
      vertex 29 29 30
    endloop
  endfacet
  facet normal 0 0 1
    outer loop
      vertex 29 15 30
      vertex 27 27 30
      vertex 27 15 30
    endloop
  endfacet
  facet normal 1 0 0
    outer loop
      vertex 29 29 0
      vertex 29 29 30
      vertex 29 15 30
    endloop
  endfacet
  facet normal 0 0 1
    outer loop
      vertex 29 15 30
      vertex 29 29 30
      vertex 27 27 30
    endloop
  endfacet
  facet normal 0 0 -1
    outer loop
      vertex 15 0 0
      vertex 15 15 0
      vertex 29 15 0
    endloop
  endfacet
  facet normal 0 0 -1
    outer loop
      vertex 15 0 0
      vertex 29 15 0
      vertex 29 0 0
    endloop
  endfacet
  facet normal 0 -1 0
    outer loop
      vertex 15 0 0
      vertex 29 0 0
      vertex 29 0 30
    endloop
  endfacet
  facet normal 1 0 0
    outer loop
      vertex 29 0 0
      vertex 29 15 0
      vertex 29 0 30
    endloop
  endfacet
  facet normal 0 -1 0
    outer loop
      vertex 15 0 0
      vertex 29 0 30
      vertex 15 0 30
    endloop
  endfacet
  facet normal 0 0 1
    outer loop
      vertex 15 0 30
      vertex 29 0 30
      vertex 15 0.010484278978375523 30
    endloop
  endfacet
  facet normal 0 0 1
    outer loop
      vertex 15 0.010484278978375523 30
      vertex 29 0 30
      vertex 15.001328220905801 2 30
    endloop
  endfacet
  facet normal 0 0 1
    outer loop
      vertex 29 0 30
      vertex 27 2 30
      vertex 15.001328220905801 2 30
    endloop
  endfacet
  facet normal 0 0 1
    outer loop
      vertex 29 0 30
      vertex 29 15 30
      vertex 27 2 30
    endloop
  endfacet
  facet normal 1 0 0
    outer loop
      vertex 29 0 30
      vertex 29 15 0
      vertex 29 15 30
    endloop
  endfacet
  facet normal 0 0 1
    outer loop
      vertex 29 15 30
      vertex 27 15 30
      vertex 27 2 30
    endloop
  endfacet
  facet normal 0 0 1
    outer loop
      vertex 3.535023563471384 8.87184242126203 18
      vertex 15 2 18
      vertex 2.989566077353272 10.025115379253833 18
    endloop
  endfacet
  facet normal 0.7409511253549598 0.6715589548470176 0
    outer loop
      vertex 4.950864106284419 6.752887305872608 18
      vertex 4.950864106284419 6.752887305872608 30
      vertex 5.807611844574881 5.807611844574881 18
    endloop
  endfacet
  facet normal 0.5956993044924322 0.8032075314806457 0
    outer loop
      vertex 6.752887305872608 4.950864106284419 18
      vertex 6.752887305872608 4.950864106284419 30
      vertex 7.777586970745172 4.190895040066913 18
    endloop
  endfacet
  facet normal 0.6715589548470176 0.7409511253549598 0
    outer loop
      vertex 6.752887305872608 4.950864106284419 18
      vertex 5.807611844574881 5.807611844574881 18
      vertex 5.807611844574881 5.807611844574881 30
    endloop
  endfacet
  facet normal 0.8032075314806457 0.5956993044924322 0
    outer loop
      vertex 4.950864106284419 6.752887305872608 18
      vertex 4.190895040066913 7.777586970745172 30
      vertex 4.950864106284419 6.752887305872608 30
    endloop
  endfacet
  facet normal 0.6715589548470176 0.7409511253549598 0
    outer loop
      vertex 6.752887305872608 4.950864106284419 18
      vertex 5.807611844574881 5.807611844574881 30
      vertex 6.752887305872608 4.950864106284419 30
    endloop
  endfacet
  facet normal 0.7409511253549598 0.6715589548470176 0
    outer loop
      vertex 5.807611844574881 5.807611844574881 18
      vertex 4.950864106284419 6.752887305872608 30
      vertex 5.807611844574881 5.807611844574881 30
    endloop
  endfacet
  facet normal 0.941544065183021 0.3368898533922195 0
    outer loop
      vertex 2.5597756354812855 11.22629919569199 18
      vertex 2.5597756354812855 11.22629919569199 30
      vertex 2.989566077353272 10.025115379253833 18
    endloop
  endfacet
  facet normal 0.9039892931234436 0.42755509343028164 0
    outer loop
      vertex 3.535023563471384 8.87184242126203 18
      vertex 2.989566077353272 10.025115379253833 18
      vertex 2.989566077353272 10.025115379253833 30
    endloop
  endfacet
  facet normal 0.970031253194544 0.24298017990326432 0
    outer loop
      vertex 2.5597756354812855 11.22629919569199 18
      vertex 2.2497913547580044 12.463825813790333 18
      vertex 2.2497913547580044 12.463825813790333 30
    endloop
  endfacet
  facet normal 0.9891765099647808 0.14673047445536247 0
    outer loop
      vertex 2.2497913547580044 12.463825813790333 18
      vertex 2.0625985532614397 13.725777175715713 18
      vertex 2.0625985532614397 13.725777175715713 30
    endloop
  endfacet
  facet normal 0 0 1
    outer loop
      vertex 2.5597756354812855 11.22629919569199 18
      vertex 2.989566077353272 10.025115379253833 18
      vertex 15 2 18
    endloop
  endfacet
  facet normal 0 0 1
    outer loop
      vertex 2.5597756354812855 11.22629919569199 18
      vertex 15 2 18
      vertex 2.2497913547580044 12.463825813790333 18
    endloop
  endfacet
  facet normal 0 0 1
    outer loop
      vertex 2.2497913547580044 12.463825813790333 18
      vertex 15 2 18
      vertex 2.0625985532614397 13.725777175715713 18
    endloop
  endfacet
  facet normal 0.8032075314806457 0.5956993044924322 0
    outer loop
      vertex 4.190895040066913 7.777586970745172 18
      vertex 4.190895040066913 7.777586970745172 30
      vertex 4.950864106284419 6.752887305872608 18
    endloop
  endfacet
  facet normal 0.8577286100002715 0.5141027441932227 0
    outer loop
      vertex 4.190895040066913 7.777586970745172 18
      vertex 3.535023563471384 8.87184242126203 18
      vertex 3.535023563471384 8.87184242126203 30
    endloop
  endfacet
  facet normal 0.9039892931234436 0.42755509343028164 0
    outer loop
      vertex 3.535023563471384 8.87184242126203 18
      vertex 2.989566077353272 10.025115379253833 30
      vertex 3.535023563471384 8.87184242126203 30
    endloop
  endfacet
  facet normal 0.941544065183021 0.3368898533922195 0
    outer loop
      vertex 2.989566077353272 10.025115379253833 18
      vertex 2.5597756354812855 11.22629919569199 30
      vertex 2.989566077353272 10.025115379253833 30
    endloop
  endfacet
  facet normal 0.970031253194544 0.24298017990326432 0
    outer loop
      vertex 2.5597756354812855 11.22629919569199 18
      vertex 2.2497913547580044 12.463825813790333 30
      vertex 2.5597756354812855 11.22629919569199 30
    endloop
  endfacet
  facet normal 0.9891765099647808 0.14673047445536247 0
    outer loop
      vertex 2.2497913547580044 12.463825813790333 18
      vertex 2.0625985532614397 13.725777175715713 30
      vertex 2.2497913547580044 12.463825813790333 30
    endloop
  endfacet
  facet normal 0.9987954562051724 0.04906767432741744 0
    outer loop
      vertex 2.0625985532614397 13.725777175715713 18
      vertex 2 15 30
      vertex 2.0625985532614397 13.725777175715713 30
    endloop
  endfacet
  facet normal 0.8577286100002715 0.5141027441932227 0
    outer loop
      vertex 4.190895040066913 7.777586970745172 18
      vertex 3.535023563471384 8.87184242126203 30
      vertex 4.190895040066913 7.777586970745172 30
    endloop
  endfacet
  facet normal 0 0 1
    outer loop
      vertex 7.777586970745172 4.190895040066913 18
      vertex 8.87184242126203 3.535023563471384 18
      vertex 15 2 18
    endloop
  endfacet
  facet normal 0.42755509343028164 0.9039892931234436 0
    outer loop
      vertex 8.87184242126203 3.535023563471384 18
      vertex 8.87184242126203 3.535023563471384 30
      vertex 10.025115379253833 2.989566077353272 18
    endloop
  endfacet
  facet normal 0.3368898533922195 0.941544065183021 0
    outer loop
      vertex 10.025115379253833 2.989566077353272 18
      vertex 10.025115379253833 2.989566077353272 30
      vertex 11.22629919569199 2.5597756354812855 18
    endloop
  endfacet
  facet normal 0 0 1
    outer loop
      vertex 4.950864106284419 6.752887305872608 18
      vertex 5.807611844574881 5.807611844574881 18
      vertex 15 2 18
    endloop
  endfacet
  facet normal 0 0 1
    outer loop
      vertex 4.190895040066913 7.777586970745172 18
      vertex 15 2 18
      vertex 3.535023563471384 8.87184242126203 18
    endloop
  endfacet
  facet normal 0 0 1
    outer loop
      vertex 4.190895040066913 7.777586970745172 18
      vertex 4.950864106284419 6.752887305872608 18
      vertex 15 2 18
    endloop
  endfacet
  facet normal 0 0 1
    outer loop
      vertex 6.752887305872608 4.950864106284419 18
      vertex 15 2 18
      vertex 5.807611844574881 5.807611844574881 18
    endloop
  endfacet
  facet normal 0 0 1
    outer loop
      vertex 6.752887305872608 4.950864106284419 18
      vertex 7.777586970745172 4.190895040066913 18
      vertex 15 2 18
    endloop
  endfacet
  facet normal 0.5141027441932227 0.8577286100002715 0
    outer loop
      vertex 7.777586970745172 4.190895040066913 18
      vertex 7.777586970745172 4.190895040066913 30
      vertex 8.87184242126203 3.535023563471384 18
    endloop
  endfacet
  facet normal 0 0 1
    outer loop
      vertex 8.87184242126203 3.535023563471384 18
      vertex 10.025115379253833 2.989566077353272 18
      vertex 15 2 18
    endloop
  endfacet
  facet normal 0 0 1
    outer loop
      vertex 10.025115379253833 2.989566077353272 18
      vertex 11.22629919569199 2.5597756354812855 18
      vertex 15 2 18
    endloop
  endfacet
  facet normal 0 0 1
    outer loop
      vertex 11.22629919569199 2.5597756354812855 18
      vertex 12.463825813790333 2.2497913547580044 18
      vertex 15 2 18
    endloop
  endfacet
  facet normal 0 0 1
    outer loop
      vertex 12.463825813790333 2.2497913547580044 18
      vertex 13.725777175715713 2.0625985532614397 18
      vertex 15 2 18
    endloop
  endfacet
  facet normal 0.24298017990326432 0.970031253194544 0
    outer loop
      vertex 11.22629919569199 2.5597756354812855 18
      vertex 11.22629919569199 2.5597756354812855 30
      vertex 12.463825813790333 2.2497913547580044 18
    endloop
  endfacet
  facet normal 0.14673047445536247 0.9891765099647808 0
    outer loop
      vertex 12.463825813790333 2.2497913547580044 18
      vertex 12.463825813790333 2.2497913547580044 30
      vertex 13.725777175715713 2.0625985532614397 18
    endloop
  endfacet
  facet normal 0.04906767432741744 0.9987954562051724 0
    outer loop
      vertex 13.725777175715713 2.0625985532614397 18
      vertex 13.725777175715713 2.0625985532614397 30
      vertex 15 2 18
    endloop
  endfacet
  facet normal 0.42755509343028164 0.9039892931234436 0
    outer loop
      vertex 10.025115379253833 2.989566077353272 18
      vertex 8.87184242126203 3.535023563471384 30
      vertex 10.025115379253833 2.989566077353272 30
    endloop
  endfacet
  facet normal 0.3368898533922195 0.941544065183021 0
    outer loop
      vertex 11.22629919569199 2.5597756354812855 18
      vertex 10.025115379253833 2.989566077353272 30
      vertex 11.22629919569199 2.5597756354812855 30
    endloop
  endfacet
  facet normal 0.5956993044924322 0.8032075314806457 0
    outer loop
      vertex 7.777586970745172 4.190895040066913 18
      vertex 6.752887305872608 4.950864106284419 30
      vertex 7.777586970745172 4.190895040066913 30
    endloop
  endfacet
  facet normal 0.5141027441932227 0.8577286100002715 0
    outer loop
      vertex 8.87184242126203 3.535023563471384 18
      vertex 7.777586970745172 4.190895040066913 30
      vertex 8.87184242126203 3.535023563471384 30
    endloop
  endfacet
  facet normal 0.24298017990326432 0.970031253194544 0
    outer loop
      vertex 12.463825813790333 2.2497913547580044 18
      vertex 11.22629919569199 2.5597756354812855 30
      vertex 12.463825813790333 2.2497913547580044 30
    endloop
  endfacet
  facet normal 0.14673047445536247 0.9891765099647808 0
    outer loop
      vertex 13.725777175715713 2.0625985532614397 18
      vertex 12.463825813790333 2.2497913547580044 30
      vertex 13.725777175715713 2.0625985532614397 30
    endloop
  endfacet
  facet normal 0 0 1
    outer loop
      vertex 2.0625985532614397 13.725777175715713 18
      vertex 15 2 18
      vertex 15 15 18
    endloop
  endfacet
  facet normal 0.9987954562051724 0.04906767432741744 0
    outer loop
      vertex 2.0625985532614397 13.725777175715713 18
      vertex 2 15 18
      vertex 2 15 30
    endloop
  endfacet
  facet normal 0 0 1
    outer loop
      vertex 2.0625985532614397 13.725777175715713 18
      vertex 15 15 18
      vertex 2 15 18
    endloop
  endfacet
  facet normal 0.04906767432741744 0.9987954562051724 0
    outer loop
      vertex 15 2 18
      vertex 13.725777175715713 2.0625985532614397 30
      vertex 15 2 30
    endloop
  endfacet
  facet normal 1 0 0
    outer loop
      vertex 2 15 18
      vertex 2 27 30
      vertex 2 15 30
    endloop
  endfacet
  facet normal 1 0 0
    outer loop
      vertex 2 15 18
      vertex 2 27 18
      vertex 2 27 30
    endloop
  endfacet
  facet normal 0 0 1
    outer loop
      vertex 2 15 18
      vertex 27 27 18
      vertex 2 27 18
    endloop
  endfacet
  facet normal 0 -1 0
    outer loop
      vertex 2 27 18
      vertex 27 27 30
      vertex 2 27 30
    endloop
  endfacet
  facet normal 0 0 1
    outer loop
      vertex 2 15 18
      vertex 15 15 18
      vertex 27 27 18
    endloop
  endfacet
  facet normal 0 -1 0
    outer loop
      vertex 2 27 18
      vertex 27 27 18
      vertex 27 27 30
    endloop
  endfacet
  facet normal 0 0 1
    outer loop
      vertex 15 15 18
      vertex 27 15 18
      vertex 27 27 18
    endloop
  endfacet
  facet normal -1 0 0
    outer loop
      vertex 27 15 18
      vertex 27 15 30
      vertex 27 27 18
    endloop
  endfacet
  facet normal -1 0 0
    outer loop
      vertex 27 27 18
      vertex 27 15 30
      vertex 27 27 30
    endloop
  endfacet
  facet normal 0 1 0
    outer loop
      vertex 15 2 18
      vertex 15.001328220905801 2 30
      vertex 27 2 18
    endloop
  endfacet
  facet normal 0 1 0
    outer loop
      vertex 15 2 18
      vertex 15 2 30
      vertex 15.001328220905801 2 30
    endloop
  endfacet
  facet normal 0 0 1
    outer loop
      vertex 15 2 18
      vertex 27 15 18
      vertex 15 15 18
    endloop
  endfacet
  facet normal 0 0 1
    outer loop
      vertex 15 2 18
      vertex 27 2 18
      vertex 27 15 18
    endloop
  endfacet
  facet normal -1 0 0
    outer loop
      vertex 27 2 18
      vertex 27 2 30
      vertex 27 15 18
    endloop
  endfacet
  facet normal 0 1 0
    outer loop
      vertex 27 2 18
      vertex 15.001328220905801 2 30
      vertex 27 2 30
    endloop
  endfacet
  facet normal -1 0 0
    outer loop
      vertex 27 15 18
      vertex 27 2 30
      vertex 27 15 30
    endloop
  endfacet
endsolid OpenSCAD_Model
