solid OpenSCAD_Model
  facet normal -1 0 0
    outer loop
      vertex -60 115 0
      vertex -60 45 10
      vertex -60 115 10
    endloop
  endfacet
  facet normal -1 0 0
    outer loop
      vertex -60 0 0
      vertex -60 45 10
      vertex -60 115 0
    endloop
  endfacet
  facet normal -1 0 0
    outer loop
      vertex -60 0 0
      vertex -60 2 53
      vertex -60 45 10
    endloop
  endfacet
  facet normal -1 0 0
    outer loop
      vertex -60 0 60
      vertex -60 2 53
      vertex -60 0 0
    endloop
  endfacet
  facet normal -1 0 0
    outer loop
      vertex -60 2 53
      vertex -60 0 60
      vertex -60 2 60
    endloop
  endfacet
  facet normal 0 0 1
    outer loop
      vertex 60 115 10
      vertex 57.8907 114.04 10
      vertex 58 113 10
    endloop
  endfacet
  facet normal 0 0 1
    outer loop
      vertex 59.0451 117.939 10
      vertex 57.5677 115.034 10
      vertex 57.8907 114.04 10
    endloop
  endfacet
  facet normal 0 0 1
    outer loop
      vertex 56.3457 116.716 10
      vertex 58.3457 118.716 10
      vertex 57.5 119.33 10
    endloop
  endfacet
  facet normal 0 0 1
    outer loop
      vertex 59.0451 117.939 10
      vertex 57.0451 115.939 10
      vertex 57.5677 115.034 10
    endloop
  endfacet
  facet normal 0 0 1
    outer loop
      vertex 55.5 117.33 10
      vertex 57.5 119.33 10
      vertex 56.5451 119.755 10
    endloop
  endfacet
  facet normal 0 0 1
    outer loop
      vertex 59.0451 117.939 10
      vertex 56.3457 116.716 10
      vertex 57.0451 115.939 10
    endloop
  endfacet
  facet normal 0 0 1
    outer loop
      vertex 55.5 117.33 10
      vertex 56.5451 119.755 10
      vertex 55.5226 119.973 10
    endloop
  endfacet
  facet normal 0 0 1
    outer loop
      vertex 57.5 119.33 10
      vertex 55.5 117.33 10
      vertex 56.3457 116.716 10
    endloop
  endfacet
  facet normal 0 0 1
    outer loop
      vertex 55.5226 119.973 10
      vertex 54.5451 117.755 10
      vertex 55.5 117.33 10
    endloop
  endfacet
  facet normal 0 0 1
    outer loop
      vertex 55.5226 119.973 10
      vertex 53.5226 117.973 10
      vertex 54.5451 117.755 10
    endloop
  endfacet
  facet normal 0 0 1
    outer loop
      vertex 55.5226 119.973 10
      vertex -53.5226 117.973 10
      vertex 53.5226 117.973 10
    endloop
  endfacet
  facet normal -0 0 1
    outer loop
      vertex -55.5226 119.973 10
      vertex -53.5226 117.973 10
      vertex 55.5226 119.973 10
    endloop
  endfacet
  facet normal 0 0 1
    outer loop
      vertex -55.5226 119.973 10
      vertex -54.5451 117.755 10
      vertex -53.5226 117.973 10
    endloop
  endfacet
  facet normal 0 0 1
    outer loop
      vertex -55.5226 119.973 10
      vertex -55.5 117.33 10
      vertex -54.5451 117.755 10
    endloop
  endfacet
  facet normal -0 0 1
    outer loop
      vertex -56.5451 119.755 10
      vertex -55.5 117.33 10
      vertex -55.5226 119.973 10
    endloop
  endfacet
  facet normal -0 0 1
    outer loop
      vertex -57.5 119.33 10
      vertex -55.5 117.33 10
      vertex -56.5451 119.755 10
    endloop
  endfacet
  facet normal 0 0 1
    outer loop
      vertex -55.5 117.33 10
      vertex -57.5 119.33 10
      vertex -56.3457 116.716 10
    endloop
  endfacet
  facet normal -0 0 1
    outer loop
      vertex -58.3457 118.716 10
      vertex -56.3457 116.716 10
      vertex -57.5 119.33 10
    endloop
  endfacet
  facet normal -0 0 1
    outer loop
      vertex -59.0451 117.939 10
      vertex -56.3457 116.716 10
      vertex -58.3457 118.716 10
    endloop
  endfacet
  facet normal 0 0 1
    outer loop
      vertex -56.3457 116.716 10
      vertex -59.0451 117.939 10
      vertex -57.0451 115.939 10
    endloop
  endfacet
  facet normal -0 0 1
    outer loop
      vertex -59.5677 117.034 10
      vertex -57.0451 115.939 10
      vertex -59.0451 117.939 10
    endloop
  endfacet
  facet normal 0 0 1
    outer loop
      vertex -57.0451 115.939 10
      vertex -59.5677 117.034 10
      vertex -57.5677 115.034 10
    endloop
  endfacet
  facet normal -0 0 1
    outer loop
      vertex -59.8907 116.04 10
      vertex -57.5677 115.034 10
      vertex -59.5677 117.034 10
    endloop
  endfacet
  facet normal 0 0 1
    outer loop
      vertex -60 115 10
      vertex -57.5677 115.034 10
      vertex -59.8907 116.04 10
    endloop
  endfacet
  facet normal 0 0 1
    outer loop
      vertex -57.5677 115.034 10
      vertex -60 115 10
      vertex -57.8907 114.04 10
    endloop
  endfacet
  facet normal 0 0 1
    outer loop
      vertex -57.8907 114.04 10
      vertex -60 115 10
      vertex -58 113 10
    endloop
  endfacet
  facet normal 0 0 1
    outer loop
      vertex -60 45 10
      vertex -58 113 10
      vertex -60 115 10
    endloop
  endfacet
  facet normal 0 0 1
    outer loop
      vertex -58 113 10
      vertex -60 45 10
      vertex -58 45 10
    endloop
  endfacet
  facet normal 0 0 1
    outer loop
      vertex 57.8907 114.04 10
      vertex 60 115 10
      vertex 59.8907 116.04 10
    endloop
  endfacet
  facet normal 0 0 1
    outer loop
      vertex 57.8907 114.04 10
      vertex 59.8907 116.04 10
      vertex 59.5677 117.034 10
    endloop
  endfacet
  facet normal 0 0 1
    outer loop
      vertex 57.8907 114.04 10
      vertex 59.5677 117.034 10
      vertex 59.0451 117.939 10
    endloop
  endfacet
  facet normal 0 0 1
    outer loop
      vertex 56.3457 116.716 10
      vertex 59.0451 117.939 10
      vertex 58.3457 118.716 10
    endloop
  endfacet
  facet normal 0 0 1
    outer loop
      vertex 60 115 10
      vertex 58 113 10
      vertex 60 45 10
    endloop
  endfacet
  facet normal 0 0 1
    outer loop
      vertex 60 45 10
      vertex 58 113 10
      vertex 58 45 10
    endloop
  endfacet
  facet normal -0 0 1
    outer loop
      vertex 57.8907 5.96044 10
      vertex 58 2 10
      vertex 58 7 10
    endloop
  endfacet
  facet normal -0 0 1
    outer loop
      vertex 57.5677 4.96632 10
      vertex 58 2 10
      vertex 57.8907 5.96044 10
    endloop
  endfacet
  facet normal -0 0 1
    outer loop
      vertex 57.0451 4.06107 10
      vertex 58 2 10
      vertex 57.5677 4.96632 10
    endloop
  endfacet
  facet normal -0 0 1
    outer loop
      vertex 56.3457 3.28428 10
      vertex 58 2 10
      vertex 57.0451 4.06107 10
    endloop
  endfacet
  facet normal -0 0 1
    outer loop
      vertex 55.5 2.66987 10
      vertex 58 2 10
      vertex 56.3457 3.28428 10
    endloop
  endfacet
  facet normal -0 0 1
    outer loop
      vertex 54.5451 2.24472 10
      vertex 58 2 10
      vertex 55.5 2.66987 10
    endloop
  endfacet
  facet normal -0 0 1
    outer loop
      vertex 53.5226 2.02739 10
      vertex 58 2 10
      vertex 54.5451 2.24472 10
    endloop
  endfacet
  facet normal -0 0 1
    outer loop
      vertex -53.5226 2.02739 10
      vertex 58 2 10
      vertex 53.5226 2.02739 10
    endloop
  endfacet
  facet normal 0 0 1
    outer loop
      vertex -53.5226 2.02739 10
      vertex -58 2 10
      vertex 58 2 10
    endloop
  endfacet
  facet normal 0 0 1
    outer loop
      vertex -54.5451 2.24472 10
      vertex -58 2 10
      vertex -53.5226 2.02739 10
    endloop
  endfacet
  facet normal 0 0 1
    outer loop
      vertex -55.5 2.66987 10
      vertex -58 2 10
      vertex -54.5451 2.24472 10
    endloop
  endfacet
  facet normal 0 0 1
    outer loop
      vertex -56.3457 3.28428 10
      vertex -58 2 10
      vertex -55.5 2.66987 10
    endloop
  endfacet
  facet normal 0 0 1
    outer loop
      vertex -57.0451 4.06107 10
      vertex -58 2 10
      vertex -56.3457 3.28428 10
    endloop
  endfacet
  facet normal 0 0 1
    outer loop
      vertex -57.5677 4.96632 10
      vertex -58 2 10
      vertex -57.0451 4.06107 10
    endloop
  endfacet
  facet normal 0 0 1
    outer loop
      vertex -57.8907 5.96044 10
      vertex -58 2 10
      vertex -57.5677 4.96632 10
    endloop
  endfacet
  facet normal 0 0 1
    outer loop
      vertex -58 2 10
      vertex -57.8907 5.96044 10
      vertex -58 7 10
    endloop
  endfacet
  facet normal 1 0 0
    outer loop
      vertex 60 2 60
      vertex 60 0 60
      vertex 60 2 53
    endloop
  endfacet
  facet normal 1 -0 0
    outer loop
      vertex 60 45 10
      vertex 60 115 0
      vertex 60 115 10
    endloop
  endfacet
  facet normal 1 0 0
    outer loop
      vertex 60 45 10
      vertex 60 0 0
      vertex 60 115 0
    endloop
  endfacet
  facet normal 1 0 0
    outer loop
      vertex 60 2 53
      vertex 60 0 0
      vertex 60 45 10
    endloop
  endfacet
  facet normal 1 0 0
    outer loop
      vertex 60 0 0
      vertex 60 2 53
      vertex 60 0 60
    endloop
  endfacet
  facet normal 0 0 -1
    outer loop
      vertex -60 115 0
      vertex 60 115 0
      vertex 60 0 0
    endloop
  endfacet
  facet normal 0 0 -1
    outer loop
      vertex 60 115 0
      vertex 55.5226 119.973 0
      vertex 59.8907 116.04 0
    endloop
  endfacet
  facet normal 0 0 -1
    outer loop
      vertex 59.8907 116.04 0
      vertex 55.5226 119.973 0
      vertex 59.5677 117.034 0
    endloop
  endfacet
  facet normal 0 0 -1
    outer loop
      vertex 59.5677 117.034 0
      vertex 55.5226 119.973 0
      vertex 59.0451 117.939 0
    endloop
  endfacet
  facet normal 0 0 -1
    outer loop
      vertex 59.0451 117.939 0
      vertex 55.5226 119.973 0
      vertex 58.3457 118.716 0
    endloop
  endfacet
  facet normal 0 0 -1
    outer loop
      vertex 58.3457 118.716 0
      vertex 55.5226 119.973 0
      vertex 57.5 119.33 0
    endloop
  endfacet
  facet normal 0 0 -1
    outer loop
      vertex 57.5 119.33 0
      vertex 55.5226 119.973 0
      vertex 56.5451 119.755 0
    endloop
  endfacet
  facet normal 0 0 -1
    outer loop
      vertex 60 115 0
      vertex -60 115 0
      vertex 55.5226 119.973 0
    endloop
  endfacet
  facet normal -0 0 -1
    outer loop
      vertex 55.5226 119.973 0
      vertex -60 115 0
      vertex -55.5226 119.973 0
    endloop
  endfacet
  facet normal 0 0 -1
    outer loop
      vertex -55.5226 119.973 0
      vertex -60 115 0
      vertex -56.5451 119.755 0
    endloop
  endfacet
  facet normal 0 0 -1
    outer loop
      vertex -56.5451 119.755 0
      vertex -60 115 0
      vertex -57.5 119.33 0
    endloop
  endfacet
  facet normal 0 0 -1
    outer loop
      vertex -57.5 119.33 0
      vertex -60 115 0
      vertex -58.3457 118.716 0
    endloop
  endfacet
  facet normal 0 0 -1
    outer loop
      vertex -58.3457 118.716 0
      vertex -60 115 0
      vertex -59.0451 117.939 0
    endloop
  endfacet
  facet normal 0 0 -1
    outer loop
      vertex -59.0451 117.939 0
      vertex -60 115 0
      vertex -59.5677 117.034 0
    endloop
  endfacet
  facet normal 0 0 -1
    outer loop
      vertex -60 115 0
      vertex 60 0 0
      vertex -60 0 0
    endloop
  endfacet
  facet normal 0 0 -1
    outer loop
      vertex -59.5677 117.034 0
      vertex -60 115 0
      vertex -59.8907 116.04 0
    endloop
  endfacet
  facet normal 0 -1 0
    outer loop
      vertex -17.55 0 6.7
      vertex 17.55 0 53.3
      vertex -17.55 0 53.3
    endloop
  endfacet
  facet normal 0 -1 -0
    outer loop
      vertex 17.55 0 53.3
      vertex -17.55 0 6.7
      vertex 17.55 0 6.7
    endloop
  endfacet
  facet normal 0 -1 0
    outer loop
      vertex -17.55 0 53.3
      vertex -60 0 60
      vertex -22.45 0 53.3
    endloop
  endfacet
  facet normal 0 -1 0
    outer loop
      vertex -60 0 60
      vertex -22.45 0 6.7
      vertex -22.45 0 53.3
    endloop
  endfacet
  facet normal 0 -1 0
    outer loop
      vertex -60 0 0
      vertex -17.55 0 6.7
      vertex -22.45 0 6.7
    endloop
  endfacet
  facet normal 0 -1 -0
    outer loop
      vertex -17.55 0 6.7
      vertex -60 0 0
      vertex 17.55 0 6.7
    endloop
  endfacet
  facet normal 0 -1 0
    outer loop
      vertex 60 0 0
      vertex 17.55 0 6.7
      vertex -60 0 0
    endloop
  endfacet
  facet normal 0 -1 0
    outer loop
      vertex -60 0 0
      vertex -22.45 0 6.7
      vertex -60 0 60
    endloop
  endfacet
  facet normal 0 -1 0
    outer loop
      vertex -60 0 60
      vertex -17.55 0 53.3
      vertex 60 0 60
    endloop
  endfacet
  facet normal 0 -1 0
    outer loop
      vertex 17.55 0 53.3
      vertex 60 0 60
      vertex -17.55 0 53.3
    endloop
  endfacet
  facet normal 0 -1 0
    outer loop
      vertex 22.45 0 53.3
      vertex 60 0 60
      vertex 17.55 0 53.3
    endloop
  endfacet
  facet normal 0 -1 0
    outer loop
      vertex 22.45 0 6.7
      vertex 60 0 60
      vertex 22.45 0 53.3
    endloop
  endfacet
  facet normal 0 -1 0
    outer loop
      vertex 22.45 0 6.7
      vertex 60 0 0
      vertex 60 0 60
    endloop
  endfacet
  facet normal 0 -1 0
    outer loop
      vertex 17.55 0 6.7
      vertex 60 0 0
      vertex 22.45 0 6.7
    endloop
  endfacet
  facet normal 0.951048 0.309043 0
    outer loop
      vertex 59.8907 116.04 10
      vertex 59.5677 117.034 0
      vertex 59.5677 117.034 10
    endloop
  endfacet
  facet normal 0.951048 0.309043 0
    outer loop
      vertex 59.5677 117.034 0
      vertex 59.8907 116.04 10
      vertex 59.8907 116.04 0
    endloop
  endfacet
  facet normal 0.208516 0.978019 -0
    outer loop
      vertex 56.5451 119.755 0
      vertex 55.5226 119.973 10
      vertex 56.5451 119.755 10
    endloop
  endfacet
  facet normal 0.208516 0.978019 0
    outer loop
      vertex 55.5226 119.973 10
      vertex 56.5451 119.755 0
      vertex 55.5226 119.973 0
    endloop
  endfacet
  facet normal 0 1 -0
    outer loop
      vertex 55.5226 119.973 0
      vertex -55.5226 119.973 10
      vertex 55.5226 119.973 10
    endloop
  endfacet
  facet normal 0 1 0
    outer loop
      vertex -55.5226 119.973 10
      vertex 55.5226 119.973 0
      vertex -55.5226 119.973 0
    endloop
  endfacet
  facet normal -0.208516 0.978019 0
    outer loop
      vertex -55.5226 119.973 0
      vertex -56.5451 119.755 10
      vertex -55.5226 119.973 10
    endloop
  endfacet
  facet normal -0.208516 0.978019 0
    outer loop
      vertex -56.5451 119.755 10
      vertex -55.5226 119.973 0
      vertex -56.5451 119.755 0
    endloop
  endfacet
  facet normal 0.743247 0.669018 0
    outer loop
      vertex 59.0451 117.939 10
      vertex 58.3457 118.716 0
      vertex 58.3457 118.716 10
    endloop
  endfacet
  facet normal 0.743247 0.669018 0
    outer loop
      vertex 58.3457 118.716 0
      vertex 59.0451 117.939 10
      vertex 59.0451 117.939 0
    endloop
  endfacet
  facet normal -0.743247 0.669018 0
    outer loop
      vertex -59.0451 117.939 0
      vertex -58.3457 118.716 10
      vertex -58.3457 118.716 0
    endloop
  endfacet
  facet normal -0.743247 0.669018 0
    outer loop
      vertex -58.3457 118.716 10
      vertex -59.0451 117.939 0
      vertex -59.0451 117.939 10
    endloop
  endfacet
  facet normal 0.994523 0.104521 0
    outer loop
      vertex 60 115 10
      vertex 59.8907 116.04 0
      vertex 59.8907 116.04 10
    endloop
  endfacet
  facet normal 0.994523 0.104521 0
    outer loop
      vertex 59.8907 116.04 0
      vertex 60 115 10
      vertex 60 115 0
    endloop
  endfacet
  facet normal 0.865985 0.50007 0
    outer loop
      vertex 59.5677 117.034 10
      vertex 59.0451 117.939 0
      vertex 59.0451 117.939 10
    endloop
  endfacet
  facet normal 0.865985 0.50007 0
    outer loop
      vertex 59.0451 117.939 0
      vertex 59.5677 117.034 10
      vertex 59.5677 117.034 0
    endloop
  endfacet
  facet normal 0.587512 0.809216 -0
    outer loop
      vertex 58.3457 118.716 0
      vertex 57.5 119.33 10
      vertex 58.3457 118.716 10
    endloop
  endfacet
  facet normal 0.587512 0.809216 0
    outer loop
      vertex 57.5 119.33 10
      vertex 58.3457 118.716 0
      vertex 57.5 119.33 0
    endloop
  endfacet
  facet normal 0.406618 0.913598 -0
    outer loop
      vertex 57.5 119.33 0
      vertex 56.5451 119.755 10
      vertex 57.5 119.33 10
    endloop
  endfacet
  facet normal 0.406618 0.913598 0
    outer loop
      vertex 56.5451 119.755 10
      vertex 57.5 119.33 0
      vertex 56.5451 119.755 0
    endloop
  endfacet
  facet normal -0.587512 0.809216 0
    outer loop
      vertex -57.5 119.33 0
      vertex -58.3457 118.716 10
      vertex -57.5 119.33 10
    endloop
  endfacet
  facet normal -0.587512 0.809216 0
    outer loop
      vertex -58.3457 118.716 10
      vertex -57.5 119.33 0
      vertex -58.3457 118.716 0
    endloop
  endfacet
  facet normal -0.951048 0.309043 0
    outer loop
      vertex -59.8907 116.04 0
      vertex -59.5677 117.034 10
      vertex -59.5677 117.034 0
    endloop
  endfacet
  facet normal -0.951048 0.309043 0
    outer loop
      vertex -59.5677 117.034 10
      vertex -59.8907 116.04 0
      vertex -59.8907 116.04 10
    endloop
  endfacet
  facet normal -0.406618 0.913598 0
    outer loop
      vertex -56.5451 119.755 0
      vertex -57.5 119.33 10
      vertex -56.5451 119.755 10
    endloop
  endfacet
  facet normal -0.406618 0.913598 0
    outer loop
      vertex -57.5 119.33 10
      vertex -56.5451 119.755 0
      vertex -57.5 119.33 0
    endloop
  endfacet
  facet normal -0.865985 0.50007 0
    outer loop
      vertex -59.5677 117.034 0
      vertex -59.0451 117.939 10
      vertex -59.0451 117.939 0
    endloop
  endfacet
  facet normal -0.865985 0.50007 0
    outer loop
      vertex -59.0451 117.939 10
      vertex -59.5677 117.034 0
      vertex -59.5677 117.034 10
    endloop
  endfacet
  facet normal -0.994523 0.104521 0
    outer loop
      vertex -60 115 0
      vertex -59.8907 116.04 10
      vertex -59.8907 116.04 0
    endloop
  endfacet
  facet normal -0.994523 0.104521 0
    outer loop
      vertex -59.8907 116.04 10
      vertex -60 115 0
      vertex -60 115 10
    endloop
  endfacet
  facet normal 0 -1 0
    outer loop
      vertex -53.5226 117.973 2
      vertex 53.5226 117.973 10
      vertex -53.5226 117.973 10
    endloop
  endfacet
  facet normal 0 -1 -0
    outer loop
      vertex 53.5226 117.973 10
      vertex -53.5226 117.973 2
      vertex 53.5226 117.973 2
    endloop
  endfacet
  facet normal -0.587768 0.809029 0
    outer loop
      vertex 56.3457 3.28428 2
      vertex 55.5 2.66987 10
      vertex 56.3457 3.28428 10
    endloop
  endfacet
  facet normal -0.587768 0.809029 0
    outer loop
      vertex 55.5 2.66987 10
      vertex 56.3457 3.28428 2
      vertex 55.5 2.66987 2
    endloop
  endfacet
  facet normal 0 0 1
    outer loop
      vertex 53.5226 117.973 2
      vertex 58 113 2
      vertex 57.8907 114.04 2
    endloop
  endfacet
  facet normal 0 0 1
    outer loop
      vertex -58 113 2
      vertex 58 113 2
      vertex 53.5226 117.973 2
    endloop
  endfacet
  facet normal 0 0 1
    outer loop
      vertex 53.5226 117.973 2
      vertex 57.8907 114.04 2
      vertex 57.5677 115.034 2
    endloop
  endfacet
  facet normal 0 0 1
    outer loop
      vertex 58 113 2
      vertex -58 113 2
      vertex 58 7 2
    endloop
  endfacet
  facet normal 0 0 1
    outer loop
      vertex 53.5226 117.973 2
      vertex 57.5677 115.034 2
      vertex 57.0451 115.939 2
    endloop
  endfacet
  facet normal 0 0 1
    outer loop
      vertex 58 7 2
      vertex 53.5226 2.02739 2
      vertex 57.8907 5.96044 2
    endloop
  endfacet
  facet normal 0 0 1
    outer loop
      vertex 53.5226 117.973 2
      vertex 57.0451 115.939 2
      vertex 56.3457 116.716 2
    endloop
  endfacet
  facet normal 0 0 1
    outer loop
      vertex 57.8907 5.96044 2
      vertex 53.5226 2.02739 2
      vertex 57.5677 4.96632 2
    endloop
  endfacet
  facet normal 0 0 1
    outer loop
      vertex 53.5226 117.973 2
      vertex 56.3457 116.716 2
      vertex 55.5 117.33 2
    endloop
  endfacet
  facet normal 0 0 1
    outer loop
      vertex 57.5677 4.96632 2
      vertex 53.5226 2.02739 2
      vertex 57.0451 4.06107 2
    endloop
  endfacet
  facet normal 0 0 1
    outer loop
      vertex 53.5226 117.973 2
      vertex 55.5 117.33 2
      vertex 54.5451 117.755 2
    endloop
  endfacet
  facet normal 0 0 1
    outer loop
      vertex 57.0451 4.06107 2
      vertex 53.5226 2.02739 2
      vertex 56.3457 3.28428 2
    endloop
  endfacet
  facet normal 0 0 1
    outer loop
      vertex 56.3457 3.28428 2
      vertex 53.5226 2.02739 2
      vertex 55.5 2.66987 2
    endloop
  endfacet
  facet normal 0 0 1
    outer loop
      vertex 55.5 2.66987 2
      vertex 53.5226 2.02739 2
      vertex 54.5451 2.24472 2
    endloop
  endfacet
  facet normal 0 0 1
    outer loop
      vertex -58 113 2
      vertex 53.5226 117.973 2
      vertex -53.5226 117.973 2
    endloop
  endfacet
  facet normal 0 0 1
    outer loop
      vertex -58 7 2
      vertex 58 7 2
      vertex -58 113 2
    endloop
  endfacet
  facet normal 0 0 1
    outer loop
      vertex -58 113 2
      vertex -53.5226 117.973 2
      vertex -54.5451 117.755 2
    endloop
  endfacet
  facet normal 0 0 1
    outer loop
      vertex 58 7 2
      vertex -58 7 2
      vertex 53.5226 2.02739 2
    endloop
  endfacet
  facet normal 0 0 1
    outer loop
      vertex -58 113 2
      vertex -54.5451 117.755 2
      vertex -55.5 117.33 2
    endloop
  endfacet
  facet normal 0 0 1
    outer loop
      vertex 53.5226 2.02739 2
      vertex -58 7 2
      vertex -53.5226 2.02739 2
    endloop
  endfacet
  facet normal 0 0 1
    outer loop
      vertex -58 113 2
      vertex -55.5 117.33 2
      vertex -56.3457 116.716 2
    endloop
  endfacet
  facet normal 0 0 1
    outer loop
      vertex -53.5226 2.02739 2
      vertex -58 7 2
      vertex -54.5451 2.24472 2
    endloop
  endfacet
  facet normal 0 0 1
    outer loop
      vertex -58 113 2
      vertex -56.3457 116.716 2
      vertex -57.0451 115.939 2
    endloop
  endfacet
  facet normal 0 0 1
    outer loop
      vertex -54.5451 2.24472 2
      vertex -58 7 2
      vertex -55.5 2.66987 2
    endloop
  endfacet
  facet normal 0 0 1
    outer loop
      vertex -58 113 2
      vertex -57.0451 115.939 2
      vertex -57.5677 115.034 2
    endloop
  endfacet
  facet normal 0 0 1
    outer loop
      vertex -55.5 2.66987 2
      vertex -58 7 2
      vertex -56.3457 3.28428 2
    endloop
  endfacet
  facet normal 0 0 1
    outer loop
      vertex -58 113 2
      vertex -57.5677 115.034 2
      vertex -57.8907 114.04 2
    endloop
  endfacet
  facet normal 0 0 1
    outer loop
      vertex -56.3457 3.28428 2
      vertex -58 7 2
      vertex -57.0451 4.06107 2
    endloop
  endfacet
  facet normal 0 0 1
    outer loop
      vertex -57.0451 4.06107 2
      vertex -58 7 2
      vertex -57.5677 4.96632 2
    endloop
  endfacet
  facet normal 0 0 1
    outer loop
      vertex -57.5677 4.96632 2
      vertex -58 7 2
      vertex -57.8907 5.96044 2
    endloop
  endfacet
  facet normal 1 -0 0
    outer loop
      vertex -58 45 10
      vertex -58 113 2
      vertex -58 113 10
    endloop
  endfacet
  facet normal 1 0 0
    outer loop
      vertex -58 7 2
      vertex -58 45 10
      vertex -58 7 10
    endloop
  endfacet
  facet normal 1 0 0
    outer loop
      vertex -58 45 10
      vertex -58 7 2
      vertex -58 113 2
    endloop
  endfacet
  facet normal -1 0 0
    outer loop
      vertex 58 113 2
      vertex 58 45 10
      vertex 58 113 10
    endloop
  endfacet
  facet normal -1 0 0
    outer loop
      vertex 58 7 2
      vertex 58 45 10
      vertex 58 113 2
    endloop
  endfacet
  facet normal -1 -0 0
    outer loop
      vertex 58 45 10
      vertex 58 7 2
      vertex 58 7 10
    endloop
  endfacet
  facet normal -0.208516 -0.978019 0
    outer loop
      vertex 53.5226 117.973 2
      vertex 54.5451 117.755 10
      vertex 53.5226 117.973 10
    endloop
  endfacet
  facet normal -0.208516 -0.978019 -0
    outer loop
      vertex 54.5451 117.755 10
      vertex 53.5226 117.973 2
      vertex 54.5451 117.755 2
    endloop
  endfacet
  facet normal 0 1 -0
    outer loop
      vertex 53.5226 2.02739 2
      vertex -53.5226 2.02739 10
      vertex 53.5226 2.02739 10
    endloop
  endfacet
  facet normal 0 1 0
    outer loop
      vertex -53.5226 2.02739 10
      vertex 53.5226 2.02739 2
      vertex -53.5226 2.02739 2
    endloop
  endfacet
  facet normal -0.865985 -0.50007 0
    outer loop
      vertex 57.5677 115.034 2
      vertex 57.0451 115.939 10
      vertex 57.0451 115.939 2
    endloop
  endfacet
  facet normal -0.865985 -0.50007 0
    outer loop
      vertex 57.0451 115.939 10
      vertex 57.5677 115.034 2
      vertex 57.5677 115.034 10
    endloop
  endfacet
  facet normal 0.208516 -0.978019 0
    outer loop
      vertex -54.5451 117.755 2
      vertex -53.5226 117.973 10
      vertex -54.5451 117.755 10
    endloop
  endfacet
  facet normal 0.208516 -0.978019 0
    outer loop
      vertex -53.5226 117.973 10
      vertex -54.5451 117.755 2
      vertex -53.5226 117.973 2
    endloop
  endfacet
  facet normal -0.743157 0.669117 0
    outer loop
      vertex 56.3457 3.28428 2
      vertex 57.0451 4.06107 10
      vertex 57.0451 4.06107 2
    endloop
  endfacet
  facet normal -0.743157 0.669117 0
    outer loop
      vertex 57.0451 4.06107 10
      vertex 56.3457 3.28428 2
      vertex 56.3457 3.28428 10
    endloop
  endfacet
  facet normal -0.207903 0.978149 0
    outer loop
      vertex 54.5451 2.24472 2
      vertex 53.5226 2.02739 10
      vertex 54.5451 2.24472 10
    endloop
  endfacet
  facet normal -0.207903 0.978149 0
    outer loop
      vertex 53.5226 2.02739 10
      vertex 54.5451 2.24472 2
      vertex 53.5226 2.02739 2
    endloop
  endfacet
  facet normal 0.406738 0.913545 -0
    outer loop
      vertex -54.5451 2.24472 2
      vertex -55.5 2.66987 10
      vertex -54.5451 2.24472 10
    endloop
  endfacet
  facet normal 0.406738 0.913545 0
    outer loop
      vertex -55.5 2.66987 10
      vertex -54.5451 2.24472 2
      vertex -55.5 2.66987 2
    endloop
  endfacet
  facet normal 0.951059 0.309009 0
    outer loop
      vertex -57.5677 4.96632 10
      vertex -57.8907 5.96044 2
      vertex -57.8907 5.96044 10
    endloop
  endfacet
  facet normal 0.951059 0.309009 0
    outer loop
      vertex -57.8907 5.96044 2
      vertex -57.5677 4.96632 10
      vertex -57.5677 4.96632 2
    endloop
  endfacet
  facet normal 0.994518 0.104564 0
    outer loop
      vertex -57.8907 5.96044 10
      vertex -58 7 2
      vertex -58 7 10
    endloop
  endfacet
  facet normal 0.994518 0.104564 0
    outer loop
      vertex -58 7 2
      vertex -57.8907 5.96044 10
      vertex -57.8907 5.96044 2
    endloop
  endfacet
  facet normal 0.866045 0.499967 0
    outer loop
      vertex -57.0451 4.06107 10
      vertex -57.5677 4.96632 2
      vertex -57.5677 4.96632 10
    endloop
  endfacet
  facet normal 0.866045 0.499967 0
    outer loop
      vertex -57.5677 4.96632 2
      vertex -57.0451 4.06107 10
      vertex -57.0451 4.06107 2
    endloop
  endfacet
  facet normal 0.994523 -0.104521 0
    outer loop
      vertex -58 113 10
      vertex -57.8907 114.04 2
      vertex -57.8907 114.04 10
    endloop
  endfacet
  facet normal 0.994523 -0.104521 0
    outer loop
      vertex -57.8907 114.04 2
      vertex -58 113 10
      vertex -58 113 2
    endloop
  endfacet
  facet normal -0.994518 0.104564 0
    outer loop
      vertex 57.8907 5.96044 2
      vertex 58 7 10
      vertex 58 7 2
    endloop
  endfacet
  facet normal -0.994518 0.104564 0
    outer loop
      vertex 58 7 10
      vertex 57.8907 5.96044 2
      vertex 57.8907 5.96044 10
    endloop
  endfacet
  facet normal -0.743247 -0.669018 0
    outer loop
      vertex 57.0451 115.939 2
      vertex 56.3457 116.716 10
      vertex 56.3457 116.716 2
    endloop
  endfacet
  facet normal -0.743247 -0.669018 0
    outer loop
      vertex 56.3457 116.716 10
      vertex 57.0451 115.939 2
      vertex 57.0451 115.939 10
    endloop
  endfacet
  facet normal -0.587512 -0.809216 0
    outer loop
      vertex 55.5 117.33 2
      vertex 56.3457 116.716 10
      vertex 55.5 117.33 10
    endloop
  endfacet
  facet normal -0.587512 -0.809216 -0
    outer loop
      vertex 56.3457 116.716 10
      vertex 55.5 117.33 2
      vertex 56.3457 116.716 2
    endloop
  endfacet
  facet normal -0.406618 -0.913598 0
    outer loop
      vertex 54.5451 117.755 2
      vertex 55.5 117.33 10
      vertex 54.5451 117.755 10
    endloop
  endfacet
  facet normal -0.406618 -0.913598 -0
    outer loop
      vertex 55.5 117.33 10
      vertex 54.5451 117.755 2
      vertex 55.5 117.33 2
    endloop
  endfacet
  facet normal 0.406618 -0.913598 0
    outer loop
      vertex -55.5 117.33 2
      vertex -54.5451 117.755 10
      vertex -55.5 117.33 10
    endloop
  endfacet
  facet normal 0.406618 -0.913598 0
    outer loop
      vertex -54.5451 117.755 10
      vertex -55.5 117.33 2
      vertex -54.5451 117.755 2
    endloop
  endfacet
  facet normal 0.587512 -0.809216 0
    outer loop
      vertex -56.3457 116.716 2
      vertex -55.5 117.33 10
      vertex -56.3457 116.716 10
    endloop
  endfacet
  facet normal 0.587512 -0.809216 0
    outer loop
      vertex -55.5 117.33 10
      vertex -56.3457 116.716 2
      vertex -55.5 117.33 2
    endloop
  endfacet
  facet normal -0.866045 0.499967 0
    outer loop
      vertex 57.0451 4.06107 2
      vertex 57.5677 4.96632 10
      vertex 57.5677 4.96632 2
    endloop
  endfacet
  facet normal -0.866045 0.499967 0
    outer loop
      vertex 57.5677 4.96632 10
      vertex 57.0451 4.06107 2
      vertex 57.0451 4.06107 10
    endloop
  endfacet
  facet normal -0.406738 0.913545 0
    outer loop
      vertex 55.5 2.66987 2
      vertex 54.5451 2.24472 10
      vertex 55.5 2.66987 10
    endloop
  endfacet
  facet normal -0.406738 0.913545 0
    outer loop
      vertex 54.5451 2.24472 10
      vertex 55.5 2.66987 2
      vertex 54.5451 2.24472 2
    endloop
  endfacet
  facet normal 0.207903 0.978149 -0
    outer loop
      vertex -53.5226 2.02739 2
      vertex -54.5451 2.24472 10
      vertex -53.5226 2.02739 10
    endloop
  endfacet
  facet normal 0.207903 0.978149 0
    outer loop
      vertex -54.5451 2.24472 10
      vertex -53.5226 2.02739 2
      vertex -54.5451 2.24472 2
    endloop
  endfacet
  facet normal 0.951048 -0.309043 0
    outer loop
      vertex -57.8907 114.04 10
      vertex -57.5677 115.034 2
      vertex -57.5677 115.034 10
    endloop
  endfacet
  facet normal 0.951048 -0.309043 0
    outer loop
      vertex -57.5677 115.034 2
      vertex -57.8907 114.04 10
      vertex -57.8907 114.04 2
    endloop
  endfacet
  facet normal 0.865985 -0.50007 0
    outer loop
      vertex -57.5677 115.034 10
      vertex -57.0451 115.939 2
      vertex -57.0451 115.939 10
    endloop
  endfacet
  facet normal 0.865985 -0.50007 0
    outer loop
      vertex -57.0451 115.939 2
      vertex -57.5677 115.034 10
      vertex -57.5677 115.034 2
    endloop
  endfacet
  facet normal 0.743247 -0.669018 0
    outer loop
      vertex -57.0451 115.939 10
      vertex -56.3457 116.716 2
      vertex -56.3457 116.716 10
    endloop
  endfacet
  facet normal 0.743247 -0.669018 0
    outer loop
      vertex -56.3457 116.716 2
      vertex -57.0451 115.939 10
      vertex -57.0451 115.939 2
    endloop
  endfacet
  facet normal -0.951048 -0.309043 0
    outer loop
      vertex 57.8907 114.04 2
      vertex 57.5677 115.034 10
      vertex 57.5677 115.034 2
    endloop
  endfacet
  facet normal -0.951048 -0.309043 0
    outer loop
      vertex 57.5677 115.034 10
      vertex 57.8907 114.04 2
      vertex 57.8907 114.04 10
    endloop
  endfacet
  facet normal -0.994523 -0.104521 0
    outer loop
      vertex 58 113 2
      vertex 57.8907 114.04 10
      vertex 57.8907 114.04 2
    endloop
  endfacet
  facet normal -0.994523 -0.104521 0
    outer loop
      vertex 57.8907 114.04 10
      vertex 58 113 2
      vertex 58 113 10
    endloop
  endfacet
  facet normal -0.951059 0.309009 0
    outer loop
      vertex 57.5677 4.96632 2
      vertex 57.8907 5.96044 10
      vertex 57.8907 5.96044 2
    endloop
  endfacet
  facet normal -0.951059 0.309009 0
    outer loop
      vertex 57.8907 5.96044 10
      vertex 57.5677 4.96632 2
      vertex 57.5677 4.96632 10
    endloop
  endfacet
  facet normal 0.587768 0.809029 -0
    outer loop
      vertex -55.5 2.66987 2
      vertex -56.3457 3.28428 10
      vertex -55.5 2.66987 10
    endloop
  endfacet
  facet normal 0.587768 0.809029 0
    outer loop
      vertex -56.3457 3.28428 10
      vertex -55.5 2.66987 2
      vertex -56.3457 3.28428 2
    endloop
  endfacet
  facet normal 0.743157 0.669117 0
    outer loop
      vertex -56.3457 3.28428 10
      vertex -57.0451 4.06107 2
      vertex -57.0451 4.06107 10
    endloop
  endfacet
  facet normal 0.743157 0.669117 0
    outer loop
      vertex -57.0451 4.06107 2
      vertex -56.3457 3.28428 10
      vertex -56.3457 3.28428 2
    endloop
  endfacet
  facet normal 1 0 0
    outer loop
      vertex -58 2 53
      vertex -58 7 10
      vertex -58 45 10
    endloop
  endfacet
  facet normal 1 0 0
    outer loop
      vertex -58 7 10
      vertex -58 2 53
      vertex -58 2 10
    endloop
  endfacet
  facet normal 0 1 -0
    outer loop
      vertex 58 2 10
      vertex -58 2 53
      vertex 58 2 53
    endloop
  endfacet
  facet normal 0 1 0
    outer loop
      vertex -58 2 53
      vertex 58 2 10
      vertex -58 2 10
    endloop
  endfacet
  facet normal 0 1 0
    outer loop
      vertex 58 2 53
      vertex 60 2 60
      vertex 60 2 53
    endloop
  endfacet
  facet normal 0 1 0
    outer loop
      vertex 60 2 60
      vertex 58 2 53
      vertex -60 2 60
    endloop
  endfacet
  facet normal 0 1 -0
    outer loop
      vertex -58 2 53
      vertex -60 2 60
      vertex 58 2 53
    endloop
  endfacet
  facet normal 0 1 0
    outer loop
      vertex -60 2 60
      vertex -58 2 53
      vertex -60 2 53
    endloop
  endfacet
  facet normal 0 0.707107 0.707107
    outer loop
      vertex -58 45 10
      vertex -60 2 53
      vertex -58 2 53
    endloop
  endfacet
  facet normal 0 0.707107 0.707107
    outer loop
      vertex -60 2 53
      vertex -58 45 10
      vertex -60 45 10
    endloop
  endfacet
  facet normal 0 0.707107 0.707107
    outer loop
      vertex 60 45 10
      vertex 58 2 53
      vertex 60 2 53
    endloop
  endfacet
  facet normal 0 0.707107 0.707107
    outer loop
      vertex 58 2 53
      vertex 60 45 10
      vertex 58 45 10
    endloop
  endfacet
  facet normal -1 0 0
    outer loop
      vertex 58 2 53
      vertex 58 7 10
      vertex 58 2 10
    endloop
  endfacet
  facet normal -1 0 0
    outer loop
      vertex 58 7 10
      vertex 58 2 53
      vertex 58 45 10
    endloop
  endfacet
  facet normal -0 0 1
    outer loop
      vertex -60 2 60
      vertex 60 0 60
      vertex 60 2 60
    endloop
  endfacet
  facet normal 0 0 1
    outer loop
      vertex 60 0 60
      vertex -60 2 60
      vertex -60 0 60
    endloop
  endfacet
  facet normal 1 -0 0
    outer loop
      vertex -22.45 0 53.3
      vertex -22.45 0.6 6.7
      vertex -22.45 0.6 53.3
    endloop
  endfacet
  facet normal 1 0 0
    outer loop
      vertex -22.45 0.6 6.7
      vertex -22.45 0 53.3
      vertex -22.45 0 6.7
    endloop
  endfacet
  facet normal 0 0 -1
    outer loop
      vertex -22.45 0 53.3
      vertex -17.55 0.6 53.3
      vertex -17.55 0 53.3
    endloop
  endfacet
  facet normal -0 0 -1
    outer loop
      vertex -17.55 0.6 53.3
      vertex -22.45 0 53.3
      vertex -22.45 0.6 53.3
    endloop
  endfacet
  facet normal -1 0 0
    outer loop
      vertex -17.55 0 6.7
      vertex -17.55 0.6 53.3
      vertex -17.55 0.6 6.7
    endloop
  endfacet
  facet normal -1 -0 0
    outer loop
      vertex -17.55 0.6 53.3
      vertex -17.55 0 6.7
      vertex -17.55 0 53.3
    endloop
  endfacet
  facet normal -0 0 1
    outer loop
      vertex -22.45 0.6 6.7
      vertex -17.55 0 6.7
      vertex -17.55 0.6 6.7
    endloop
  endfacet
  facet normal 0 0 1
    outer loop
      vertex -17.55 0 6.7
      vertex -22.45 0.6 6.7
      vertex -22.45 0 6.7
    endloop
  endfacet
  facet normal 0 -1 0
    outer loop
      vertex -22.45 0.6 6.7
      vertex -17.55 0.6 53.3
      vertex -22.45 0.6 53.3
    endloop
  endfacet
  facet normal 0 -1 -0
    outer loop
      vertex -17.55 0.6 53.3
      vertex -22.45 0.6 6.7
      vertex -17.55 0.6 6.7
    endloop
  endfacet
  facet normal 1 -0 0
    outer loop
      vertex 17.55 0 53.3
      vertex 17.55 0.6 6.7
      vertex 17.55 0.6 53.3
    endloop
  endfacet
  facet normal 1 0 0
    outer loop
      vertex 17.55 0.6 6.7
      vertex 17.55 0 53.3
      vertex 17.55 0 6.7
    endloop
  endfacet
  facet normal 0 0 -1
    outer loop
      vertex 17.55 0 53.3
      vertex 22.45 0.6 53.3
      vertex 22.45 0 53.3
    endloop
  endfacet
  facet normal -0 0 -1
    outer loop
      vertex 22.45 0.6 53.3
      vertex 17.55 0 53.3
      vertex 17.55 0.6 53.3
    endloop
  endfacet
  facet normal -1 0 0
    outer loop
      vertex 22.45 0 6.7
      vertex 22.45 0.6 53.3
      vertex 22.45 0.6 6.7
    endloop
  endfacet
  facet normal -1 -0 0
    outer loop
      vertex 22.45 0.6 53.3
      vertex 22.45 0 6.7
      vertex 22.45 0 53.3
    endloop
  endfacet
  facet normal 0 -1 0
    outer loop
      vertex 17.55 0.6 6.7
      vertex 22.45 0.6 53.3
      vertex 17.55 0.6 53.3
    endloop
  endfacet
  facet normal 0 -1 -0
    outer loop
      vertex 22.45 0.6 53.3
      vertex 17.55 0.6 6.7
      vertex 22.45 0.6 6.7
    endloop
  endfacet
  facet normal -0 0 1
    outer loop
      vertex 17.55 0.6 6.7
      vertex 22.45 0 6.7
      vertex 22.45 0.6 6.7
    endloop
  endfacet
  facet normal 0 0 1
    outer loop
      vertex 22.45 0 6.7
      vertex 17.55 0.6 6.7
      vertex 17.55 0 6.7
    endloop
  endfacet
endsolid OpenSCAD_Model
