solid OpenSCAD_Model
  facet normal -0.6293204012854139 -0.7771459531683643 0
    outer loop
      vertex -2.3382612094283104 -2.4862896502017975 0
      vertex -2.1755705028772354 -2.618033990263939 0.01
      vertex -2.3382612094283104 -2.4862896502017975 0.01
    endloop
  endfacet
  facet normal -0.5446390293369447 -0.8386705716328139 0
    outer loop
      vertex -2.1755705028772354 -2.618033990263939 0
      vertex -2 -2.732050806283951 0
      vertex -2 -2.732050806283951 0.01
    endloop
  endfacet
  facet normal -0.5446390293369447 -0.8386705716328139 0
    outer loop
      vertex -2.1755705028772354 -2.618033990263939 0.01
      vertex -2.1755705028772354 -2.618033990263939 0
      vertex -2 -2.732050806283951 0.01
    endloop
  endfacet
  facet normal -0.6293204012854139 -0.7771459531683643 0
    outer loop
      vertex -2.3382612094283104 -2.4862896502017975 0
      vertex -2.1755705028772354 -2.618033990263939 0
      vertex -2.1755705028772354 -2.618033990263939 0.01
    endloop
  endfacet
  facet normal -0.7771459531683643 -0.6293204012854139 0
    outer loop
      vertex -2.618033990263939 -2.1755705028772354 0.01
      vertex -2.618033990263939 -2.1755705028772354 0
      vertex -2.4862896502017975 -2.3382612094283104 0.01
    endloop
  endfacet
  facet normal -0.7771459531683643 -0.6293204012854139 0
    outer loop
      vertex -2.618033990263939 -2.1755705028772354 0
      vertex -2.4862896502017975 -2.3382612094283104 0
      vertex -2.4862896502017975 -2.3382612094283104 0.01
    endloop
  endfacet
  facet normal -0.8386705716328139 -0.5446390293369447 0
    outer loop
      vertex -2.618033990263939 -2.1755705028772354 0.01
      vertex -2.732050806283951 -2 0.01
      vertex -2.618033990263939 -2.1755705028772354 0
    endloop
  endfacet
  facet normal -0.8386705716328139 -0.5446390293369447 0
    outer loop
      vertex -2.618033990263939 -2.1755705028772354 0
      vertex -2.732050806283951 -2 0.01
      vertex -2.732050806283951 -2 0
    endloop
  endfacet
  facet normal -0.7071067811865475 -0.7071067811865475 0
    outer loop
      vertex -2.3382612094283104 -2.4862896502017975 0
      vertex -2.3382612094283104 -2.4862896502017975 0.01
      vertex -2.4862896502017975 -2.3382612094283104 0.01
    endloop
  endfacet
  facet normal -0.7071067811865475 -0.7071067811865475 0
    outer loop
      vertex -2.3382612094283104 -2.4862896502017975 0
      vertex -2.4862896502017975 -2.3382612094283104 0.01
      vertex -2.4862896502017975 -2.3382612094283104 0
    endloop
  endfacet
  facet normal -0.4539904868277023 -0.8910065307672812 0
    outer loop
      vertex -1.8134732842445374 -2.827090911567211 0
      vertex -2 -2.732050806283951 0.01
      vertex -2 -2.732050806283951 0
    endloop
  endfacet
  facet normal -0.4539904868277023 -0.8910065307672812 0
    outer loop
      vertex -1.8134732842445374 -2.827090911567211 0
      vertex -1.8134732842445374 -2.827090911567211 0.01
      vertex -2 -2.732050806283951 0.01
    endloop
  endfacet
  facet normal -0.35836798186191504 -0.9335804140920149 0
    outer loop
      vertex -1.8134732842445374 -2.827090911567211 0
      vertex -1.618033990263939 -2.9021130353212357 0
      vertex -1.618033990263939 -2.9021130353212357 0.01
    endloop
  endfacet
  facet normal -0.2588190273711286 -0.9659258310401804 0
    outer loop
      vertex -1.618033990263939 -2.9021130353212357 0
      vertex -1.4158233851194382 -2.9562951996922493 0
      vertex -1.618033990263939 -2.9021130353212357 0.01
    endloop
  endfacet
  facet normal -0.35836798186191504 -0.9335804140920149 0
    outer loop
      vertex -1.8134732842445374 -2.827090911567211 0
      vertex -1.618033990263939 -2.9021130353212357 0.01
      vertex -1.8134732842445374 -2.827090911567211 0.01
    endloop
  endfacet
  facet normal -0.2588190273711286 -0.9659258310401804 0
    outer loop
      vertex -1.618033990263939 -2.9021130353212357 0.01
      vertex -1.4158233851194382 -2.9562951996922493 0
      vertex -1.4158233851194382 -2.9562951996922493 0.01
    endloop
  endfacet
  facet normal -0.15643445553477123 -0.9876883421006546 0
    outer loop
      vertex -1.4158233851194382 -2.9562951996922493 0
      vertex -1.2090569287538528 -2.9890437871217728 0
      vertex -1.4158233851194382 -2.9562951996922493 0.01
    endloop
  endfacet
  facet normal -0.15643445553477123 -0.9876883421006546 0
    outer loop
      vertex -1.4158233851194382 -2.9562951996922493 0.01
      vertex -1.2090569287538528 -2.9890437871217728 0
      vertex -1.2090569287538528 -2.9890437871217728 0.01
    endloop
  endfacet
  facet normal -0.052335972908934415 -0.9986295338811463 0
    outer loop
      vertex -1.2090569287538528 -2.9890437871217728 0.01
      vertex -1.2090569287538528 -2.9890437871217728 0
      vertex -1 -3 0.01
    endloop
  endfacet
  facet normal -0.052335972908934415 -0.9986295338811463 0
    outer loop
      vertex -1.2090569287538528 -2.9890437871217728 0
      vertex -1 -3 0
      vertex -1 -3 0.01
    endloop
  endfacet
  facet normal -0.8910065307672812 -0.4539904868277023 0
    outer loop
      vertex -2.732050806283951 -2 0.01
      vertex -2.827090911567211 -1.8134732842445374 0
      vertex -2.732050806283951 -2 0
    endloop
  endfacet
  facet normal -0.8910065307672812 -0.4539904868277023 0
    outer loop
      vertex -2.732050806283951 -2 0.01
      vertex -2.827090911567211 -1.8134732842445374 0.01
      vertex -2.827090911567211 -1.8134732842445374 0
    endloop
  endfacet
  facet normal -0.9335804140920149 -0.35836798186191504 0
    outer loop
      vertex -2.827090911567211 -1.8134732842445374 0
      vertex -2.827090911567211 -1.8134732842445374 0.01
      vertex -2.9021130353212357 -1.618033990263939 0
    endloop
  endfacet
  facet normal -0.9335804140920149 -0.35836798186191504 0
    outer loop
      vertex -2.827090911567211 -1.8134732842445374 0.01
      vertex -2.9021130353212357 -1.618033990263939 0.01
      vertex -2.9021130353212357 -1.618033990263939 0
    endloop
  endfacet
  facet normal -0.9659258310401804 -0.2588190273711286 0
    outer loop
      vertex -2.9021130353212357 -1.618033990263939 0
      vertex -2.9021130353212357 -1.618033990263939 0.01
      vertex -2.9562951996922493 -1.4158233851194382 0.01
    endloop
  endfacet
  facet normal -0.9659258310401804 -0.2588190273711286 0
    outer loop
      vertex -2.9021130353212357 -1.618033990263939 0
      vertex -2.9562951996922493 -1.4158233851194382 0.01
      vertex -2.9562951996922493 -1.4158233851194382 0
    endloop
  endfacet
  facet normal -0.9876883421006546 -0.15643445553477123 0
    outer loop
      vertex -2.9562951996922493 -1.4158233851194382 0.01
      vertex -2.9890437871217728 -1.2090569287538528 0
      vertex -2.9562951996922493 -1.4158233851194382 0
    endloop
  endfacet
  facet normal -0.9876883421006546 -0.15643445553477123 0
    outer loop
      vertex -2.9562951996922493 -1.4158233851194382 0.01
      vertex -2.9890437871217728 -1.2090569287538528 0.01
      vertex -2.9890437871217728 -1.2090569287538528 0
    endloop
  endfacet
  facet normal -0.9986295338811463 -0.052335972908934415 0
    outer loop
      vertex -2.9890437871217728 -1.2090569287538528 0.01
      vertex -3 -1 0.01
      vertex -2.9890437871217728 -1.2090569287538528 0
    endloop
  endfacet
  facet normal -0.9986295338811463 -0.052335972908934415 0
    outer loop
      vertex -2.9890437871217728 -1.2090569287538528 0
      vertex -3 -1 0.01
      vertex -3 -1 0
    endloop
  endfacet
  facet normal -0.5985369756348835 -0.7391315893878406 0.3089303843373966
    outer loop
      vertex -2.3382612094283104 -2.4862896502017975 0.01
      vertex -2.1755705028772354 -2.618033990263939 0.01
      vertex 0.6617387872822835 0.5137103490452115 13
    endloop
  endfacet
  facet normal -0.5188069632401799 -0.7988926775178709 0.30431862365262774
    outer loop
      vertex -2.1755705028772354 -2.618033990263939 0.01
      vertex -2 -2.732050806283951 0.01
      vertex 1 0.2679491924311228 13
    endloop
  endfacet
  facet normal -0.7391315893878405 -0.5985369756348834 0.3089303843373965
    outer loop
      vertex -2.618033990263939 -2.1755705028772354 0.01
      vertex -2.4862896502017975 -2.3382612094283104 0.01
      vertex 0.5137103490452115 0.6617387872822835 13
    endloop
  endfacet
  facet normal -0.7988926775178709 -0.5188069632401799 0.30431862365262774
    outer loop
      vertex -2.618033990263939 -2.1755705028772354 0.01
      vertex 0.2679491924311228 1 13
      vertex -2.732050806283951 -2 0.01
    endloop
  endfacet
  facet normal -0.6721641719411999 -0.6721641719411999 0.3104684394865316
    outer loop
      vertex -2.3382612094283104 -2.4862896502017975 0.01
      vertex 0.5137103490452115 0.6617387872822835 13
      vertex -2.4862896502017975 -2.3382612094283104 0.01
    endloop
  endfacet
  facet normal -0.1512437359916405 -0.954915426681617 0.25546400961535876
    outer loop
      vertex -1.4158233851194382 -2.9562951996922493 0.01
      vertex -1.2090569287538528 -2.9890437871217728 0.01
      vertex 1.790943073464693 0.01095620926345342 13
    endloop
  endfacet
  facet normal -0.05085930724161797 -0.9704530834382278 0.23586891213582775
    outer loop
      vertex -1.2090569287538528 -2.9890437871217728 0.01
      vertex -1 -3 0.01
      vertex 1.790943073464693 0.01095620926345342 13
    endloop
  endfacet
  facet normal -0.43355589433391883 -0.8509013834265192 0.29664140333262917
    outer loop
      vertex -1.8134732842445374 -2.827090911567211 0.01
      vertex 1.1865267138483997 0.17290908471479827 13
      vertex -2 -2.732050806283951 0.01
    endloop
  endfacet
  facet normal -0.34340781288482786 -0.8946078455161283 0.28591585613716897
    outer loop
      vertex -1.8134732842445374 -2.827090911567211 0.01
      vertex -1.618033990263939 -2.9021130353212357 0.01
      vertex 1.1865267138483997 0.17290908471479827 13
    endloop
  endfacet
  facet normal -0.24904818423358183 -0.9294605453405136 0.2721729167005251
    outer loop
      vertex -1.618033990263939 -2.9021130353212357 0.01
      vertex -1.4158233851194382 -2.9562951996922493 0.01
      vertex 1.5841766183644812 0.04370479853238862 13
    endloop
  endfacet
  facet normal -0.8509013834265192 -0.43355589433391883 0.29664140333262917
    outer loop
      vertex -2.732050806283951 -2 0.01
      vertex 0.17290908471479827 1.1865267138483997 13
      vertex -2.827090911567211 -1.8134732842445374 0.01
    endloop
  endfacet
  facet normal -0.8946078455161283 -0.34340781288482786 0.28591585613716897
    outer loop
      vertex -2.827090911567211 -1.8134732842445374 0.01
      vertex 0.17290908471479827 1.1865267138483997 13
      vertex -2.9021130353212357 -1.618033990263939 0.01
    endloop
  endfacet
  facet normal -0.9294605453405136 -0.24904818423358183 0.2721729167005251
    outer loop
      vertex -2.9021130353212357 -1.618033990263939 0.01
      vertex 0.04370479853238862 1.5841766183644812 13
      vertex -2.9562951996922493 -1.4158233851194382 0.01
    endloop
  endfacet
  facet normal -0.954915426681617 -0.1512437359916405 0.25546400961535876
    outer loop
      vertex -2.9562951996922493 -1.4158233851194382 0.01
      vertex 0.01095620926345342 1.790943073464693 13
      vertex -2.9890437871217728 -1.2090569287538528 0.01
    endloop
  endfacet
  facet normal -0.9704530834382278 -0.05085930724161797 0.23586891213582775
    outer loop
      vertex -2.9890437871217728 -1.2090569287538528 0.01
      vertex 0.01095620926345342 1.790943073464693 13
      vertex -3 -1 0.01
    endloop
  endfacet
  facet normal 0 0 -1
    outer loop
      vertex -2.1755705028772354 -2.618033990263939 0
      vertex -2.827090911567211 28.813473284244537 0
      vertex -2 -2.732050806283951 0
    endloop
  endfacet
  facet normal 0 0 -1
    outer loop
      vertex -1.8134732842445374 -2.827090911567211 0
      vertex -2.827090911567211 28.813473284244537 0
      vertex -1.618033990263939 -2.9021130353212357 0
    endloop
  endfacet
  facet normal 0 0 -1
    outer loop
      vertex -1.8134732842445374 -2.827090911567211 0
      vertex -2 -2.732050806283951 0
      vertex -2.827090911567211 28.813473284244537 0
    endloop
  endfacet
  facet normal 0 0 -1
    outer loop
      vertex -2.3382612094283104 -2.4862896502017975 0
      vertex -2.4862896502017975 -2.3382612094283104 0
      vertex -2.827090911567211 28.813473284244537 0
    endloop
  endfacet
  facet normal 0 0 -1
    outer loop
      vertex -2.732050806283951 -2 0
      vertex -2.827090911567211 -1.8134732842445374 0
      vertex -2.827090911567211 28.813473284244537 0
    endloop
  endfacet
  facet normal 0 0 -1
    outer loop
      vertex -2.618033990263939 -2.1755705028772354 0
      vertex -2.827090911567211 28.813473284244537 0
      vertex -2.4862896502017975 -2.3382612094283104 0
    endloop
  endfacet
  facet normal 0 0 -1
    outer loop
      vertex -2.618033990263939 -2.1755705028772354 0
      vertex -2.732050806283951 -2 0
      vertex -2.827090911567211 28.813473284244537 0
    endloop
  endfacet
  facet normal 0 0 -1
    outer loop
      vertex -2.3382612094283104 -2.4862896502017975 0
      vertex -2.827090911567211 28.813473284244537 0
      vertex -2.1755705028772354 -2.618033990263939 0
    endloop
  endfacet
  facet normal 0 0 -1
    outer loop
      vertex -1.618033990263939 -2.9021130353212357 0
      vertex -2.827090911567211 28.813473284244537 0
      vertex -1.4158233851194382 -2.9562951996922493 0
    endloop
  endfacet
  facet normal 0 0 -1
    outer loop
      vertex -1.4158233851194382 -2.9562951996922493 0
      vertex -2.827090911567211 28.813473284244537 0
      vertex -1.2090569287538528 -2.9890437871217728 0
    endloop
  endfacet
  facet normal 0 0 -1
    outer loop
      vertex -1.2090569287538528 -2.9890437871217728 0
      vertex -2.827090911567211 28.813473284244537 0
      vertex -1 -3 0
    endloop
  endfacet
  facet normal 0 0 -1
    outer loop
      vertex -2.827090911567211 -1.8134732842445374 0
      vertex -2.9021130353212357 -1.618033990263939 0
      vertex -2.827090911567211 28.813473284244537 0
    endloop
  endfacet
  facet normal 0 0 -1
    outer loop
      vertex -2.9021130353212357 -1.618033990263939 0
      vertex -2.9562951996922493 -1.4158233851194382 0
      vertex -2.827090911567211 28.813473284244537 0
    endloop
  endfacet
  facet normal -1 0 0
    outer loop
      vertex -3 -1 0.01
      vertex -3 28 0
      vertex -3 -1 0
    endloop
  endfacet
  facet normal 0 0 -1
    outer loop
      vertex -2.9562951996922493 -1.4158233851194382 0
      vertex -2.9890437871217728 -1.2090569287538528 0
      vertex -2.827090911567211 28.813473284244537 0
    endloop
  endfacet
  facet normal 0 0 -1
    outer loop
      vertex -2.9890437871217728 -1.2090569287538528 0
      vertex -3 -1 0
      vertex -2.827090911567211 28.813473284244537 0
    endloop
  endfacet
  facet normal 0 -1 0
    outer loop
      vertex -1 -3 0.01
      vertex -1 -3 0
      vertex 59 -3 0
    endloop
  endfacet
  facet normal 0 0 -1
    outer loop
      vertex -1 -3 0
      vertex -2.827090911567211 28.813473284244537 0
      vertex 59 -3 0
    endloop
  endfacet
  facet normal -0.1512437451068858 -0.9549154247537244 0.25546401142520586
    outer loop
      vertex -1.4158233851194382 -2.9562951996922493 0.01
      vertex 1.790943073464693 0.01095620926345342 13
      vertex 1.5841766183644812 0.04370479853238862 13
    endloop
  endfacet
  facet normal -0.050859291085243064 -0.9704530850384827 0.23586890903550264
    outer loop
      vertex -1 -3 0.01
      vertex 2 0 13
      vertex 1.790943073464693 0.01095620926345342 13
    endloop
  endfacet
  facet normal -0.6721641719411999 -0.6721641719411999 0.3104684394865311
    outer loop
      vertex -2.3382612094283104 -2.4862896502017975 0.01
      vertex 0.6617387872822835 0.5137103490452115 13
      vertex 0.5137103490452115 0.6617387872822835 13
    endloop
  endfacet
  facet normal -0.5985369659417312 -0.7391315973225615 0.30893038413316615
    outer loop
      vertex -2.1755705028772354 -2.618033990263939 0.01
      vertex 0.8244294954150537 0.3819660112501051 13
      vertex 0.6617387872822835 0.5137103490452115 13
    endloop
  endfacet
  facet normal -0.5188069685633988 -0.798892673873635 0.30431862414431743
    outer loop
      vertex -2.1755705028772354 -2.618033990263939 0.01
      vertex 1 0.2679491924311228 13
      vertex 0.8244294954150537 0.3819660112501051 13
    endloop
  endfacet
  facet normal -0.7391315973225615 -0.5985369659417312 0.30893038413316615
    outer loop
      vertex -2.618033990263939 -2.1755705028772354 0.01
      vertex 0.5137103490452115 0.6617387872822835 13
      vertex 0.3819660112501051 0.8244294954150537 13
    endloop
  endfacet
  facet normal -0.8509013767348811 -0.4335559064562675 0.2966414048098614
    outer loop
      vertex -2.732050806283951 -2 0.01
      vertex 0.2679491924311228 1 13
      vertex 0.17290908471479827 1.1865267138483997 13
    endloop
  endfacet
  facet normal -0.798892673873635 -0.5188069685633988 0.30431862414431743
    outer loop
      vertex -2.618033990263939 -2.1755705028772354 0.01
      vertex 0.3819660112501051 0.8244294954150537 13
      vertex 0.2679491924311228 1 13
    endloop
  endfacet
  facet normal -0.4335559064562675 -0.8509013767348811 0.2966414048098614
    outer loop
      vertex -2 -2.732050806283951 0.01
      vertex 1.1865267138483997 0.17290908471479827 13
      vertex 1 0.2679491924311228 13
    endloop
  endfacet
  facet normal -0.34340778229744956 -0.8946078583938328 0.2859158525817476
    outer loop
      vertex -1.618033990263939 -2.9021130353212357 0.01
      vertex 1.381966011250105 0.09788696740969294 13
      vertex 1.1865267138483997 0.17290908471479827 13
    endloop
  endfacet
  facet normal -0.24904820108076067 -0.9294605399670254 0.2721729196350048
    outer loop
      vertex -1.618033990263939 -2.9021130353212357 0.01
      vertex 1.5841766183644812 0.04370479853238862 13
      vertex 1.381966011250105 0.09788696740969294 13
    endloop
  endfacet
  facet normal -0.8946078583938328 -0.34340778229744956 0.2859158525817476
    outer loop
      vertex -2.9021130353212357 -1.618033990263939 0.01
      vertex 0.17290908471479827 1.1865267138483997 13
      vertex 0.09788696740969294 1.381966011250105 13
    endloop
  endfacet
  facet normal -0.9294605399670253 -0.24904820108076062 0.27217291963500473
    outer loop
      vertex -2.9021130353212357 -1.618033990263939 0.01
      vertex 0.09788696740969294 1.381966011250105 13
      vertex 0.04370479853238862 1.5841766183644812 13
    endloop
  endfacet
  facet normal -0.9549154247537244 -0.1512437451068858 0.25546401142520586
    outer loop
      vertex -2.9562951996922493 -1.4158233851194382 0.01
      vertex 0.04370479853238862 1.5841766183644812 13
      vertex 0.01095620926345342 1.790943073464693 13
    endloop
  endfacet
  facet normal -0.9704530850384827 -0.050859291085243064 0.23586890903550264
    outer loop
      vertex -3 -1 0.01
      vertex 0.01095620926345342 1.790943073464693 13
      vertex 0 2 13
    endloop
  endfacet
  facet normal -0.9743532564679156 0 0.22502384675933387
    outer loop
      vertex -3 -1 0.01
      vertex 0 2 13
      vertex 0 25 13
    endloop
  endfacet
  facet normal 0 0 1
    outer loop
      vertex 0 2 13
      vertex 2.8000000000000007 2.8000000000000007 13
      vertex 2.8000000000000007 24.2 13
    endloop
  endfacet
  facet normal 0 -0.9743532564679156 0.22502384675933385
    outer loop
      vertex -1 -3 0.01
      vertex 56 0 13
      vertex 2 0 13
    endloop
  endfacet
  facet normal 0 0 1
    outer loop
      vertex 0.6617387872822835 0.5137103490452115 13
      vertex 57.90211303259031 1.381966011250105 13
      vertex 0.5137103490452115 0.6617387872822835 13
    endloop
  endfacet
  facet normal 0 0 1
    outer loop
      vertex 0.8244294954150537 0.3819660112501051 13
      vertex 1 0.2679491924311228 13
      vertex 57.90211303259031 1.381966011250105 13
    endloop
  endfacet
  facet normal 0 0 1
    outer loop
      vertex 0.6617387872822835 0.5137103490452115 13
      vertex 0.8244294954150537 0.3819660112501051 13
      vertex 57.90211303259031 1.381966011250105 13
    endloop
  endfacet
  facet normal 0 0 1
    outer loop
      vertex 0.3819660112501051 0.8244294954150537 13
      vertex 0.5137103490452115 0.6617387872822835 13
      vertex 57.90211303259031 1.381966011250105 13
    endloop
  endfacet
  facet normal 0 0 1
    outer loop
      vertex 0.3819660112501051 0.8244294954150537 13
      vertex 57.90211303259031 1.381966011250105 13
      vertex 0.2679491924311228 1 13
    endloop
  endfacet
  facet normal 0 0 1
    outer loop
      vertex 1.1865267138483997 0.17290908471479827 13
      vertex 57.90211303259031 1.381966011250105 13
      vertex 1 0.2679491924311228 13
    endloop
  endfacet
  facet normal 0 0 1
    outer loop
      vertex 1.1865267138483997 0.17290908471479827 13
      vertex 1.381966011250105 0.09788696740969294 13
      vertex 57.90211303259031 1.381966011250105 13
    endloop
  endfacet
  facet normal 0 0 1
    outer loop
      vertex 1.5841766183644812 0.04370479853238862 13
      vertex 1.790943073464693 0.01095620926345342 13
      vertex 57.90211303259031 1.381966011250105 13
    endloop
  endfacet
  facet normal 0 0 1
    outer loop
      vertex 1.5841766183644812 0.04370479853238862 13
      vertex 57.90211303259031 1.381966011250105 13
      vertex 1.381966011250105 0.09788696740969294 13
    endloop
  endfacet
  facet normal 0 0 1
    outer loop
      vertex 1.790943073464693 0.01095620926345342 13
      vertex 2 0 13
      vertex 57.90211303259031 1.381966011250105 13
    endloop
  endfacet
  facet normal 0 0 1
    outer loop
      vertex 0.2679491924311228 1 13
      vertex 57.90211303259031 1.381966011250105 13
      vertex 0.17290908471479827 1.1865267138483997 13
    endloop
  endfacet
  facet normal 0 0 1
    outer loop
      vertex 0.17290908471479827 1.1865267138483997 13
      vertex 57.90211303259031 1.381966011250105 13
      vertex 0.09788696740969294 1.381966011250105 13
    endloop
  endfacet
  facet normal 0 0 1
    outer loop
      vertex 0.09788696740969294 1.381966011250105 13
      vertex 57.90211303259031 1.381966011250105 13
      vertex 0.04370479853238862 1.5841766183644812 13
    endloop
  endfacet
  facet normal 0 0 1
    outer loop
      vertex 0.04370479853238862 1.5841766183644812 13
      vertex 57.90211303259031 1.381966011250105 13
      vertex 0.01095620926345342 1.790943073464693 13
    endloop
  endfacet
  facet normal 0 0 1
    outer loop
      vertex 0.01095620926345342 1.790943073464693 13
      vertex 57.90211303259031 1.381966011250105 13
      vertex 0 2 13
    endloop
  endfacet
  facet normal 0 0 1
    outer loop
      vertex 0 2 13
      vertex 57.90211303259031 1.381966011250105 13
      vertex 2.8000000000000007 2.8000000000000007 13
    endloop
  endfacet
  facet normal -1 0 0
    outer loop
      vertex -3 -1 0.01
      vertex -3 28 0.01
      vertex -3 28 0
    endloop
  endfacet
  facet normal 0 0 -1
    outer loop
      vertex -3 -1 0
      vertex -3 28 0
      vertex -2.827090911567211 28.813473284244537 0
    endloop
  endfacet
  facet normal -0.9743532564679157 0 0.22502384675933387
    outer loop
      vertex -3 -1 0.01
      vertex 0 25 13
      vertex -3 28 0.01
    endloop
  endfacet
  facet normal -0.9986295338811463 0.052335972908934415 0
    outer loop
      vertex -3 28 0.01
      vertex -2.9890437871217728 28.209056928753853 0.01
      vertex -3 28 0
    endloop
  endfacet
  facet normal -0.9986295338811463 0.052335972908934415 0
    outer loop
      vertex -3 28 0
      vertex -2.9890437871217728 28.209056928753853 0.01
      vertex -2.9890437871217728 28.209056928753853 0
    endloop
  endfacet
  facet normal -0.9876883421006546 0.15643445553477123 0
    outer loop
      vertex -2.9890437871217728 28.209056928753853 0.01
      vertex -2.9562951996922493 28.415823385119438 0.01
      vertex -2.9890437871217728 28.209056928753853 0
    endloop
  endfacet
  facet normal 0 0 -1
    outer loop
      vertex -3 28 0
      vertex -2.9890437871217728 28.209056928753853 0
      vertex -2.827090911567211 28.813473284244537 0
    endloop
  endfacet
  facet normal -0.9876883421006546 0.15643445553477123 0
    outer loop
      vertex -2.9890437871217728 28.209056928753853 0
      vertex -2.9562951996922493 28.415823385119438 0.01
      vertex -2.9562951996922493 28.415823385119438 0
    endloop
  endfacet
  facet normal -0.9659258310401804 0.2588190273711286 0
    outer loop
      vertex -2.9562951996922493 28.415823385119438 0.01
      vertex -2.9021130353212357 28.61803399026394 0.01
      vertex -2.9562951996922493 28.415823385119438 0
    endloop
  endfacet
  facet normal 0 0 -1
    outer loop
      vertex -2.9890437871217728 28.209056928753853 0
      vertex -2.9562951996922493 28.415823385119438 0
      vertex -2.827090911567211 28.813473284244537 0
    endloop
  endfacet
  facet normal -0.9659258310401804 0.2588190273711286 0
    outer loop
      vertex -2.9562951996922493 28.415823385119438 0
      vertex -2.9021130353212357 28.61803399026394 0.01
      vertex -2.9021130353212357 28.61803399026394 0
    endloop
  endfacet
  facet normal 0 0 -1
    outer loop
      vertex -2.9562951996922493 28.415823385119438 0
      vertex -2.9021130353212357 28.61803399026394 0
      vertex -2.827090911567211 28.813473284244537 0
    endloop
  endfacet
  facet normal -0.9335804140920149 0.35836798186191504 0
    outer loop
      vertex -2.9021130353212357 28.61803399026394 0.01
      vertex -2.827090911567211 28.813473284244537 0
      vertex -2.9021130353212357 28.61803399026394 0
    endloop
  endfacet
  facet normal -0.9335804140920149 0.35836798186191504 0
    outer loop
      vertex -2.9021130353212357 28.61803399026394 0.01
      vertex -2.827090911567211 28.813473284244537 0.01
      vertex -2.827090911567211 28.813473284244537 0
    endloop
  endfacet
  facet normal -0.8910065307672812 0.4539904868277023 0
    outer loop
      vertex -2.827090911567211 28.813473284244537 0
      vertex -2.827090911567211 28.813473284244537 0.01
      vertex -2.732050806283951 29 0.01
    endloop
  endfacet
  facet normal -0.8910065307672812 0.4539904868277023 0
    outer loop
      vertex -2.827090911567211 28.813473284244537 0
      vertex -2.732050806283951 29 0.01
      vertex -2.732050806283951 29 0
    endloop
  endfacet
  facet normal 0 0 -1
    outer loop
      vertex -2.827090911567211 28.813473284244537 0
      vertex -2.732050806283951 29 0
      vertex -2.618033990263939 29.175570502877235 0
    endloop
  endfacet
  facet normal -0.8386705716328139 0.5446390293369447 0
    outer loop
      vertex -2.732050806283951 29 0.01
      vertex -2.618033990263939 29.175570502877235 0
      vertex -2.732050806283951 29 0
    endloop
  endfacet
  facet normal 0 0 -1
    outer loop
      vertex -2.827090911567211 28.813473284244537 0
      vertex -2.618033990263939 29.175570502877235 0
      vertex -2.4862896502017975 29.33826120942831 0
    endloop
  endfacet
  facet normal -0.8386705716328139 0.5446390293369447 0
    outer loop
      vertex -2.732050806283951 29 0.01
      vertex -2.618033990263939 29.175570502877235 0.01
      vertex -2.618033990263939 29.175570502877235 0
    endloop
  endfacet
  facet normal 0 0 -1
    outer loop
      vertex -2.827090911567211 28.813473284244537 0
      vertex -2.4862896502017975 29.33826120942831 0
      vertex -2.3382612094283104 29.486289650201797 0
    endloop
  endfacet
  facet normal -0.7771459531683643 0.6293204012854139 0
    outer loop
      vertex -2.618033990263939 29.175570502877235 0.01
      vertex -2.4862896502017975 29.33826120942831 0.01
      vertex -2.618033990263939 29.175570502877235 0
    endloop
  endfacet
  facet normal -0.7771459531683643 0.6293204012854139 0
    outer loop
      vertex -2.618033990263939 29.175570502877235 0
      vertex -2.4862896502017975 29.33826120942831 0.01
      vertex -2.4862896502017975 29.33826120942831 0
    endloop
  endfacet
  facet normal 0 0 -1
    outer loop
      vertex -2.827090911567211 28.813473284244537 0
      vertex -2.3382612094283104 29.486289650201797 0
      vertex -2.1755705028772354 29.61803399026394 0
    endloop
  endfacet
  facet normal -0.7071067811865475 0.7071067811865475 0
    outer loop
      vertex -2.4862896502017975 29.33826120942831 0.01
      vertex -2.3382612094283104 29.486289650201797 0.01
      vertex -2.4862896502017975 29.33826120942831 0
    endloop
  endfacet
  facet normal -0.7071067811865475 0.7071067811865475 0
    outer loop
      vertex -2.4862896502017975 29.33826120942831 0
      vertex -2.3382612094283104 29.486289650201797 0.01
      vertex -2.3382612094283104 29.486289650201797 0
    endloop
  endfacet
  facet normal 0 0 -1
    outer loop
      vertex -2.827090911567211 28.813473284244537 0
      vertex -2.1755705028772354 29.61803399026394 0
      vertex -2 29.73205080628395 0
    endloop
  endfacet
  facet normal 0 0 -1
    outer loop
      vertex -2.827090911567211 28.813473284244537 0
      vertex -2 29.73205080628395 0
      vertex -1.8134732842445374 29.82709091156721 0
    endloop
  endfacet
  facet normal -0.6293204012854139 0.7771459531683643 0
    outer loop
      vertex -2.3382612094283104 29.486289650201797 0.01
      vertex -2.1755705028772354 29.61803399026394 0.01
      vertex -2.3382612094283104 29.486289650201797 0
    endloop
  endfacet
  facet normal -0.6293204012854139 0.7771459531683643 0
    outer loop
      vertex -2.3382612094283104 29.486289650201797 0
      vertex -2.1755705028772354 29.61803399026394 0.01
      vertex -2.1755705028772354 29.61803399026394 0
    endloop
  endfacet
  facet normal 0 0 -1
    outer loop
      vertex -2.827090911567211 28.813473284244537 0
      vertex -1.8134732842445374 29.82709091156721 0
      vertex -1.618033990263939 29.902113035321236 0
    endloop
  endfacet
  facet normal -0.5446390293369447 0.8386705716328139 0
    outer loop
      vertex -2.1755705028772354 29.61803399026394 0
      vertex -2.1755705028772354 29.61803399026394 0.01
      vertex -2 29.73205080628395 0
    endloop
  endfacet
  facet normal -0.5446390293369447 0.8386705716328139 0
    outer loop
      vertex -2.1755705028772354 29.61803399026394 0.01
      vertex -2 29.73205080628395 0.01
      vertex -2 29.73205080628395 0
    endloop
  endfacet
  facet normal 0 0 -1
    outer loop
      vertex -2.827090911567211 28.813473284244537 0
      vertex -1.618033990263939 29.902113035321236 0
      vertex -1.4158233851194382 29.95629519969225 0
    endloop
  endfacet
  facet normal 0 0 -1
    outer loop
      vertex -2.827090911567211 28.813473284244537 0
      vertex -1.4158233851194382 29.95629519969225 0
      vertex -1.2090569287538528 29.989043787121773 0
    endloop
  endfacet
  facet normal 0 0 -1
    outer loop
      vertex -2.827090911567211 28.813473284244537 0
      vertex -1.2090569287538528 29.989043787121773 0
      vertex -1 30 0
    endloop
  endfacet
  facet normal -0.4539904868277023 0.8910065307672812 0
    outer loop
      vertex -2 29.73205080628395 0.01
      vertex -1.8134732842445374 29.82709091156721 0
      vertex -2 29.73205080628395 0
    endloop
  endfacet
  facet normal -0.4539904868277023 0.8910065307672812 0
    outer loop
      vertex -2 29.73205080628395 0.01
      vertex -1.8134732842445374 29.82709091156721 0.01
      vertex -1.8134732842445374 29.82709091156721 0
    endloop
  endfacet
  facet normal -0.35836798186191504 0.9335804140920149 0
    outer loop
      vertex -1.8134732842445374 29.82709091156721 0.01
      vertex -1.618033990263939 29.902113035321236 0.01
      vertex -1.8134732842445374 29.82709091156721 0
    endloop
  endfacet
  facet normal -0.35836798186191504 0.9335804140920149 0
    outer loop
      vertex -1.8134732842445374 29.82709091156721 0
      vertex -1.618033990263939 29.902113035321236 0.01
      vertex -1.618033990263939 29.902113035321236 0
    endloop
  endfacet
  facet normal -0.2588190273711286 0.9659258310401804 0
    outer loop
      vertex -1.618033990263939 29.902113035321236 0.01
      vertex -1.4158233851194382 29.95629519969225 0
      vertex -1.618033990263939 29.902113035321236 0
    endloop
  endfacet
  facet normal -0.2588190273711286 0.9659258310401804 0
    outer loop
      vertex -1.618033990263939 29.902113035321236 0.01
      vertex -1.4158233851194382 29.95629519969225 0.01
      vertex -1.4158233851194382 29.95629519969225 0
    endloop
  endfacet
  facet normal -0.15643445553477123 0.9876883421006546 0
    outer loop
      vertex -1.4158233851194382 29.95629519969225 0.01
      vertex -1.2090569287538528 29.989043787121773 0.01
      vertex -1.4158233851194382 29.95629519969225 0
    endloop
  endfacet
  facet normal -0.15643445553477123 0.9876883421006546 0
    outer loop
      vertex -1.4158233851194382 29.95629519969225 0
      vertex -1.2090569287538528 29.989043787121773 0.01
      vertex -1.2090569287538528 29.989043787121773 0
    endloop
  endfacet
  facet normal -0.052335972908934415 0.9986295338811463 0
    outer loop
      vertex -1.2090569287538528 29.989043787121773 0.01
      vertex -1 30 0
      vertex -1.2090569287538528 29.989043787121773 0
    endloop
  endfacet
  facet normal -0.052335972908934415 0.9986295338811463 0
    outer loop
      vertex -1.2090569287538528 29.989043787121773 0.01
      vertex -1 30 0.01
      vertex -1 30 0
    endloop
  endfacet
  facet normal -0.9704530834382278 0.05085930724161797 0.23586891213582775
    outer loop
      vertex -3 28 0.01
      vertex 0.01095620926345342 25.209056926535307 13
      vertex -2.9890437871217728 28.209056928753853 0.01
    endloop
  endfacet
  facet normal -0.954915426681617 0.1512437359916405 0.25546400961535876
    outer loop
      vertex -2.9890437871217728 28.209056928753853 0.01
      vertex 0.01095620926345342 25.209056926535307 13
      vertex -2.9562951996922493 28.415823385119438 0.01
    endloop
  endfacet
  facet normal -0.9294605453405136 0.24904818423358183 0.2721729167005251
    outer loop
      vertex -2.9562951996922493 28.415823385119438 0.01
      vertex 0.04370479853238862 25.41582338163552 13
      vertex -2.9021130353212357 28.61803399026394 0.01
    endloop
  endfacet
  facet normal -0.8946078455161283 0.34340781288482786 0.2859158561371689
    outer loop
      vertex -2.9021130353212357 28.61803399026394 0.01
      vertex 0.17290908471479827 25.813473286151602 13
      vertex -2.827090911567211 28.813473284244537 0.01
    endloop
  endfacet
  facet normal -0.8509013834265192 0.43355589433391883 0.2966414033326291
    outer loop
      vertex -2.827090911567211 28.813473284244537 0.01
      vertex 0.17290908471479827 25.813473286151602 13
      vertex -2.732050806283951 29 0.01
    endloop
  endfacet
  facet normal -0.7988926775178709 0.5188069632401799 0.30431862365262774
    outer loop
      vertex -2.732050806283951 29 0.01
      vertex 0.2679491924311228 26 13
      vertex -2.618033990263939 29.175570502877235 0.01
    endloop
  endfacet
  facet normal -0.7391315893878406 0.5985369756348835 0.3089303843373965
    outer loop
      vertex -2.618033990263939 29.175570502877235 0.01
      vertex 0.5137103490452115 26.33826121271772 13
      vertex -2.4862896502017975 29.33826120942831 0.01
    endloop
  endfacet
  facet normal -0.6721641719411999 0.6721641719411999 0.3104684394865315
    outer loop
      vertex -2.4862896502017975 29.33826120942831 0.01
      vertex 0.5137103490452115 26.33826121271772 13
      vertex -2.3382612094283104 29.486289650201797 0.01
    endloop
  endfacet
  facet normal -0.5985369756348834 0.7391315893878405 0.30893038433739656
    outer loop
      vertex -2.3382612094283104 29.486289650201797 0.01
      vertex 0.6617387872822835 26.486289650954788 13
      vertex -2.1755705028772354 29.61803399026394 0.01
    endloop
  endfacet
  facet normal -0.5188069632401799 0.7988926775178709 0.30431862365262763
    outer loop
      vertex -2.1755705028772354 29.61803399026394 0.01
      vertex 1 26.73205080756888 13
      vertex -2 29.73205080628395 0.01
    endloop
  endfacet
  facet normal -0.43355589433391883 0.8509013834265192 0.2966414033326292
    outer loop
      vertex -2 29.73205080628395 0.01
      vertex 1.1865267138483997 26.8270909152852 13
      vertex -1.8134732842445374 29.82709091156721 0.01
    endloop
  endfacet
  facet normal -0.34340781288482786 0.8946078455161283 0.285915856137169
    outer loop
      vertex -1.8134732842445374 29.82709091156721 0.01
      vertex 1.1865267138483997 26.8270909152852 13
      vertex -1.618033990263939 29.902113035321236 0.01
    endloop
  endfacet
  facet normal -0.24904818423358183 0.9294605453405136 0.2721729167005251
    outer loop
      vertex -1.618033990263939 29.902113035321236 0.01
      vertex 1.5841766183644812 26.95629520146761 13
      vertex -1.4158233851194382 29.95629519969225 0.01
    endloop
  endfacet
  facet normal -0.1512437359916405 0.954915426681617 0.25546400961535887
    outer loop
      vertex -1.4158233851194382 29.95629519969225 0.01
      vertex 1.790943073464693 26.989043790736545 13
      vertex -1.2090569287538528 29.989043787121773 0.01
    endloop
  endfacet
  facet normal -0.05085930724161796 0.9704530834382277 0.2358689121358278
    outer loop
      vertex -1.2090569287538528 29.989043787121773 0.01
      vertex 1.790943073464693 26.989043790736545 13
      vertex -1 30 0.01
    endloop
  endfacet
  facet normal 0 0 -1
    outer loop
      vertex -2.827090911567211 28.813473284244537 0
      vertex -1 30 0
      vertex 59 30 0
    endloop
  endfacet
  facet normal 0 1 0
    outer loop
      vertex -1 30 0.01
      vertex 59 30 0.01
      vertex -1 30 0
    endloop
  endfacet
  facet normal 0 0.9743532564679156 0.22502384675933387
    outer loop
      vertex -1 30 0.01
      vertex 2 27 13
      vertex 59 30 0.01
    endloop
  endfacet
  facet normal 0 0 1
    outer loop
      vertex 0 2 13
      vertex 2.8000000000000007 24.2 13
      vertex 0 25 13
    endloop
  endfacet
  facet normal -0.9704530850384826 0.050859291085242925 0.23586890903550264
    outer loop
      vertex -3 28 0.01
      vertex 0 25 13
      vertex 0.01095620926345342 25.209056926535307 13
    endloop
  endfacet
  facet normal -0.9549154247537244 0.1512437451068858 0.25546401142520586
    outer loop
      vertex -2.9562951996922493 28.415823385119438 0.01
      vertex 0.01095620926345342 25.209056926535307 13
      vertex 0.04370479853238862 25.41582338163552 13
    endloop
  endfacet
  facet normal -0.9294605399670248 0.24904820108076253 0.27217291963500495
    outer loop
      vertex -2.9021130353212357 28.61803399026394 0.01
      vertex 0.04370479853238862 25.41582338163552 13
      vertex 0.09788696740969294 25.618033988749893 13
    endloop
  endfacet
  facet normal -0.8946078583938354 0.3434077822974438 0.2859158525817466
    outer loop
      vertex -2.9021130353212357 28.61803399026394 0.01
      vertex 0.09788696740969294 25.618033988749893 13
      vertex 0.17290908471479827 25.813473286151602 13
    endloop
  endfacet
  facet normal -0.8509013767348796 0.4335559064562705 0.2966414048098616
    outer loop
      vertex -2.732050806283951 29 0.01
      vertex 0.17290908471479827 25.813473286151602 13
      vertex 0.2679491924311228 26 13
    endloop
  endfacet
  facet normal -0.7988926738736349 0.5188069685633987 0.304318624144318
    outer loop
      vertex -2.618033990263939 29.175570502877235 0.01
      vertex 0.2679491924311228 26 13
      vertex 0.3819660112501051 26.175570504584947 13
    endloop
  endfacet
  facet normal -0.7391315973225647 0.5985369659417278 0.30893038413316565
    outer loop
      vertex -2.618033990263939 29.175570502877235 0.01
      vertex 0.3819660112501051 26.175570504584947 13
      vertex 0.5137103490452115 26.33826121271772 13
    endloop
  endfacet
  facet normal -0.672164171941195 0.672164171941205 0.3104684394865309
    outer loop
      vertex -2.3382612094283104 29.486289650201797 0.01
      vertex 0.5137103490452115 26.33826121271772 13
      vertex 0.6617387872822835 26.486289650954788 13
    endloop
  endfacet
  facet normal -0.5985369659417283 0.7391315973225641 0.308930384133166
    outer loop
      vertex -2.1755705028772354 29.61803399026394 0.01
      vertex 0.6617387872822835 26.486289650954788 13
      vertex 0.8244294954150537 26.618033988749893 13
    endloop
  endfacet
  facet normal -0.5188069685634091 0.798892673873628 0.3043186241443185
    outer loop
      vertex -2.1755705028772354 29.61803399026394 0.01
      vertex 0.8244294954150537 26.618033988749893 13
      vertex 1 26.73205080756888 13
    endloop
  endfacet
  facet normal -0.4335559064562597 0.8509013767348854 0.2966414048098604
    outer loop
      vertex -2 29.73205080628395 0.01
      vertex 1 26.73205080756888 13
      vertex 1.1865267138483997 26.8270909152852 13
    endloop
  endfacet
  facet normal -0.3434077822974538 0.8946078583938308 0.2859158525817483
    outer loop
      vertex -1.618033990263939 29.902113035321236 0.01
      vertex 1.1865267138483997 26.8270909152852 13
      vertex 1.381966011250105 26.902113032590307 13
    endloop
  endfacet
  facet normal -0.24904820108076067 0.9294605399670254 0.2721729196350048
    outer loop
      vertex -1.618033990263939 29.902113035321236 0.01
      vertex 1.381966011250105 26.902113032590307 13
      vertex 1.5841766183644812 26.95629520146761 13
    endloop
  endfacet
  facet normal -0.15124374510687844 0.9549154247537257 0.255464011425205
    outer loop
      vertex -1.4158233851194382 29.95629519969225 0.01
      vertex 1.5841766183644812 26.95629520146761 13
      vertex 1.790943073464693 26.989043790736545 13
    endloop
  endfacet
  facet normal -0.05085929108525065 0.970453085038482 0.23586890903550375
    outer loop
      vertex -1 30 0.01
      vertex 1.790943073464693 26.989043790736545 13
      vertex 2 27 13
    endloop
  endfacet
  facet normal 0 0 1
    outer loop
      vertex 0 25 13
      vertex 2.8000000000000007 24.2 13
      vertex 0.01095620926345342 25.209056926535307 13
    endloop
  endfacet
  facet normal 0 0 1
    outer loop
      vertex 0.01095620926345342 25.209056926535307 13
      vertex 2.8000000000000007 24.2 13
      vertex 0.04370479853238862 25.41582338163552 13
    endloop
  endfacet
  facet normal 0 0 1
    outer loop
      vertex 0.04370479853238862 25.41582338163552 13
      vertex 55.2 24.2 13
      vertex 0.09788696740969294 25.618033988749893 13
    endloop
  endfacet
  facet normal 0 0 1
    outer loop
      vertex 0.09788696740969294 25.618033988749893 13
      vertex 55.2 24.2 13
      vertex 0.17290908471479827 25.813473286151602 13
    endloop
  endfacet
  facet normal 0 0 1
    outer loop
      vertex 0.17290908471479827 25.813473286151602 13
      vertex 55.2 24.2 13
      vertex 0.2679491924311228 26 13
    endloop
  endfacet
  facet normal 0 0 1
    outer loop
      vertex 0.2679491924311228 26 13
      vertex 55.2 24.2 13
      vertex 0.3819660112501051 26.175570504584947 13
    endloop
  endfacet
  facet normal 0 0 1
    outer loop
      vertex 0.3819660112501051 26.175570504584947 13
      vertex 55.2 24.2 13
      vertex 0.5137103490452115 26.33826121271772 13
    endloop
  endfacet
  facet normal 0 0 1
    outer loop
      vertex 0.5137103490452115 26.33826121271772 13
      vertex 55.2 24.2 13
      vertex 0.6617387872822835 26.486289650954788 13
    endloop
  endfacet
  facet normal 0 0 1
    outer loop
      vertex 0.6617387872822835 26.486289650954788 13
      vertex 55.2 24.2 13
      vertex 0.8244294954150537 26.618033988749893 13
    endloop
  endfacet
  facet normal 0 0 1
    outer loop
      vertex 0.04370479853238862 25.41582338163552 13
      vertex 2.8000000000000007 24.2 13
      vertex 55.2 24.2 13
    endloop
  endfacet
  facet normal 0 0 1
    outer loop
      vertex 0.8244294954150537 26.618033988749893 13
      vertex 55.2 24.2 13
      vertex 1 26.73205080756888 13
    endloop
  endfacet
  facet normal 0 0 1
    outer loop
      vertex 1 26.73205080756888 13
      vertex 55.2 24.2 13
      vertex 1.1865267138483997 26.8270909152852 13
    endloop
  endfacet
  facet normal 0 0 1
    outer loop
      vertex 1.1865267138483997 26.8270909152852 13
      vertex 55.2 24.2 13
      vertex 1.381966011250105 26.902113032590307 13
    endloop
  endfacet
  facet normal 0 0 1
    outer loop
      vertex 1.381966011250105 26.902113032590307 13
      vertex 55.2 24.2 13
      vertex 1.5841766183644812 26.95629520146761 13
    endloop
  endfacet
  facet normal 0 0 1
    outer loop
      vertex 1.5841766183644812 26.95629520146761 13
      vertex 55.2 24.2 13
      vertex 1.790943073464693 26.989043790736545 13
    endloop
  endfacet
  facet normal 0 0 1
    outer loop
      vertex 1.790943073464693 26.989043790736545 13
      vertex 55.2 24.2 13
      vertex 2 27 13
    endloop
  endfacet
  facet normal 0 -1 0
    outer loop
      vertex -1 -3 0.01
      vertex 59 -3 0
      vertex 59 -3 0.01
    endloop
  endfacet
  facet normal 0 -0.9743532564679156 0.22502384675933387
    outer loop
      vertex -1 -3 0.01
      vertex 59 -3 0.01
      vertex 56 0 13
    endloop
  endfacet
  facet normal 0 0 -1
    outer loop
      vertex -2.827090911567211 28.813473284244537 0
      vertex 59.20905692875385 -2.9890437871217728 0
      vertex 59 -3 0
    endloop
  endfacet
  facet normal 0 0 -1
    outer loop
      vertex -2.827090911567211 28.813473284244537 0
      vertex 59.41582338511944 -2.9562951996922493 0
      vertex 59.20905692875385 -2.9890437871217728 0
    endloop
  endfacet
  facet normal 0 0 -1
    outer loop
      vertex -2.827090911567211 28.813473284244537 0
      vertex 59.61803399026394 -2.9021130353212357 0
      vertex 59.41582338511944 -2.9562951996922493 0
    endloop
  endfacet
  facet normal 0 0 -1
    outer loop
      vertex -2.827090911567211 28.813473284244537 0
      vertex 59.81347328424454 -2.827090911567211 0
      vertex 59.61803399026394 -2.9021130353212357 0
    endloop
  endfacet
  facet normal 0 0 -1
    outer loop
      vertex -2.827090911567211 28.813473284244537 0
      vertex 60 -2.732050806283951 0
      vertex 59.81347328424454 -2.827090911567211 0
    endloop
  endfacet
  facet normal 0 0 -1
    outer loop
      vertex -2.827090911567211 28.813473284244537 0
      vertex 60.175570502877235 -2.618033990263939 0
      vertex 60 -2.732050806283951 0
    endloop
  endfacet
  facet normal 0 0 -1
    outer loop
      vertex -2.827090911567211 28.813473284244537 0
      vertex 60.33826120942831 -2.4862896502017975 0
      vertex 60.175570502877235 -2.618033990263939 0
    endloop
  endfacet
  facet normal 0 0 -1
    outer loop
      vertex -2.827090911567211 28.813473284244537 0
      vertex 60.4862896502018 -2.3382612094283104 0
      vertex 60.33826120942831 -2.4862896502017975 0
    endloop
  endfacet
  facet normal 0 0 -1
    outer loop
      vertex -2.827090911567211 28.813473284244537 0
      vertex 60.61803399026394 -2.1755705028772354 0
      vertex 60.4862896502018 -2.3382612094283104 0
    endloop
  endfacet
  facet normal 0 0 -1
    outer loop
      vertex -2.827090911567211 28.813473284244537 0
      vertex 60.73205080628395 -2 0
      vertex 60.61803399026394 -2.1755705028772354 0
    endloop
  endfacet
  facet normal 0 0 -1
    outer loop
      vertex -2.827090911567211 28.813473284244537 0
      vertex 60.82709091156721 -1.8134732842445374 0
      vertex 60.73205080628395 -2 0
    endloop
  endfacet
  facet normal 0 0 -1
    outer loop
      vertex -2.827090911567211 28.813473284244537 0
      vertex 60.902113035321236 -1.618033990263939 0
      vertex 60.82709091156721 -1.8134732842445374 0
    endloop
  endfacet
  facet normal 0 0 -1
    outer loop
      vertex -2.827090911567211 28.813473284244537 0
      vertex 60.95629519969225 -1.4158233851194382 0
      vertex 60.902113035321236 -1.618033990263939 0
    endloop
  endfacet
  facet normal 0 0 -1
    outer loop
      vertex -2.827090911567211 28.813473284244537 0
      vertex 60.98904378712177 -1.2090569287538528 0
      vertex 60.95629519969225 -1.4158233851194382 0
    endloop
  endfacet
  facet normal 0 0 -1
    outer loop
      vertex -2.827090911567211 28.813473284244537 0
      vertex 61 -1 0
      vertex 60.98904378712177 -1.2090569287538528 0
    endloop
  endfacet
  facet normal 0.052335972908934415 -0.9986295338811463 0
    outer loop
      vertex 59 -3 0.01
      vertex 59 -3 0
      vertex 59.20905692875385 -2.9890437871217728 0
    endloop
  endfacet
  facet normal 0.052335972908934415 -0.9986295338811463 0
    outer loop
      vertex 59 -3 0.01
      vertex 59.20905692875385 -2.9890437871217728 0
      vertex 59.20905692875385 -2.9890437871217728 0.01
    endloop
  endfacet
  facet normal 0.15643445553477123 -0.9876883421006546 0
    outer loop
      vertex 59.20905692875385 -2.9890437871217728 0.01
      vertex 59.20905692875385 -2.9890437871217728 0
      vertex 59.41582338511944 -2.9562951996922493 0.01
    endloop
  endfacet
  facet normal 0.15643445553477123 -0.9876883421006546 0
    outer loop
      vertex 59.20905692875385 -2.9890437871217728 0
      vertex 59.41582338511944 -2.9562951996922493 0
      vertex 59.41582338511944 -2.9562951996922493 0.01
    endloop
  endfacet
  facet normal 0.2588190273711286 -0.9659258310401804 0
    outer loop
      vertex 59.41582338511944 -2.9562951996922493 0.01
      vertex 59.41582338511944 -2.9562951996922493 0
      vertex 59.61803399026394 -2.9021130353212357 0
    endloop
  endfacet
  facet normal 0.2588190273711286 -0.9659258310401804 0
    outer loop
      vertex 59.41582338511944 -2.9562951996922493 0.01
      vertex 59.61803399026394 -2.9021130353212357 0
      vertex 59.61803399026394 -2.9021130353212357 0.01
    endloop
  endfacet
  facet normal 0.35836798186191504 -0.9335804140920149 0
    outer loop
      vertex 59.61803399026394 -2.9021130353212357 0
      vertex 59.81347328424454 -2.827090911567211 0.01
      vertex 59.61803399026394 -2.9021130353212357 0.01
    endloop
  endfacet
  facet normal 0.35836798186191504 -0.9335804140920149 0
    outer loop
      vertex 59.61803399026394 -2.9021130353212357 0
      vertex 59.81347328424454 -2.827090911567211 0
      vertex 59.81347328424454 -2.827090911567211 0.01
    endloop
  endfacet
  facet normal 0.4539904868277023 -0.8910065307672812 0
    outer loop
      vertex 59.81347328424454 -2.827090911567211 0.01
      vertex 59.81347328424454 -2.827090911567211 0
      vertex 60 -2.732050806283951 0.01
    endloop
  endfacet
  facet normal 0.4539904868277023 -0.8910065307672812 0
    outer loop
      vertex 59.81347328424454 -2.827090911567211 0
      vertex 60 -2.732050806283951 0
      vertex 60 -2.732050806283951 0.01
    endloop
  endfacet
  facet normal 0.5446390293369447 -0.8386705716328139 0
    outer loop
      vertex 60 -2.732050806283951 0
      vertex 60.175570502877235 -2.618033990263939 0
      vertex 60 -2.732050806283951 0.01
    endloop
  endfacet
  facet normal 0.5446390293369447 -0.8386705716328139 0
    outer loop
      vertex 60 -2.732050806283951 0.01
      vertex 60.175570502877235 -2.618033990263939 0
      vertex 60.175570502877235 -2.618033990263939 0.01
    endloop
  endfacet
  facet normal 0.6293204012854139 -0.7771459531683643 0
    outer loop
      vertex 60.175570502877235 -2.618033990263939 0.01
      vertex 60.175570502877235 -2.618033990263939 0
      vertex 60.33826120942831 -2.4862896502017975 0.01
    endloop
  endfacet
  facet normal 0.6293204012854139 -0.7771459531683643 0
    outer loop
      vertex 60.175570502877235 -2.618033990263939 0
      vertex 60.33826120942831 -2.4862896502017975 0
      vertex 60.33826120942831 -2.4862896502017975 0.01
    endloop
  endfacet
  facet normal 0.7071067811865475 -0.7071067811865475 0
    outer loop
      vertex 60.33826120942831 -2.4862896502017975 0.01
      vertex 60.33826120942831 -2.4862896502017975 0
      vertex 60.4862896502018 -2.3382612094283104 0
    endloop
  endfacet
  facet normal 0.7071067811865475 -0.7071067811865475 0
    outer loop
      vertex 60.33826120942831 -2.4862896502017975 0.01
      vertex 60.4862896502018 -2.3382612094283104 0
      vertex 60.4862896502018 -2.3382612094283104 0.01
    endloop
  endfacet
  facet normal 0.7771459531683643 -0.6293204012854139 0
    outer loop
      vertex 60.4862896502018 -2.3382612094283104 0
      vertex 60.61803399026394 -2.1755705028772354 0
      vertex 60.4862896502018 -2.3382612094283104 0.01
    endloop
  endfacet
  facet normal 0.7771459531683643 -0.6293204012854139 0
    outer loop
      vertex 60.4862896502018 -2.3382612094283104 0.01
      vertex 60.61803399026394 -2.1755705028772354 0
      vertex 60.61803399026394 -2.1755705028772354 0.01
    endloop
  endfacet
  facet normal 0.8386705716328139 -0.5446390293369447 0
    outer loop
      vertex 60.61803399026394 -2.1755705028772354 0
      vertex 60.73205080628395 -2 0
      vertex 60.61803399026394 -2.1755705028772354 0.01
    endloop
  endfacet
  facet normal 0.8386705716328139 -0.5446390293369447 0
    outer loop
      vertex 60.61803399026394 -2.1755705028772354 0.01
      vertex 60.73205080628395 -2 0
      vertex 60.73205080628395 -2 0.01
    endloop
  endfacet
  facet normal 0.8910065307672812 -0.4539904868277023 0
    outer loop
      vertex 60.73205080628395 -2 0
      vertex 60.82709091156721 -1.8134732842445374 0
      vertex 60.73205080628395 -2 0.01
    endloop
  endfacet
  facet normal 0.8910065307672812 -0.4539904868277023 0
    outer loop
      vertex 60.73205080628395 -2 0.01
      vertex 60.82709091156721 -1.8134732842445374 0
      vertex 60.82709091156721 -1.8134732842445374 0.01
    endloop
  endfacet
  facet normal 0.9335804140920149 -0.35836798186191504 0
    outer loop
      vertex 60.82709091156721 -1.8134732842445374 0.01
      vertex 60.82709091156721 -1.8134732842445374 0
      vertex 60.902113035321236 -1.618033990263939 0.01
    endloop
  endfacet
  facet normal 0.9335804140920149 -0.35836798186191504 0
    outer loop
      vertex 60.82709091156721 -1.8134732842445374 0
      vertex 60.902113035321236 -1.618033990263939 0
      vertex 60.902113035321236 -1.618033990263939 0.01
    endloop
  endfacet
  facet normal 0.9659258310401804 -0.2588190273711286 0
    outer loop
      vertex 60.902113035321236 -1.618033990263939 0
      vertex 60.95629519969225 -1.4158233851194382 0.01
      vertex 60.902113035321236 -1.618033990263939 0.01
    endloop
  endfacet
  facet normal 0.9659258310401804 -0.2588190273711286 0
    outer loop
      vertex 60.902113035321236 -1.618033990263939 0
      vertex 60.95629519969225 -1.4158233851194382 0
      vertex 60.95629519969225 -1.4158233851194382 0.01
    endloop
  endfacet
  facet normal 0.9876883421006546 -0.15643445553477123 0
    outer loop
      vertex 60.95629519969225 -1.4158233851194382 0.01
      vertex 60.95629519969225 -1.4158233851194382 0
      vertex 60.98904378712177 -1.2090569287538528 0.01
    endloop
  endfacet
  facet normal 0.9876883421006546 -0.15643445553477123 0
    outer loop
      vertex 60.95629519969225 -1.4158233851194382 0
      vertex 60.98904378712177 -1.2090569287538528 0
      vertex 60.98904378712177 -1.2090569287538528 0.01
    endloop
  endfacet
  facet normal 0.9986295338811463 -0.052335972908934415 0
    outer loop
      vertex 60.98904378712177 -1.2090569287538528 0.01
      vertex 60.98904378712177 -1.2090569287538528 0
      vertex 61 -1 0
    endloop
  endfacet
  facet normal 0.9986295338811463 -0.052335972908934415 0
    outer loop
      vertex 60.98904378712177 -1.2090569287538528 0.01
      vertex 61 -1 0
      vertex 61 -1 0.01
    endloop
  endfacet
  facet normal 0.05085930724161797 -0.9704530834382278 0.23586891213582775
    outer loop
      vertex 59 -3 0.01
      vertex 59.20905692875385 -2.9890437871217728 0.01
      vertex 56.209056926535304 0.01095620926345342 13
    endloop
  endfacet
  facet normal 0.1512437359916405 -0.954915426681617 0.2554640096153588
    outer loop
      vertex 59.20905692875385 -2.9890437871217728 0.01
      vertex 59.41582338511944 -2.9562951996922493 0.01
      vertex 56.209056926535304 0.01095620926345342 13
    endloop
  endfacet
  facet normal 0.24904818423358183 -0.9294605453405136 0.2721729167005251
    outer loop
      vertex 59.41582338511944 -2.9562951996922493 0.01
      vertex 59.61803399026394 -2.9021130353212357 0.01
      vertex 56.41582338163552 0.04370479853238862 13
    endloop
  endfacet
  facet normal 0.34340781288482786 -0.8946078455161283 0.285915856137169
    outer loop
      vertex 59.61803399026394 -2.9021130353212357 0.01
      vertex 59.81347328424454 -2.827090911567211 0.01
      vertex 56.8134732861516 0.17290908471479827 13
    endloop
  endfacet
  facet normal 0.43355589433391883 -0.8509013834265192 0.2966414033326292
    outer loop
      vertex 59.81347328424454 -2.827090911567211 0.01
      vertex 60 -2.732050806283951 0.01
      vertex 56.8134732861516 0.17290908471479827 13
    endloop
  endfacet
  facet normal 0.5188069632401799 -0.7988926775178709 0.30431862365262774
    outer loop
      vertex 60 -2.732050806283951 0.01
      vertex 60.175570502877235 -2.618033990263939 0.01
      vertex 57 0.2679491924311228 13
    endloop
  endfacet
  facet normal 0.5985369756348835 -0.7391315893878406 0.3089303843373965
    outer loop
      vertex 60.175570502877235 -2.618033990263939 0.01
      vertex 60.33826120942831 -2.4862896502017975 0.01
      vertex 57.33826121271772 0.5137103490452115 13
    endloop
  endfacet
  facet normal 0.6721641719411999 -0.6721641719411999 0.3104684394865315
    outer loop
      vertex 60.33826120942831 -2.4862896502017975 0.01
      vertex 60.4862896502018 -2.3382612094283104 0.01
      vertex 57.33826121271772 0.5137103490452115 13
    endloop
  endfacet
  facet normal 0.7391315893878405 -0.5985369756348834 0.30893038433739656
    outer loop
      vertex 60.4862896502018 -2.3382612094283104 0.01
      vertex 60.61803399026394 -2.1755705028772354 0.01
      vertex 57.48628965095479 0.6617387872822835 13
    endloop
  endfacet
  facet normal 0.7988926775178709 -0.5188069632401799 0.3043186236526279
    outer loop
      vertex 60.61803399026394 -2.1755705028772354 0.01
      vertex 60.73205080628395 -2 0.01
      vertex 57.732050807568875 1 13
    endloop
  endfacet
  facet normal 0.8509013834265193 -0.4335558943339189 0.296641403332629
    outer loop
      vertex 60.73205080628395 -2 0.01
      vertex 60.82709091156721 -1.8134732842445374 0.01
      vertex 57.827090915285204 1.1865267138483997 13
    endloop
  endfacet
  facet normal 0.8946078455161283 -0.34340781288482786 0.28591585613716874
    outer loop
      vertex 60.82709091156721 -1.8134732842445374 0.01
      vertex 60.902113035321236 -1.618033990263939 0.01
      vertex 57.827090915285204 1.1865267138483997 13
    endloop
  endfacet
  facet normal 0.9294605453405136 -0.24904818423358183 0.2721729167005251
    outer loop
      vertex 60.902113035321236 -1.618033990263939 0.01
      vertex 60.95629519969225 -1.4158233851194382 0.01
      vertex 57.95629520146761 1.5841766183644812 13
    endloop
  endfacet
  facet normal 0.954915426681617 -0.1512437359916405 0.25546400961535887
    outer loop
      vertex 60.95629519969225 -1.4158233851194382 0.01
      vertex 60.98904378712177 -1.2090569287538528 0.01
      vertex 57.989043790736545 1.790943073464693 13
    endloop
  endfacet
  facet normal 0.9704530834382278 -0.05085930724161797 0.23586891213582784
    outer loop
      vertex 60.98904378712177 -1.2090569287538528 0.01
      vertex 61 -1 0.01
      vertex 57.989043790736545 1.790943073464693 13
    endloop
  endfacet
  facet normal 1 0 0
    outer loop
      vertex 61 -1 0.01
      vertex 61 -1 0
      vertex 61 28 0
    endloop
  endfacet
  facet normal 0.9743532564679157 0 0.22502384675933387
    outer loop
      vertex 61 -1 0.01
      vertex 61 28 0.01
      vertex 58 2 13
    endloop
  endfacet
  facet normal 0 0 1
    outer loop
      vertex 2 0 13
      vertex 56 0 13
      vertex 57.90211303259031 1.381966011250105 13
    endloop
  endfacet
  facet normal 0 0 1
    outer loop
      vertex 57.90211303259031 1.381966011250105 13
      vertex 55.2 2.8000000000000007 13
      vertex 2.8000000000000007 2.8000000000000007 13
    endloop
  endfacet
  facet normal 0.05085929108524385 -0.9704530850384824 0.2358689090355031
    outer loop
      vertex 59 -3 0.01
      vertex 56.209056926535304 0.01095620926345342 13
      vertex 56 0 13
    endloop
  endfacet
  facet normal 0.1512437451068831 -0.954915424753725 0.2554640114252051
    outer loop
      vertex 59.41582338511944 -2.9562951996922493 0.01
      vertex 56.41582338163552 0.04370479853238862 13
      vertex 56.209056926535304 0.01095620926345342 13
    endloop
  endfacet
  facet normal 0.24904820108076253 -0.9294605399670248 0.27217291963500495
    outer loop
      vertex 59.61803399026394 -2.9021130353212357 0.01
      vertex 56.61803398874989 0.09788696740969294 13
      vertex 56.41582338163552 0.04370479853238862 13
    endloop
  endfacet
  facet normal 0.34340778229744956 -0.8946078583938328 0.2859158525817476
    outer loop
      vertex 59.61803399026394 -2.9021130353212357 0.01
      vertex 56.8134732861516 0.17290908471479827 13
      vertex 56.61803398874989 0.09788696740969294 13
    endloop
  endfacet
  facet normal 0.4335559064562645 -0.8509013767348828 0.29664140480986123
    outer loop
      vertex 60 -2.732050806283951 0.01
      vertex 57 0.2679491924311228 13
      vertex 56.8134732861516 0.17290908471479827 13
    endloop
  endfacet
  facet normal 0.5188069685633987 -0.7988926738736349 0.304318624144318
    outer loop
      vertex 60.175570502877235 -2.618033990263939 0.01
      vertex 57.17557050458495 0.3819660112501051 13
      vertex 57 0.2679491924311228 13
    endloop
  endfacet
  facet normal 0.5985369659417278 -0.7391315973225647 0.30893038413316565
    outer loop
      vertex 60.175570502877235 -2.618033990263939 0.01
      vertex 57.33826121271772 0.5137103490452115 13
      vertex 57.17557050458495 0.3819660112501051 13
    endloop
  endfacet
  facet normal 0.672164171941205 -0.672164171941195 0.3104684394865309
    outer loop
      vertex 60.4862896502018 -2.3382612094283104 0.01
      vertex 57.48628965095479 0.6617387872822835 13
      vertex 57.33826121271772 0.5137103490452115 13
    endloop
  endfacet
  facet normal 0.7391315973225641 -0.5985369659417283 0.308930384133166
    outer loop
      vertex 60.61803399026394 -2.1755705028772354 0.01
      vertex 57.61803398874989 0.8244294954150537 13
      vertex 57.48628965095479 0.6617387872822835 13
    endloop
  endfacet
  facet normal 0.7988926738736362 -0.518806968563397 0.3043186241443179
    outer loop
      vertex 60.61803399026394 -2.1755705028772354 0.01
      vertex 57.732050807568875 1 13
      vertex 57.61803398874989 0.8244294954150537 13
    endloop
  endfacet
  facet normal 0.8509013767348715 -0.43355590645628506 0.29664140480986306
    outer loop
      vertex 60.73205080628395 -2 0.01
      vertex 57.827090915285204 1.1865267138483997 13
      vertex 57.732050807568875 1 13
    endloop
  endfacet
  facet normal 0.8946078583938364 -0.34340778229744096 0.2859158525817463
    outer loop
      vertex 60.902113035321236 -1.618033990263939 0.01
      vertex 57.90211303259031 1.381966011250105 13
      vertex 57.827090915285204 1.1865267138483997 13
    endloop
  endfacet
  facet normal 0.9294605399670253 -0.24904820108076062 0.27217291963500473
    outer loop
      vertex 60.902113035321236 -1.618033990263939 0.01
      vertex 57.95629520146761 1.5841766183644812 13
      vertex 57.90211303259031 1.381966011250105 13
    endloop
  endfacet
  facet normal 0.9549154247537257 -0.15124374510687844 0.255464011425205
    outer loop
      vertex 60.95629519969225 -1.4158233851194382 0.01
      vertex 57.989043790736545 1.790943073464693 13
      vertex 57.95629520146761 1.5841766183644812 13
    endloop
  endfacet
  facet normal 0.9704530850384819 -0.05085929108525064 0.23586890903550373
    outer loop
      vertex 61 -1 0.01
      vertex 58 2 13
      vertex 57.989043790736545 1.790943073464693 13
    endloop
  endfacet
  facet normal 0 0 1
    outer loop
      vertex 56 0 13
      vertex 56.209056926535304 0.01095620926345342 13
      vertex 57.90211303259031 1.381966011250105 13
    endloop
  endfacet
  facet normal 0 0 1
    outer loop
      vertex 56.209056926535304 0.01095620926345342 13
      vertex 56.41582338163552 0.04370479853238862 13
      vertex 57.90211303259031 1.381966011250105 13
    endloop
  endfacet
  facet normal 0 0 1
    outer loop
      vertex 56.41582338163552 0.04370479853238862 13
      vertex 56.61803398874989 0.09788696740969294 13
      vertex 57.90211303259031 1.381966011250105 13
    endloop
  endfacet
  facet normal 0 0 1
    outer loop
      vertex 56.61803398874989 0.09788696740969294 13
      vertex 56.8134732861516 0.17290908471479827 13
      vertex 57.90211303259031 1.381966011250105 13
    endloop
  endfacet
  facet normal 0 0 1
    outer loop
      vertex 56.8134732861516 0.17290908471479827 13
      vertex 57 0.2679491924311228 13
      vertex 57.90211303259031 1.381966011250105 13
    endloop
  endfacet
  facet normal 0 0 1
    outer loop
      vertex 57 0.2679491924311228 13
      vertex 57.17557050458495 0.3819660112501051 13
      vertex 57.90211303259031 1.381966011250105 13
    endloop
  endfacet
  facet normal 0 0 1
    outer loop
      vertex 57.17557050458495 0.3819660112501051 13
      vertex 57.33826121271772 0.5137103490452115 13
      vertex 57.90211303259031 1.381966011250105 13
    endloop
  endfacet
  facet normal 0 0 1
    outer loop
      vertex 57.33826121271772 0.5137103490452115 13
      vertex 57.48628965095479 0.6617387872822835 13
      vertex 57.90211303259031 1.381966011250105 13
    endloop
  endfacet
  facet normal 0 0 1
    outer loop
      vertex 57.48628965095479 0.6617387872822835 13
      vertex 57.61803398874989 0.8244294954150537 13
      vertex 57.90211303259031 1.381966011250105 13
    endloop
  endfacet
  facet normal 0 0 1
    outer loop
      vertex 57.61803398874989 0.8244294954150537 13
      vertex 57.732050807568875 1 13
      vertex 57.90211303259031 1.381966011250105 13
    endloop
  endfacet
  facet normal 0 0 1
    outer loop
      vertex 57.732050807568875 1 13
      vertex 57.827090915285204 1.1865267138483997 13
      vertex 57.90211303259031 1.381966011250105 13
    endloop
  endfacet
  facet normal 0 0 1
    outer loop
      vertex 57.90211303259031 1.381966011250105 13
      vertex 57.95629520146761 1.5841766183644812 13
      vertex 57.989043790736545 1.790943073464693 13
    endloop
  endfacet
  facet normal 0 0 1
    outer loop
      vertex 57.90211303259031 1.381966011250105 13
      vertex 57.989043790736545 1.790943073464693 13
      vertex 58 2 13
    endloop
  endfacet
  facet normal 0 0 1
    outer loop
      vertex 57.90211303259031 1.381966011250105 13
      vertex 55.2 24.2 13
      vertex 55.2 2.8000000000000007 13
    endloop
  endfacet
  facet normal 0 0 1
    outer loop
      vertex 57.90211303259031 1.381966011250105 13
      vertex 58 2 13
      vertex 58 25 13
    endloop
  endfacet
  facet normal 0 0 -1
    outer loop
      vertex -2.827090911567211 28.813473284244537 0
      vertex 61 28 0
      vertex 61 -1 0
    endloop
  endfacet
  facet normal 0 0 -1
    outer loop
      vertex -2.827090911567211 28.813473284244537 0
      vertex 59.81347328424454 29.82709091156721 0
      vertex 60 29.73205080628395 0
    endloop
  endfacet
  facet normal 0 0 -1
    outer loop
      vertex -2.827090911567211 28.813473284244537 0
      vertex 59 30 0
      vertex 59.20905692875385 29.989043787121773 0
    endloop
  endfacet
  facet normal 0 0 -1
    outer loop
      vertex -2.827090911567211 28.813473284244537 0
      vertex 59.20905692875385 29.989043787121773 0
      vertex 59.41582338511944 29.95629519969225 0
    endloop
  endfacet
  facet normal 0 0 -1
    outer loop
      vertex -2.827090911567211 28.813473284244537 0
      vertex 59.41582338511944 29.95629519969225 0
      vertex 59.61803399026394 29.902113035321236 0
    endloop
  endfacet
  facet normal 0 0 -1
    outer loop
      vertex -2.827090911567211 28.813473284244537 0
      vertex 59.61803399026394 29.902113035321236 0
      vertex 59.81347328424454 29.82709091156721 0
    endloop
  endfacet
  facet normal 0 0 -1
    outer loop
      vertex -2.827090911567211 28.813473284244537 0
      vertex 60.98904378712177 28.209056928753853 0
      vertex 61 28 0
    endloop
  endfacet
  facet normal 0 0 -1
    outer loop
      vertex -2.827090911567211 28.813473284244537 0
      vertex 60.95629519969225 28.415823385119438 0
      vertex 60.98904378712177 28.209056928753853 0
    endloop
  endfacet
  facet normal 0 0 -1
    outer loop
      vertex -2.827090911567211 28.813473284244537 0
      vertex 60.902113035321236 28.61803399026394 0
      vertex 60.95629519969225 28.415823385119438 0
    endloop
  endfacet
  facet normal 0 0 -1
    outer loop
      vertex -2.827090911567211 28.813473284244537 0
      vertex 60.82709091156721 28.813473284244537 0
      vertex 60.902113035321236 28.61803399026394 0
    endloop
  endfacet
  facet normal 0 0 -1
    outer loop
      vertex -2.827090911567211 28.813473284244537 0
      vertex 60.73205080628395 29 0
      vertex 60.82709091156721 28.813473284244537 0
    endloop
  endfacet
  facet normal 0 0 -1
    outer loop
      vertex -2.827090911567211 28.813473284244537 0
      vertex 60.33826120942831 29.486289650201797 0
      vertex 60.4862896502018 29.33826120942831 0
    endloop
  endfacet
  facet normal 0 0 -1
    outer loop
      vertex -2.827090911567211 28.813473284244537 0
      vertex 60.4862896502018 29.33826120942831 0
      vertex 60.61803399026394 29.175570502877235 0
    endloop
  endfacet
  facet normal 0 0 -1
    outer loop
      vertex -2.827090911567211 28.813473284244537 0
      vertex 60.175570502877235 29.61803399026394 0
      vertex 60.33826120942831 29.486289650201797 0
    endloop
  endfacet
  facet normal 0 0 -1
    outer loop
      vertex -2.827090911567211 28.813473284244537 0
      vertex 60 29.73205080628395 0
      vertex 60.175570502877235 29.61803399026394 0
    endloop
  endfacet
  facet normal 0 0 -1
    outer loop
      vertex -2.827090911567211 28.813473284244537 0
      vertex 60.61803399026394 29.175570502877235 0
      vertex 60.73205080628395 29 0
    endloop
  endfacet
  facet normal 0 1 0
    outer loop
      vertex -1 30 0
      vertex 59 30 0.01
      vertex 59 30 0
    endloop
  endfacet
  facet normal 1 0 0
    outer loop
      vertex 61 -1 0.01
      vertex 61 28 0
      vertex 61 28 0.01
    endloop
  endfacet
  facet normal 0.9986295338811463 0.052335972908934415 0
    outer loop
      vertex 61 28 0
      vertex 60.98904378712177 28.209056928753853 0
      vertex 61 28 0.01
    endloop
  endfacet
  facet normal 0.9986295338811463 0.052335972908934415 0
    outer loop
      vertex 61 28 0.01
      vertex 60.98904378712177 28.209056928753853 0
      vertex 60.98904378712177 28.209056928753853 0.01
    endloop
  endfacet
  facet normal 0.9876883421006546 0.15643445553477123 0
    outer loop
      vertex 60.98904378712177 28.209056928753853 0.01
      vertex 60.98904378712177 28.209056928753853 0
      vertex 60.95629519969225 28.415823385119438 0.01
    endloop
  endfacet
  facet normal 0.9876883421006546 0.15643445553477123 0
    outer loop
      vertex 60.98904378712177 28.209056928753853 0
      vertex 60.95629519969225 28.415823385119438 0
      vertex 60.95629519969225 28.415823385119438 0.01
    endloop
  endfacet
  facet normal 0.9659258310401804 0.2588190273711286 0
    outer loop
      vertex 60.95629519969225 28.415823385119438 0.01
      vertex 60.95629519969225 28.415823385119438 0
      vertex 60.902113035321236 28.61803399026394 0.01
    endloop
  endfacet
  facet normal 0.9659258310401804 0.2588190273711286 0
    outer loop
      vertex 60.95629519969225 28.415823385119438 0
      vertex 60.902113035321236 28.61803399026394 0
      vertex 60.902113035321236 28.61803399026394 0.01
    endloop
  endfacet
  facet normal 0.9335804140920149 0.35836798186191504 0
    outer loop
      vertex 60.902113035321236 28.61803399026394 0.01
      vertex 60.902113035321236 28.61803399026394 0
      vertex 60.82709091156721 28.813473284244537 0
    endloop
  endfacet
  facet normal 0.9335804140920149 0.35836798186191504 0
    outer loop
      vertex 60.902113035321236 28.61803399026394 0.01
      vertex 60.82709091156721 28.813473284244537 0
      vertex 60.82709091156721 28.813473284244537 0.01
    endloop
  endfacet
  facet normal 0.8910065307672812 0.4539904868277023 0
    outer loop
      vertex 60.82709091156721 28.813473284244537 0.01
      vertex 60.82709091156721 28.813473284244537 0
      vertex 60.73205080628395 29 0.01
    endloop
  endfacet
  facet normal 0.8910065307672812 0.4539904868277023 0
    outer loop
      vertex 60.82709091156721 28.813473284244537 0
      vertex 60.73205080628395 29 0
      vertex 60.73205080628395 29 0.01
    endloop
  endfacet
  facet normal 0.052335972908934415 0.9986295338811463 0
    outer loop
      vertex 59 30 0.01
      vertex 59.20905692875385 29.989043787121773 0.01
      vertex 59 30 0
    endloop
  endfacet
  facet normal 0.052335972908934415 0.9986295338811463 0
    outer loop
      vertex 59 30 0
      vertex 59.20905692875385 29.989043787121773 0.01
      vertex 59.20905692875385 29.989043787121773 0
    endloop
  endfacet
  facet normal 0.15643445553477123 0.9876883421006546 0
    outer loop
      vertex 59.20905692875385 29.989043787121773 0.01
      vertex 59.41582338511944 29.95629519969225 0.01
      vertex 59.20905692875385 29.989043787121773 0
    endloop
  endfacet
  facet normal 0.15643445553477123 0.9876883421006546 0
    outer loop
      vertex 59.20905692875385 29.989043787121773 0
      vertex 59.41582338511944 29.95629519969225 0.01
      vertex 59.41582338511944 29.95629519969225 0
    endloop
  endfacet
  facet normal 0.2588190273711286 0.9659258310401804 0
    outer loop
      vertex 59.41582338511944 29.95629519969225 0.01
      vertex 59.61803399026394 29.902113035321236 0
      vertex 59.41582338511944 29.95629519969225 0
    endloop
  endfacet
  facet normal 0.35836798186191504 0.9335804140920149 0
    outer loop
      vertex 59.61803399026394 29.902113035321236 0
      vertex 59.81347328424454 29.82709091156721 0.01
      vertex 59.81347328424454 29.82709091156721 0
    endloop
  endfacet
  facet normal 0.2588190273711286 0.9659258310401804 0
    outer loop
      vertex 59.41582338511944 29.95629519969225 0.01
      vertex 59.61803399026394 29.902113035321236 0.01
      vertex 59.61803399026394 29.902113035321236 0
    endloop
  endfacet
  facet normal 0.35836798186191504 0.9335804140920149 0
    outer loop
      vertex 59.61803399026394 29.902113035321236 0
      vertex 59.61803399026394 29.902113035321236 0.01
      vertex 59.81347328424454 29.82709091156721 0.01
    endloop
  endfacet
  facet normal 0.4539904868277023 0.8910065307672812 0
    outer loop
      vertex 59.81347328424454 29.82709091156721 0
      vertex 59.81347328424454 29.82709091156721 0.01
      vertex 60 29.73205080628395 0.01
    endloop
  endfacet
  facet normal 0.4539904868277023 0.8910065307672812 0
    outer loop
      vertex 59.81347328424454 29.82709091156721 0
      vertex 60 29.73205080628395 0.01
      vertex 60 29.73205080628395 0
    endloop
  endfacet
  facet normal 0.7071067811865475 0.7071067811865475 0
    outer loop
      vertex 60.4862896502018 29.33826120942831 0.01
      vertex 60.4862896502018 29.33826120942831 0
      vertex 60.33826120942831 29.486289650201797 0.01
    endloop
  endfacet
  facet normal 0.7071067811865475 0.7071067811865475 0
    outer loop
      vertex 60.4862896502018 29.33826120942831 0
      vertex 60.33826120942831 29.486289650201797 0
      vertex 60.33826120942831 29.486289650201797 0.01
    endloop
  endfacet
  facet normal 0.8386705716328139 0.5446390293369447 0
    outer loop
      vertex 60.73205080628395 29 0.01
      vertex 60.73205080628395 29 0
      vertex 60.61803399026394 29.175570502877235 0
    endloop
  endfacet
  facet normal 0.8386705716328139 0.5446390293369447 0
    outer loop
      vertex 60.73205080628395 29 0.01
      vertex 60.61803399026394 29.175570502877235 0
      vertex 60.61803399026394 29.175570502877235 0.01
    endloop
  endfacet
  facet normal 0.7771459531683643 0.6293204012854139 0
    outer loop
      vertex 60.4862896502018 29.33826120942831 0.01
      vertex 60.61803399026394 29.175570502877235 0.01
      vertex 60.4862896502018 29.33826120942831 0
    endloop
  endfacet
  facet normal 0.7771459531683643 0.6293204012854139 0
    outer loop
      vertex 60.4862896502018 29.33826120942831 0
      vertex 60.61803399026394 29.175570502877235 0.01
      vertex 60.61803399026394 29.175570502877235 0
    endloop
  endfacet
  facet normal 0.6293204012854139 0.7771459531683643 0
    outer loop
      vertex 60.175570502877235 29.61803399026394 0
      vertex 60.175570502877235 29.61803399026394 0.01
      vertex 60.33826120942831 29.486289650201797 0.01
    endloop
  endfacet
  facet normal 0.5446390293369447 0.8386705716328139 0
    outer loop
      vertex 60 29.73205080628395 0.01
      vertex 60.175570502877235 29.61803399026394 0.01
      vertex 60.175570502877235 29.61803399026394 0
    endloop
  endfacet
  facet normal 0.5446390293369447 0.8386705716328139 0
    outer loop
      vertex 60 29.73205080628395 0.01
      vertex 60.175570502877235 29.61803399026394 0
      vertex 60 29.73205080628395 0
    endloop
  endfacet
  facet normal 0.6293204012854139 0.7771459531683643 0
    outer loop
      vertex 60.175570502877235 29.61803399026394 0
      vertex 60.33826120942831 29.486289650201797 0.01
      vertex 60.33826120942831 29.486289650201797 0
    endloop
  endfacet
  facet normal 0.9704530834382278 0.05085930724161797 0.23586891213582784
    outer loop
      vertex 61 28 0.01
      vertex 60.98904378712177 28.209056928753853 0.01
      vertex 57.989043790736545 25.209056926535307 13
    endloop
  endfacet
  facet normal 0.954915426681617 0.1512437359916405 0.25546400961535887
    outer loop
      vertex 60.98904378712177 28.209056928753853 0.01
      vertex 60.95629519969225 28.415823385119438 0.01
      vertex 57.989043790736545 25.209056926535307 13
    endloop
  endfacet
  facet normal 0.9294605453405136 0.24904818423358183 0.2721729167005251
    outer loop
      vertex 60.95629519969225 28.415823385119438 0.01
      vertex 60.902113035321236 28.61803399026394 0.01
      vertex 57.95629520146761 25.41582338163552 13
    endloop
  endfacet
  facet normal 0.8946078455161283 0.34340781288482786 0.2859158561371687
    outer loop
      vertex 60.902113035321236 28.61803399026394 0.01
      vertex 60.82709091156721 28.813473284244537 0.01
      vertex 57.827090915285204 25.813473286151602 13
    endloop
  endfacet
  facet normal 0.8509013834265193 0.4335558943339189 0.29664140333262895
    outer loop
      vertex 60.82709091156721 28.813473284244537 0.01
      vertex 60.73205080628395 29 0.01
      vertex 57.827090915285204 25.813473286151602 13
    endloop
  endfacet
  facet normal 0.24904818423358183 0.9294605453405136 0.2721729167005251
    outer loop
      vertex 59.41582338511944 29.95629519969225 0.01
      vertex 56.41582338163552 26.95629520146761 13
      vertex 59.61803399026394 29.902113035321236 0.01
    endloop
  endfacet
  facet normal 0.34340781288482786 0.8946078455161283 0.2859158561371691
    outer loop
      vertex 59.61803399026394 29.902113035321236 0.01
      vertex 56.8134732861516 26.8270909152852 13
      vertex 59.81347328424454 29.82709091156721 0.01
    endloop
  endfacet
  facet normal 0.43355589433391883 0.8509013834265192 0.2966414033326293
    outer loop
      vertex 59.81347328424454 29.82709091156721 0.01
      vertex 56.8134732861516 26.8270909152852 13
      vertex 60 29.73205080628395 0.01
    endloop
  endfacet
  facet normal 0.05085930724161796 0.9704530834382277 0.2358689121358278
    outer loop
      vertex 59 30 0.01
      vertex 56.209056926535304 26.989043790736545 13
      vertex 59.20905692875385 29.989043787121773 0.01
    endloop
  endfacet
  facet normal 0.1512437359916405 0.954915426681617 0.2554640096153589
    outer loop
      vertex 59.20905692875385 29.989043787121773 0.01
      vertex 56.209056926535304 26.989043790736545 13
      vertex 59.41582338511944 29.95629519969225 0.01
    endloop
  endfacet
  facet normal 0.6721641719411999 0.6721641719411999 0.3104684394865315
    outer loop
      vertex 60.4862896502018 29.33826120942831 0.01
      vertex 60.33826120942831 29.486289650201797 0.01
      vertex 57.33826121271772 26.486289650954788 13
    endloop
  endfacet
  facet normal 0.7988926775178709 0.5188069632401799 0.3043186236526279
    outer loop
      vertex 60.73205080628395 29 0.01
      vertex 60.61803399026394 29.175570502877235 0.01
      vertex 57.732050807568875 26 13
    endloop
  endfacet
  facet normal 0.7391315893878405 0.5985369756348834 0.3089303843373965
    outer loop
      vertex 60.4862896502018 29.33826120942831 0.01
      vertex 57.48628965095479 26.33826121271772 13
      vertex 60.61803399026394 29.175570502877235 0.01
    endloop
  endfacet
  facet normal 0.5188069632401799 0.7988926775178709 0.30431862365262763
    outer loop
      vertex 60 29.73205080628395 0.01
      vertex 57 26.73205080756888 13
      vertex 60.175570502877235 29.61803399026394 0.01
    endloop
  endfacet
  facet normal 0.5985369756348835 0.7391315893878406 0.30893038433739656
    outer loop
      vertex 60.175570502877235 29.61803399026394 0.01
      vertex 57.33826121271772 26.486289650954788 13
      vertex 60.33826120942831 29.486289650201797 0.01
    endloop
  endfacet
  facet normal 0 0.9743532564679156 0.22502384675933385
    outer loop
      vertex 2 27 13
      vertex 56 27 13
      vertex 59 30 0.01
    endloop
  endfacet
  facet normal 0 0 1
    outer loop
      vertex 2 27 13
      vertex 55.2 24.2 13
      vertex 56 27 13
    endloop
  endfacet
  facet normal 0.9743532564679156 0 0.22502384675933387
    outer loop
      vertex 58 2 13
      vertex 61 28 0.01
      vertex 58 25 13
    endloop
  endfacet
  facet normal 0 0 1
    outer loop
      vertex 57.90211303259031 1.381966011250105 13
      vertex 56 27 13
      vertex 55.2 24.2 13
    endloop
  endfacet
  facet normal 0 0 1
    outer loop
      vertex 57.90211303259031 1.381966011250105 13
      vertex 58 25 13
      vertex 57.989043790736545 25.209056926535307 13
    endloop
  endfacet
  facet normal 0 0 1
    outer loop
      vertex 57.90211303259031 1.381966011250105 13
      vertex 57.989043790736545 25.209056926535307 13
      vertex 57.95629520146761 25.41582338163552 13
    endloop
  endfacet
  facet normal 0 0 1
    outer loop
      vertex 57.90211303259031 1.381966011250105 13
      vertex 57.95629520146761 25.41582338163552 13
      vertex 57.90211303259031 25.618033988749893 13
    endloop
  endfacet
  facet normal 0 0 1
    outer loop
      vertex 57.90211303259031 1.381966011250105 13
      vertex 57.90211303259031 25.618033988749893 13
      vertex 57.827090915285204 25.813473286151602 13
    endloop
  endfacet
  facet normal 0 0 1
    outer loop
      vertex 57.90211303259031 1.381966011250105 13
      vertex 56.209056926535304 26.989043790736545 13
      vertex 56 27 13
    endloop
  endfacet
  facet normal 0 0 1
    outer loop
      vertex 57.90211303259031 1.381966011250105 13
      vertex 56.41582338163552 26.95629520146761 13
      vertex 56.209056926535304 26.989043790736545 13
    endloop
  endfacet
  facet normal 0 0 1
    outer loop
      vertex 57.90211303259031 1.381966011250105 13
      vertex 56.61803398874989 26.902113032590307 13
      vertex 56.41582338163552 26.95629520146761 13
    endloop
  endfacet
  facet normal 0 0 1
    outer loop
      vertex 57.90211303259031 1.381966011250105 13
      vertex 57.827090915285204 25.813473286151602 13
      vertex 57.732050807568875 26 13
    endloop
  endfacet
  facet normal 0 0 1
    outer loop
      vertex 57.90211303259031 1.381966011250105 13
      vertex 57.732050807568875 26 13
      vertex 57.61803398874989 26.175570504584947 13
    endloop
  endfacet
  facet normal 0 0 1
    outer loop
      vertex 57.90211303259031 1.381966011250105 13
      vertex 57.61803398874989 26.175570504584947 13
      vertex 57.48628965095479 26.33826121271772 13
    endloop
  endfacet
  facet normal 0 0 1
    outer loop
      vertex 57.90211303259031 1.381966011250105 13
      vertex 57.48628965095479 26.33826121271772 13
      vertex 57.33826121271772 26.486289650954788 13
    endloop
  endfacet
  facet normal 0 0 1
    outer loop
      vertex 57.90211303259031 1.381966011250105 13
      vertex 56.8134732861516 26.8270909152852 13
      vertex 56.61803398874989 26.902113032590307 13
    endloop
  endfacet
  facet normal 0 0 1
    outer loop
      vertex 57.90211303259031 1.381966011250105 13
      vertex 57 26.73205080756888 13
      vertex 56.8134732861516 26.8270909152852 13
    endloop
  endfacet
  facet normal 0 0 1
    outer loop
      vertex 57.90211303259031 1.381966011250105 13
      vertex 57.17557050458495 26.618033988749893 13
      vertex 57 26.73205080756888 13
    endloop
  endfacet
  facet normal 0 0 1
    outer loop
      vertex 57.90211303259031 1.381966011250105 13
      vertex 57.33826121271772 26.486289650954788 13
      vertex 57.17557050458495 26.618033988749893 13
    endloop
  endfacet
  facet normal 0.9704530850384819 0.05085929108525051 0.23586890903550375
    outer loop
      vertex 61 28 0.01
      vertex 57.989043790736545 25.209056926535307 13
      vertex 58 25 13
    endloop
  endfacet
  facet normal 0.9549154247537257 0.15124374510687844 0.255464011425205
    outer loop
      vertex 60.95629519969225 28.415823385119438 0.01
      vertex 57.95629520146761 25.41582338163552 13
      vertex 57.989043790736545 25.209056926535307 13
    endloop
  endfacet
  facet normal 0.9294605399670248 0.24904820108076253 0.27217291963500495
    outer loop
      vertex 60.902113035321236 28.61803399026394 0.01
      vertex 57.90211303259031 25.618033988749893 13
      vertex 57.95629520146761 25.41582338163552 13
    endloop
  endfacet
  facet normal 0.8946078583938389 0.3434077822974352 0.2859158525817453
    outer loop
      vertex 60.902113035321236 28.61803399026394 0.01
      vertex 57.827090915285204 25.813473286151602 13
      vertex 57.90211303259031 25.618033988749893 13
    endloop
  endfacet
  facet normal 0.24904820108076253 0.9294605399670248 0.27217291963500495
    outer loop
      vertex 59.61803399026394 29.902113035321236 0.01
      vertex 56.41582338163552 26.95629520146761 13
      vertex 56.61803398874989 26.902113032590307 13
    endloop
  endfacet
  facet normal 0.3434077822974538 0.8946078583938308 0.2859158525817483
    outer loop
      vertex 59.61803399026394 29.902113035321236 0.01
      vertex 56.61803398874989 26.902113032590307 13
      vertex 56.8134732861516 26.8270909152852 13
    endloop
  endfacet
  facet normal 0.4335559064562567 0.8509013767348871 0.29664140480986023
    outer loop
      vertex 60 29.73205080628395 0.01
      vertex 56.8134732861516 26.8270909152852 13
      vertex 57 26.73205080756888 13
    endloop
  endfacet
  facet normal 0.6721641719412 0.6721641719412 0.31046843948653075
    outer loop
      vertex 60.4862896502018 29.33826120942831 0.01
      vertex 57.33826121271772 26.486289650954788 13
      vertex 57.48628965095479 26.33826121271772 13
    endloop
  endfacet
  facet normal 0.7988926738736362 0.518806968563397 0.3043186241443179
    outer loop
      vertex 60.61803399026394 29.175570502877235 0.01
      vertex 57.61803398874989 26.175570504584947 13
      vertex 57.732050807568875 26 13
    endloop
  endfacet
  facet normal 0.8509013767348701 0.4335559064562881 0.2966414048098633
    outer loop
      vertex 60.73205080628395 29 0.01
      vertex 57.732050807568875 26 13
      vertex 57.827090915285204 25.813473286151602 13
    endloop
  endfacet
  facet normal 0.7391315973225672 0.5985369659417248 0.3089303841331654
    outer loop
      vertex 60.61803399026394 29.175570502877235 0.01
      vertex 57.48628965095479 26.33826121271772 13
      vertex 57.61803398874989 26.175570504584947 13
    endloop
  endfacet
  facet normal 0.5188069685634091 0.798892673873628 0.3043186241443185
    outer loop
      vertex 60.175570502877235 29.61803399026394 0.01
      vertex 57 26.73205080756888 13
      vertex 57.17557050458495 26.618033988749893 13
    endloop
  endfacet
  facet normal 0.5985369659417248 0.7391315973225672 0.3089303841331654
    outer loop
      vertex 60.175570502877235 29.61803399026394 0.01
      vertex 57.17557050458495 26.618033988749893 13
      vertex 57.33826121271772 26.486289650954788 13
    endloop
  endfacet
  facet normal 0.05085929108525143 0.9704530850384817 0.23586890903550423
    outer loop
      vertex 59 30 0.01
      vertex 56 27 13
      vertex 56.209056926535304 26.989043790736545 13
    endloop
  endfacet
  facet normal 0.15124374510687572 0.9549154247537263 0.25546401142520414
    outer loop
      vertex 59.41582338511944 29.95629519969225 0.01
      vertex 56.209056926535304 26.989043790736545 13
      vertex 56.41582338163552 26.95629520146761 13
    endloop
  endfacet
  facet normal 1 0 0
    outer loop
      vertex 2.8000000000000007 2.8000000000000007 9.99
      vertex 2.8000000000000007 24.2 13
      vertex 2.8000000000000007 2.8000000000000007 13
    endloop
  endfacet
  facet normal 0 1 0
    outer loop
      vertex 2.8000000000000007 2.8000000000000007 9.99
      vertex 2.8000000000000007 2.8000000000000007 13
      vertex 55.2 2.8000000000000007 9.99
    endloop
  endfacet
  facet normal 1 0 0
    outer loop
      vertex 2.8000000000000007 2.8000000000000007 9.99
      vertex 2.8000000000000007 24.2 9.99
      vertex 2.8000000000000007 24.2 13
    endloop
  endfacet
  facet normal 0 0 1
    outer loop
      vertex 2.8000000000000007 2.8000000000000007 9.99
      vertex 55.2 24.2 9.99
      vertex 2.8000000000000007 24.2 9.99
    endloop
  endfacet
  facet normal 0 -1 0
    outer loop
      vertex 2.8000000000000007 24.2 9.99
      vertex 55.2 24.2 13
      vertex 2.8000000000000007 24.2 13
    endloop
  endfacet
  facet normal 0 1 0
    outer loop
      vertex 55.2 2.8000000000000007 9.99
      vertex 2.8000000000000007 2.8000000000000007 13
      vertex 55.2 2.8000000000000007 13
    endloop
  endfacet
  facet normal 0 0 1
    outer loop
      vertex 2.8000000000000007 2.8000000000000007 9.99
      vertex 55.2 2.8000000000000007 9.99
      vertex 55.2 24.2 9.99
    endloop
  endfacet
  facet normal -1 0 0
    outer loop
      vertex 55.2 2.8000000000000007 9.99
      vertex 55.2 2.8000000000000007 13
      vertex 55.2 24.2 9.99
    endloop
  endfacet
  facet normal 0 -1 0
    outer loop
      vertex 2.8000000000000007 24.2 9.99
      vertex 55.2 24.2 9.99
      vertex 55.2 24.2 13
    endloop
  endfacet
  facet normal -1 0 0
    outer loop
      vertex 55.2 24.2 9.99
      vertex 55.2 2.8000000000000007 13
      vertex 55.2 24.2 13
    endloop
  endfacet
endsolid OpenSCAD_Model
